<ttFont>
    <TTGlyph name="A" xMin="0" yMin="0" xMax="556" yMax="680">
      <contour>
        <pt x="327" y="680" on="1"/>
        <pt x="556" y="0" on="1"/>
        <pt x="473" y="0" on="1"/>
        <pt x="407" y="200" on="1"/>
        <pt x="149" y="200" on="1"/>
        <pt x="83" y="0" on="1"/>
        <pt x="0" y="0" on="1"/>
        <pt x="229" y="680" on="1"/>
      </contour>
      <contour>
        <pt x="278" y="592" on="1"/>
        <pt x="172" y="272" on="1"/>
        <pt x="383" y="272" on="1"/>
      </contour>
    </TTGlyph>
    <TTGlyph name="AE" xMin="0" yMin="0" xMax="724" yMax="680">
      <contour>
        <pt x="724" y="0" on="1"/>
        <pt x="425" y="0" on="1"/>
        <pt x="373" y="272" on="1"/>
        <pt x="172" y="272" on="1"/>
        <pt x="83" y="0" on="1"/>
        <pt x="0" y="0" on="1"/>
        <pt x="229" y="680" on="1"/>
        <pt x="684" y="680" on="1"/>
        <pt x="684" y="608" on="1"/>
        <pt x="387" y="608" on="1"/>
        <pt x="439" y="344" on="1"/>
        <pt x="669" y="344" on="1"/>
        <pt x="669" y="272" on="1"/>
        <pt x="453" y="272" on="1"/>
        <pt x="492" y="72" on="1"/>
        <pt x="724" y="72" on="1"/>
      </contour>
      <contour>
        <pt x="283" y="608" on="1"/>
        <pt x="196" y="344" on="1"/>
        <pt x="359" y="344" on="1"/>
        <pt x="309" y="608" on="1"/>
      </contour>
    </TTGlyph>
    <TTGlyph name="Aacute" xMin="0" yMin="0" xMax="556" yMax="915">
      <contour>
        <pt x="327" y="680" on="1"/>
        <pt x="556" y="0" on="1"/>
        <pt x="473" y="0" on="1"/>
        <pt x="407" y="200" on="1"/>
        <pt x="149" y="200" on="1"/>
        <pt x="83" y="0" on="1"/>
        <pt x="0" y="0" on="1"/>
        <pt x="229" y="680" on="1"/>
      </contour>
      <contour>
        <pt x="278" y="592" on="1"/>
        <pt x="172" y="272" on="1"/>
        <pt x="383" y="272" on="1"/>
      </contour>
      <contour>
        <pt x="333" y="915" on="1"/>
        <pt x="365" y="915" on="0"/>
        <pt x="383" y="862" on="1"/>
        <pt x="203" y="715" on="1"/>
        <pt x="179" y="740" on="1"/>
        <pt x="281" y="880" on="1"/>
        <pt x="307" y="915" on="0"/>
      </contour>
    </TTGlyph>
    <TTGlyph name="Acircumflex" xMin="0" yMin="0" xMax="556" yMax="907">
      <contour>
        <pt x="327" y="680" on="1"/>
        <pt x="556" y="0" on="1"/>
        <pt x="473" y="0" on="1"/>
        <pt x="407" y="200" on="1"/>
        <pt x="149" y="200" on="1"/>
        <pt x="83" y="0" on="1"/>
        <pt x="0" y="0" on="1"/>
        <pt x="229" y="680" on="1"/>
      </contour>
      <contour>
        <pt x="278" y="592" on="1"/>
        <pt x="172" y="272" on="1"/>
        <pt x="383" y="272" on="1"/>
      </contour>
      <contour>
        <pt x="234" y="879" on="1"/>
        <pt x="253" y="907" on="0"/>
        <pt x="302" y="907" on="0"/>
        <pt x="322" y="879" on="1"/>
        <pt x="419" y="742" on="1"/>
        <pt x="395" y="717" on="1"/>
        <pt x="278" y="824" on="1"/>
        <pt x="161" y="717" on="1"/>
        <pt x="137" y="742" on="1"/>
      </contour>
    </TTGlyph>
    <TTGlyph name="Adieresis" xMin="0" yMin="0" xMax="556" yMax="872">
      <contour>
        <pt x="473" y="0" on="1"/>
        <pt x="407" y="200" on="1"/>
        <pt x="149" y="200" on="1"/>
        <pt x="83" y="0" on="1"/>
        <pt x="0" y="0" on="1"/>
        <pt x="229" y="680" on="1"/>
        <pt x="327" y="680" on="1"/>
        <pt x="556" y="0" on="1"/>
      </contour>
      <contour>
        <pt x="278" y="592" on="1"/>
        <pt x="172" y="272" on="1"/>
        <pt x="383" y="272" on="1"/>
      </contour>
      <contour>
        <pt x="319" y="803" on="0"/>
        <pt x="319" y="845" on="0"/>
        <pt x="343" y="872" on="0"/>
        <pt x="389" y="872" on="0"/>
        <pt x="415" y="844" on="0"/>
        <pt x="415" y="804" on="0"/>
        <pt x="389" y="776" on="0"/>
        <pt x="343" y="776" on="0"/>
      </contour>
      <contour>
        <pt x="141" y="803" on="0"/>
        <pt x="141" y="845" on="0"/>
        <pt x="165" y="872" on="0"/>
        <pt x="211" y="872" on="0"/>
        <pt x="237" y="844" on="0"/>
        <pt x="237" y="804" on="0"/>
        <pt x="211" y="776" on="0"/>
        <pt x="165" y="776" on="0"/>
      </contour>
    </TTGlyph>
    <TTGlyph name="Agrave" xMin="0" yMin="0" xMax="556" yMax="915">
      <contour>
        <pt x="327" y="680" on="1"/>
        <pt x="556" y="0" on="1"/>
        <pt x="473" y="0" on="1"/>
        <pt x="407" y="200" on="1"/>
        <pt x="149" y="200" on="1"/>
        <pt x="83" y="0" on="1"/>
        <pt x="0" y="0" on="1"/>
        <pt x="229" y="680" on="1"/>
      </contour>
      <contour>
        <pt x="278" y="592" on="1"/>
        <pt x="172" y="272" on="1"/>
        <pt x="383" y="272" on="1"/>
      </contour>
      <contour>
        <pt x="223" y="915" on="1"/>
        <pt x="249" y="915" on="0"/>
        <pt x="275" y="880" on="1"/>
        <pt x="377" y="740" on="1"/>
        <pt x="353" y="715" on="1"/>
        <pt x="173" y="862" on="1"/>
        <pt x="191" y="915" on="0"/>
      </contour>
    </TTGlyph>
    <TTGlyph name="Aring" xMin="0" yMin="0" xMax="556" yMax="919">
      <contour>
        <pt x="327" y="680" on="1"/>
        <pt x="556" y="0" on="1"/>
        <pt x="473" y="0" on="1"/>
        <pt x="407" y="200" on="1"/>
        <pt x="149" y="200" on="1"/>
        <pt x="83" y="0" on="1"/>
        <pt x="0" y="0" on="1"/>
        <pt x="229" y="680" on="1"/>
      </contour>
      <contour>
        <pt x="278" y="592" on="1"/>
        <pt x="172" y="272" on="1"/>
        <pt x="383" y="272" on="1"/>
      </contour>
      <contour>
        <pt x="177" y="774" on="0"/>
        <pt x="177" y="862" on="0"/>
        <pt x="229" y="919" on="0"/>
        <pt x="326" y="919" on="0"/>
        <pt x="379" y="861" on="0"/>
        <pt x="379" y="775" on="0"/>
        <pt x="326" y="717" on="0"/>
        <pt x="229" y="717" on="0"/>
      </contour>
      <contour>
        <pt x="228" y="840" on="0"/>
        <pt x="228" y="796" on="0"/>
        <pt x="254" y="768" on="0"/>
        <pt x="301" y="768" on="0"/>
        <pt x="328" y="797" on="0"/>
        <pt x="328" y="839" on="0"/>
        <pt x="301" y="868" on="0"/>
        <pt x="254" y="868" on="0"/>
      </contour>
    </TTGlyph>
    <TTGlyph name="Atilde" xMin="0" yMin="0" xMax="556" yMax="886">
      <contour>
        <pt x="327" y="680" on="1"/>
        <pt x="556" y="0" on="1"/>
        <pt x="473" y="0" on="1"/>
        <pt x="407" y="200" on="1"/>
        <pt x="149" y="200" on="1"/>
        <pt x="83" y="0" on="1"/>
        <pt x="0" y="0" on="1"/>
        <pt x="229" y="680" on="1"/>
      </contour>
      <contour>
        <pt x="278" y="592" on="1"/>
        <pt x="172" y="272" on="1"/>
        <pt x="383" y="272" on="1"/>
      </contour>
      <contour>
        <pt x="345" y="770" on="1"/>
        <pt x="320" y="770" on="0"/>
        <pt x="233" y="800" on="0"/>
        <pt x="213" y="800" on="1"/>
        <pt x="173" y="800" on="0"/>
        <pt x="166" y="756" on="1"/>
        <pt x="119" y="764" on="1"/>
        <pt x="137" y="872" on="0"/>
        <pt x="206" y="872" on="1"/>
        <pt x="232" y="872" on="0"/>
        <pt x="322" y="842" on="0"/>
        <pt x="342" y="842" on="1"/>
        <pt x="382" y="842" on="0"/>
        <pt x="389" y="886" on="1"/>
        <pt x="436" y="878" on="1"/>
        <pt x="417" y="770" on="0"/>
      </contour>
    </TTGlyph>
    <TTGlyph name="B" xMin="90" yMin="0" xMax="534" yMax="680">
      <contour>
        <pt x="90" y="0" on="1"/>
        <pt x="90" y="680" on="1"/>
        <pt x="340" y="680" on="1"/>
        <pt x="408" y="680" on="0"/>
        <pt x="504" y="584" on="0"/>
        <pt x="504" y="516" on="1"/>
        <pt x="504" y="469" on="0"/>
        <pt x="456" y="392" on="0"/>
        <pt x="416" y="371" on="1"/>
        <pt x="470" y="350" on="0"/>
        <pt x="534" y="262" on="0"/>
        <pt x="534" y="203" on="1"/>
        <pt x="534" y="118" on="0"/>
        <pt x="416" y="0" on="0"/>
        <pt x="331" y="0" on="1"/>
      </contour>
      <contour>
        <pt x="329" y="334" on="1"/>
        <pt x="170" y="334" on="1"/>
        <pt x="170" y="72" on="1"/>
        <pt x="329" y="72" on="1"/>
        <pt x="382" y="72" on="0"/>
        <pt x="458" y="150" on="0"/>
        <pt x="458" y="257" on="0"/>
        <pt x="382" y="334" on="0"/>
      </contour>
      <contour>
        <pt x="325" y="608" on="1"/>
        <pt x="170" y="608" on="1"/>
        <pt x="170" y="406" on="1"/>
        <pt x="325" y="406" on="1"/>
        <pt x="368" y="406" on="0"/>
        <pt x="428" y="464" on="0"/>
        <pt x="428" y="550" on="0"/>
        <pt x="368" y="608" on="0"/>
      </contour>
    </TTGlyph>
    <TTGlyph name="C" xMin="50" yMin="-16" xMax="524" yMax="696">
      <contour>
        <pt x="336" y="-16" on="1"/>
        <pt x="193" y="-16" on="0"/>
        <pt x="50" y="182" on="0"/>
        <pt x="50" y="498" on="0"/>
        <pt x="193" y="696" on="0"/>
        <pt x="336" y="696" on="1"/>
        <pt x="430" y="696" on="0"/>
        <pt x="507" y="649" on="1"/>
        <pt x="479" y="582" on="1"/>
        <pt x="413" y="623" on="0"/>
        <pt x="336" y="623" on="1"/>
        <pt x="233" y="623" on="0"/>
        <pt x="130" y="466" on="0"/>
        <pt x="130" y="214" on="0"/>
        <pt x="233" y="57" on="0"/>
        <pt x="336" y="57" on="1"/>
        <pt x="421" y="57" on="0"/>
        <pt x="489" y="99" on="1"/>
        <pt x="524" y="37" on="1"/>
        <pt x="438" y="-16" on="0"/>
      </contour>
    </TTGlyph>
    <TTGlyph name="Ccedilla" xMin="60" yMin="-204" xMax="534" yMax="696">
      <contour>
        <pt x="254" y="-88" on="1"/>
        <pt x="230" y="-88" on="1"/>
        <pt x="248" y="-1" on="1"/>
        <pt x="154" y="31" on="0"/>
        <pt x="60" y="212" on="0"/>
        <pt x="60" y="340" on="1"/>
        <pt x="60" y="498" on="0"/>
        <pt x="203" y="696" on="0"/>
        <pt x="346" y="696" on="1"/>
        <pt x="440" y="696" on="0"/>
        <pt x="517" y="649" on="1"/>
        <pt x="489" y="582" on="1"/>
        <pt x="423" y="623" on="0"/>
        <pt x="346" y="623" on="1"/>
        <pt x="243" y="623" on="0"/>
        <pt x="140" y="466" on="0"/>
        <pt x="140" y="214" on="0"/>
        <pt x="243" y="57" on="0"/>
        <pt x="346" y="57" on="1"/>
        <pt x="431" y="57" on="0"/>
        <pt x="499" y="99" on="1"/>
        <pt x="534" y="37" on="1"/>
        <pt x="448" y="-16" on="0"/>
        <pt x="346" y="-16" on="1"/>
        <pt x="316" y="-16" on="0"/>
        <pt x="295" y="-12" on="1"/>
        <pt x="287" y="-50" on="1"/>
        <pt x="334" y="-50" on="0"/>
        <pt x="372" y="-96" on="0"/>
        <pt x="372" y="-157" on="0"/>
        <pt x="320" y="-204" on="0"/>
        <pt x="268" y="-204" on="1"/>
        <pt x="246" y="-204" on="0"/>
        <pt x="205" y="-190" on="0"/>
        <pt x="196" y="-184" on="1"/>
        <pt x="186" y="-177" on="1"/>
        <pt x="209" y="-136" on="1"/>
        <pt x="233" y="-153" on="0"/>
        <pt x="285" y="-153" on="0"/>
        <pt x="310" y="-133" on="0"/>
        <pt x="310" y="-118" on="1"/>
        <pt x="310" y="-88" on="0"/>
      </contour>
    </TTGlyph>
    <TTGlyph name="D" xMin="90" yMin="0" xMax="621" yMax="680">
      <contour>
        <pt x="90" y="0" on="1"/>
        <pt x="90" y="680" on="1"/>
        <pt x="333" y="680" on="1"/>
        <pt x="477" y="680" on="0"/>
        <pt x="621" y="490" on="0"/>
        <pt x="621" y="190" on="0"/>
        <pt x="477" y="0" on="0"/>
        <pt x="333" y="0" on="1"/>
      </contour>
      <contour>
        <pt x="333" y="608" on="1"/>
        <pt x="170" y="608" on="1"/>
        <pt x="170" y="72" on="1"/>
        <pt x="333" y="72" on="1"/>
        <pt x="437" y="72" on="0"/>
        <pt x="541" y="221" on="0"/>
        <pt x="541" y="459" on="0"/>
        <pt x="437" y="608" on="0"/>
      </contour>
    </TTGlyph>
    <TTGlyph name="Delta" xMin="0" yMin="0" xMax="556" yMax="700">
      <contour>
        <pt x="327" y="700" on="1"/>
        <pt x="556" y="0" on="1"/>
        <pt x="0" y="0" on="1"/>
        <pt x="229" y="700" on="1"/>
      </contour>
      <contour>
        <pt x="278" y="609" on="1"/>
        <pt x="106" y="72" on="1"/>
        <pt x="450" y="72" on="1"/>
      </contour>
    </TTGlyph>
    <TTGlyph name="E" xMin="78" yMin="0" xMax="468" yMax="680">
      <contour>
        <pt x="78" y="0" on="1"/>
        <pt x="78" y="680" on="1"/>
        <pt x="448" y="680" on="1"/>
        <pt x="448" y="608" on="1"/>
        <pt x="158" y="608" on="1"/>
        <pt x="158" y="376" on="1"/>
        <pt x="395" y="376" on="1"/>
        <pt x="395" y="304" on="1"/>
        <pt x="158" y="304" on="1"/>
        <pt x="158" y="72" on="1"/>
        <pt x="468" y="72" on="1"/>
        <pt x="468" y="0" on="1"/>
      </contour>
    </TTGlyph>
    <TTGlyph name="Eacute" xMin="78" yMin="0" xMax="468" yMax="915">
      <contour>
        <pt x="78" y="0" on="1"/>
        <pt x="78" y="680" on="1"/>
        <pt x="448" y="680" on="1"/>
        <pt x="448" y="608" on="1"/>
        <pt x="158" y="608" on="1"/>
        <pt x="158" y="376" on="1"/>
        <pt x="395" y="376" on="1"/>
        <pt x="395" y="304" on="1"/>
        <pt x="158" y="304" on="1"/>
        <pt x="158" y="72" on="1"/>
        <pt x="468" y="72" on="1"/>
        <pt x="468" y="0" on="1"/>
      </contour>
      <contour>
        <pt x="310" y="915" on="1"/>
        <pt x="342" y="915" on="0"/>
        <pt x="360" y="862" on="1"/>
        <pt x="180" y="715" on="1"/>
        <pt x="156" y="740" on="1"/>
        <pt x="258" y="880" on="1"/>
        <pt x="284" y="915" on="0"/>
      </contour>
    </TTGlyph>
    <TTGlyph name="Ecircumflex" xMin="78" yMin="0" xMax="468" yMax="907">
      <contour>
        <pt x="78" y="0" on="1"/>
        <pt x="78" y="680" on="1"/>
        <pt x="448" y="680" on="1"/>
        <pt x="448" y="608" on="1"/>
        <pt x="158" y="608" on="1"/>
        <pt x="158" y="376" on="1"/>
        <pt x="395" y="376" on="1"/>
        <pt x="395" y="304" on="1"/>
        <pt x="158" y="304" on="1"/>
        <pt x="158" y="72" on="1"/>
        <pt x="468" y="72" on="1"/>
        <pt x="468" y="0" on="1"/>
      </contour>
      <contour>
        <pt x="211" y="879" on="1"/>
        <pt x="230" y="907" on="0"/>
        <pt x="279" y="907" on="0"/>
        <pt x="299" y="879" on="1"/>
        <pt x="396" y="742" on="1"/>
        <pt x="372" y="717" on="1"/>
        <pt x="255" y="824" on="1"/>
        <pt x="138" y="717" on="1"/>
        <pt x="114" y="742" on="1"/>
      </contour>
    </TTGlyph>
    <TTGlyph name="Edieresis" xMin="78" yMin="0" xMax="468" yMax="872">
      <contour>
        <pt x="78" y="0" on="1"/>
        <pt x="78" y="680" on="1"/>
        <pt x="448" y="680" on="1"/>
        <pt x="448" y="608" on="1"/>
        <pt x="158" y="608" on="1"/>
        <pt x="158" y="376" on="1"/>
        <pt x="395" y="376" on="1"/>
        <pt x="395" y="304" on="1"/>
        <pt x="158" y="304" on="1"/>
        <pt x="158" y="72" on="1"/>
        <pt x="468" y="72" on="1"/>
        <pt x="468" y="0" on="1"/>
      </contour>
      <contour>
        <pt x="296" y="803" on="0"/>
        <pt x="296" y="845" on="0"/>
        <pt x="320" y="872" on="0"/>
        <pt x="366" y="872" on="0"/>
        <pt x="392" y="844" on="0"/>
        <pt x="392" y="804" on="0"/>
        <pt x="366" y="776" on="0"/>
        <pt x="320" y="776" on="0"/>
      </contour>
      <contour>
        <pt x="118" y="803" on="0"/>
        <pt x="118" y="845" on="0"/>
        <pt x="142" y="872" on="0"/>
        <pt x="188" y="872" on="0"/>
        <pt x="214" y="844" on="0"/>
        <pt x="214" y="804" on="0"/>
        <pt x="188" y="776" on="0"/>
        <pt x="142" y="776" on="0"/>
      </contour>
    </TTGlyph>
    <TTGlyph name="Egrave" xMin="78" yMin="0" xMax="468" yMax="915">
      <contour>
        <pt x="78" y="0" on="1"/>
        <pt x="78" y="680" on="1"/>
        <pt x="448" y="680" on="1"/>
        <pt x="448" y="608" on="1"/>
        <pt x="158" y="608" on="1"/>
        <pt x="158" y="376" on="1"/>
        <pt x="395" y="376" on="1"/>
        <pt x="395" y="304" on="1"/>
        <pt x="158" y="304" on="1"/>
        <pt x="158" y="72" on="1"/>
        <pt x="468" y="72" on="1"/>
        <pt x="468" y="0" on="1"/>
      </contour>
      <contour>
        <pt x="200" y="915" on="1"/>
        <pt x="226" y="915" on="0"/>
        <pt x="252" y="880" on="1"/>
        <pt x="354" y="740" on="1"/>
        <pt x="330" y="715" on="1"/>
        <pt x="150" y="862" on="1"/>
        <pt x="168" y="915" on="0"/>
      </contour>
    </TTGlyph>
    <TTGlyph name="Eth" xMin="23" yMin="0" xMax="621" yMax="680">
      <contour>
        <pt x="90" y="0" on="1"/>
        <pt x="90" y="304" on="1"/>
        <pt x="23" y="304" on="1"/>
        <pt x="23" y="376" on="1"/>
        <pt x="90" y="376" on="1"/>
        <pt x="90" y="680" on="1"/>
        <pt x="333" y="680" on="1"/>
        <pt x="477" y="680" on="0"/>
        <pt x="621" y="490" on="0"/>
        <pt x="621" y="190" on="0"/>
        <pt x="477" y="0" on="0"/>
        <pt x="333" y="0" on="1"/>
      </contour>
      <contour>
        <pt x="373" y="304" on="1"/>
        <pt x="170" y="304" on="1"/>
        <pt x="170" y="72" on="1"/>
        <pt x="333" y="72" on="1"/>
        <pt x="437" y="72" on="0"/>
        <pt x="541" y="221" on="0"/>
        <pt x="541" y="459" on="0"/>
        <pt x="437" y="608" on="0"/>
        <pt x="333" y="608" on="1"/>
        <pt x="170" y="608" on="1"/>
        <pt x="170" y="376" on="1"/>
        <pt x="373" y="376" on="1"/>
      </contour>
    </TTGlyph>
    <TTGlyph name="Euro" xMin="24" yMin="-16" xMax="507" yMax="636">
      <contour>
        <pt x="24" y="319" on="1"/>
        <pt x="24" y="379" on="1"/>
        <pt x="97" y="379" on="1"/>
        <pt x="115" y="496" on="0"/>
        <pt x="239" y="636" on="0"/>
        <pt x="441" y="636" on="0"/>
        <pt x="507" y="589" on="1"/>
        <pt x="473" y="533" on="1"/>
        <pt x="454" y="549" on="0"/>
        <pt x="379" y="571" on="0"/>
        <pt x="345" y="571" on="1"/>
        <pt x="274" y="571" on="0"/>
        <pt x="189" y="466" on="0"/>
        <pt x="176" y="379" on="1"/>
        <pt x="367" y="379" on="1"/>
        <pt x="367" y="319" on="1"/>
        <pt x="170" y="319" on="1"/>
        <pt x="170" y="274" on="1"/>
        <pt x="367" y="274" on="1"/>
        <pt x="367" y="214" on="1"/>
        <pt x="176" y="214" on="1"/>
        <pt x="202" y="55" on="0"/>
        <pt x="327" y="55" on="1"/>
        <pt x="367" y="55" on="0"/>
        <pt x="438" y="71" on="0"/>
        <pt x="453" y="79" on="1"/>
        <pt x="468" y="87" on="1"/>
        <pt x="499" y="27" on="1"/>
        <pt x="431" y="-16" on="0"/>
        <pt x="224" y="-16" on="0"/>
        <pt x="109" y="108" on="0"/>
        <pt x="95" y="214" on="1"/>
        <pt x="24" y="214" on="1"/>
        <pt x="24" y="274" on="1"/>
        <pt x="91" y="274" on="1"/>
        <pt x="91" y="286" on="1"/>
        <pt x="91" y="308" on="0"/>
        <pt x="92" y="319" on="1"/>
      </contour>
    </TTGlyph>
    <TTGlyph name="F" xMin="90" yMin="0" xMax="450" yMax="680">
      <contour>
        <pt x="90" y="0" on="1"/>
        <pt x="90" y="680" on="1"/>
        <pt x="450" y="680" on="1"/>
        <pt x="450" y="608" on="1"/>
        <pt x="170" y="608" on="1"/>
        <pt x="170" y="376" on="1"/>
        <pt x="397" y="376" on="1"/>
        <pt x="397" y="304" on="1"/>
        <pt x="170" y="304" on="1"/>
        <pt x="170" y="0" on="1"/>
      </contour>
    </TTGlyph>
    <TTGlyph name="G" xMin="50" yMin="-16" xMax="570" yMax="696">
      <contour>
        <pt x="339" y="-16" on="1"/>
        <pt x="241" y="-16" on="0"/>
        <pt x="108" y="82" on="0"/>
        <pt x="50" y="238" on="0"/>
        <pt x="50" y="442" on="0"/>
        <pt x="108" y="598" on="0"/>
        <pt x="241" y="696" on="0"/>
        <pt x="458" y="696" on="0"/>
        <pt x="542" y="650" on="1"/>
        <pt x="514" y="582" on="1"/>
        <pt x="434" y="623" on="0"/>
        <pt x="233" y="623" on="0"/>
        <pt x="130" y="466" on="0"/>
        <pt x="130" y="213" on="0"/>
        <pt x="232" y="57" on="0"/>
        <pt x="431" y="57" on="0"/>
        <pt x="494" y="92" on="1"/>
        <pt x="494" y="304" on="1"/>
        <pt x="341" y="304" on="1"/>
        <pt x="341" y="376" on="1"/>
        <pt x="570" y="376" on="1"/>
        <pt x="570" y="53" on="1"/>
        <pt x="460" y="-16" on="0"/>
      </contour>
    </TTGlyph>
    <TTGlyph name="H" xMin="90" yMin="0" xMax="574" yMax="680">
      <contour>
        <pt x="90" y="0" on="1"/>
        <pt x="90" y="680" on="1"/>
        <pt x="170" y="680" on="1"/>
        <pt x="170" y="377" on="1"/>
        <pt x="494" y="377" on="1"/>
        <pt x="494" y="680" on="1"/>
        <pt x="574" y="680" on="1"/>
        <pt x="574" y="0" on="1"/>
        <pt x="494" y="0" on="1"/>
        <pt x="494" y="303" on="1"/>
        <pt x="170" y="303" on="1"/>
        <pt x="170" y="0" on="1"/>
      </contour>
    </TTGlyph>
    <TTGlyph name="I" xMin="90" yMin="0" xMax="170" yMax="680">
      <contour>
        <pt x="90" y="0" on="1"/>
        <pt x="90" y="680" on="1"/>
        <pt x="170" y="680" on="1"/>
        <pt x="170" y="0" on="1"/>
      </contour>
    </TTGlyph>
    <TTGlyph name="Iacute" xMin="31" yMin="0" xMax="235" yMax="915">
      <contour>
        <pt x="90" y="0" on="1"/>
        <pt x="90" y="680" on="1"/>
        <pt x="170" y="680" on="1"/>
        <pt x="170" y="0" on="1"/>
      </contour>
      <contour>
        <pt x="185" y="915" on="1"/>
        <pt x="217" y="915" on="0"/>
        <pt x="235" y="862" on="1"/>
        <pt x="55" y="715" on="1"/>
        <pt x="31" y="740" on="1"/>
        <pt x="133" y="880" on="1"/>
        <pt x="159" y="915" on="0"/>
      </contour>
    </TTGlyph>
    <TTGlyph name="Icircumflex" xMin="-11" yMin="0" xMax="271" yMax="907">
      <contour>
        <pt x="90" y="0" on="1"/>
        <pt x="90" y="680" on="1"/>
        <pt x="170" y="680" on="1"/>
        <pt x="170" y="0" on="1"/>
      </contour>
      <contour>
        <pt x="86" y="879" on="1"/>
        <pt x="105" y="907" on="0"/>
        <pt x="154" y="907" on="0"/>
        <pt x="174" y="879" on="1"/>
        <pt x="271" y="742" on="1"/>
        <pt x="247" y="717" on="1"/>
        <pt x="130" y="824" on="1"/>
        <pt x="13" y="717" on="1"/>
        <pt x="-11" y="742" on="1"/>
      </contour>
    </TTGlyph>
    <TTGlyph name="Idieresis" xMin="-7" yMin="0" xMax="267" yMax="872">
      <contour>
        <pt x="90" y="0" on="1"/>
        <pt x="90" y="680" on="1"/>
        <pt x="170" y="680" on="1"/>
        <pt x="170" y="0" on="1"/>
      </contour>
      <contour>
        <pt x="171" y="803" on="0"/>
        <pt x="171" y="845" on="0"/>
        <pt x="195" y="872" on="0"/>
        <pt x="241" y="872" on="0"/>
        <pt x="267" y="844" on="0"/>
        <pt x="267" y="804" on="0"/>
        <pt x="241" y="776" on="0"/>
        <pt x="195" y="776" on="0"/>
      </contour>
      <contour>
        <pt x="-7" y="803" on="0"/>
        <pt x="-7" y="845" on="0"/>
        <pt x="17" y="872" on="0"/>
        <pt x="63" y="872" on="0"/>
        <pt x="89" y="844" on="0"/>
        <pt x="89" y="804" on="0"/>
        <pt x="63" y="776" on="0"/>
        <pt x="17" y="776" on="0"/>
      </contour>
    </TTGlyph>
    <TTGlyph name="Igrave" xMin="25" yMin="0" xMax="229" yMax="915">
      <contour>
        <pt x="90" y="0" on="1"/>
        <pt x="90" y="680" on="1"/>
        <pt x="170" y="680" on="1"/>
        <pt x="170" y="0" on="1"/>
      </contour>
      <contour>
        <pt x="75" y="915" on="1"/>
        <pt x="101" y="915" on="0"/>
        <pt x="127" y="880" on="1"/>
        <pt x="229" y="740" on="1"/>
        <pt x="205" y="715" on="1"/>
        <pt x="25" y="862" on="1"/>
        <pt x="43" y="915" on="0"/>
      </contour>
    </TTGlyph>
    <TTGlyph name="J" xMin="0" yMin="-16" xMax="352" yMax="680">
      <contour>
        <pt x="171" y="56" on="1"/>
        <pt x="272" y="56" on="0"/>
        <pt x="272" y="192" on="1"/>
        <pt x="272" y="680" on="1"/>
        <pt x="352" y="680" on="1"/>
        <pt x="352" y="192" on="1"/>
        <pt x="352" y="93" on="0"/>
        <pt x="257" y="-16" on="0"/>
        <pt x="182" y="-16" on="1"/>
        <pt x="73" y="-16" on="0"/>
        <pt x="0" y="57" on="1"/>
        <pt x="44" y="113" on="1"/>
        <pt x="104" y="56" on="0"/>
      </contour>
    </TTGlyph>
    <TTGlyph name="K" xMin="90" yMin="-16" xMax="536" yMax="680">
      <contour>
        <pt x="90" y="0" on="1"/>
        <pt x="90" y="680" on="1"/>
        <pt x="170" y="680" on="1"/>
        <pt x="170" y="361" on="1"/>
        <pt x="234" y="361" on="1"/>
        <pt x="437" y="680" on="1"/>
        <pt x="526" y="680" on="1"/>
        <pt x="322" y="360" on="1"/>
        <pt x="372" y="356" on="0"/>
        <pt x="422" y="306" on="0"/>
        <pt x="441" y="260" on="1"/>
        <pt x="536" y="8" on="1"/>
        <pt x="460" y="-16" on="1"/>
        <pt x="361" y="246" on="1"/>
        <pt x="349" y="282" on="0"/>
        <pt x="330" y="288" on="1"/>
        <pt x="321" y="291" on="0"/>
        <pt x="308" y="291" on="1"/>
        <pt x="170" y="291" on="1"/>
        <pt x="170" y="0" on="1"/>
      </contour>
    </TTGlyph>
    <TTGlyph name="L" xMin="90" yMin="0" xMax="447" yMax="680">
      <contour>
        <pt x="170" y="72" on="1"/>
        <pt x="447" y="72" on="1"/>
        <pt x="447" y="0" on="1"/>
        <pt x="90" y="0" on="1"/>
        <pt x="90" y="680" on="1"/>
        <pt x="170" y="680" on="1"/>
      </contour>
    </TTGlyph>
    <TTGlyph name="Lslash" xMin="-16" yMin="0" xMax="447" yMax="680">
      <contour>
        <pt x="170" y="72" on="1"/>
        <pt x="447" y="72" on="1"/>
        <pt x="447" y="0" on="1"/>
        <pt x="90" y="0" on="1"/>
        <pt x="90" y="286" on="1"/>
        <pt x="17" y="234" on="1"/>
        <pt x="-16" y="278" on="1"/>
        <pt x="90" y="354" on="1"/>
        <pt x="90" y="680" on="1"/>
        <pt x="170" y="680" on="1"/>
        <pt x="170" y="411" on="1"/>
        <pt x="272" y="485" on="1"/>
        <pt x="304" y="441" on="1"/>
        <pt x="170" y="344" on="1"/>
      </contour>
    </TTGlyph>
    <TTGlyph name="M" xMin="80" yMin="0" xMax="735" yMax="680">
      <contour>
        <pt x="80" y="0" on="1"/>
        <pt x="105" y="680" on="1"/>
        <pt x="198" y="680" on="1"/>
        <pt x="407" y="201" on="1"/>
        <pt x="617" y="680" on="1"/>
        <pt x="710" y="680" on="1"/>
        <pt x="735" y="0" on="1"/>
        <pt x="655" y="0" on="1"/>
        <pt x="635" y="532" on="1"/>
        <pt x="449" y="106" on="1"/>
        <pt x="366" y="106" on="1"/>
        <pt x="179" y="532" on="1"/>
        <pt x="160" y="0" on="1"/>
      </contour>
    </TTGlyph>
    <TTGlyph name="N" xMin="90" yMin="0" xMax="590" yMax="680">
      <contour>
        <pt x="90" y="0" on="1"/>
        <pt x="90" y="680" on="1"/>
        <pt x="183" y="680" on="1"/>
        <pt x="510" y="127" on="1"/>
        <pt x="510" y="680" on="1"/>
        <pt x="590" y="680" on="1"/>
        <pt x="590" y="0" on="1"/>
        <pt x="497" y="0" on="1"/>
        <pt x="170" y="553" on="1"/>
        <pt x="170" y="0" on="1"/>
      </contour>
    </TTGlyph>
    <TTGlyph name="Ntilde" xMin="90" yMin="0" xMax="590" yMax="886">
      <contour>
        <pt x="90" y="0" on="1"/>
        <pt x="90" y="680" on="1"/>
        <pt x="183" y="680" on="1"/>
        <pt x="510" y="127" on="1"/>
        <pt x="510" y="680" on="1"/>
        <pt x="590" y="680" on="1"/>
        <pt x="590" y="0" on="1"/>
        <pt x="497" y="0" on="1"/>
        <pt x="170" y="553" on="1"/>
        <pt x="170" y="0" on="1"/>
      </contour>
      <contour>
        <pt x="407" y="770" on="1"/>
        <pt x="382" y="770" on="0"/>
        <pt x="294" y="800" on="0"/>
        <pt x="275" y="800" on="1"/>
        <pt x="235" y="800" on="0"/>
        <pt x="228" y="756" on="1"/>
        <pt x="181" y="764" on="1"/>
        <pt x="199" y="872" on="0"/>
        <pt x="268" y="872" on="1"/>
        <pt x="294" y="872" on="0"/>
        <pt x="384" y="842" on="0"/>
        <pt x="404" y="842" on="1"/>
        <pt x="444" y="842" on="0"/>
        <pt x="451" y="886" on="1"/>
        <pt x="498" y="878" on="1"/>
        <pt x="479" y="770" on="0"/>
      </contour>
    </TTGlyph>
    <TTGlyph name="O" xMin="50" yMin="-16" xMax="624" yMax="696">
      <contour>
        <pt x="50" y="182" on="0"/>
        <pt x="50" y="498" on="0"/>
        <pt x="193" y="696" on="0"/>
        <pt x="336" y="696" on="1"/>
        <pt x="433" y="696" on="0"/>
        <pt x="566" y="598" on="0"/>
        <pt x="624" y="442" on="0"/>
        <pt x="624" y="238" on="0"/>
        <pt x="566" y="82" on="0"/>
        <pt x="433" y="-16" on="0"/>
        <pt x="336" y="-16" on="1"/>
        <pt x="193" y="-16" on="0"/>
      </contour>
      <contour>
        <pt x="130" y="466" on="0"/>
        <pt x="130" y="214" on="0"/>
        <pt x="233" y="57" on="0"/>
        <pt x="440" y="57" on="0"/>
        <pt x="544" y="215" on="0"/>
        <pt x="544" y="465" on="0"/>
        <pt x="440" y="623" on="0"/>
        <pt x="233" y="623" on="0"/>
      </contour>
    </TTGlyph>
    <TTGlyph name="OE" xMin="50" yMin="0" xMax="773" yMax="680">
      <contour>
        <pt x="336" y="0" on="1"/>
        <pt x="193" y="0" on="0"/>
        <pt x="50" y="189" on="0"/>
        <pt x="50" y="491" on="0"/>
        <pt x="193" y="680" on="0"/>
        <pt x="336" y="680" on="1"/>
        <pt x="753" y="680" on="1"/>
        <pt x="753" y="608" on="1"/>
        <pt x="463" y="608" on="1"/>
        <pt x="463" y="376" on="1"/>
        <pt x="700" y="376" on="1"/>
        <pt x="700" y="304" on="1"/>
        <pt x="463" y="304" on="1"/>
        <pt x="463" y="72" on="1"/>
        <pt x="773" y="72" on="1"/>
        <pt x="773" y="0" on="1"/>
      </contour>
      <contour>
        <pt x="130" y="459" on="0"/>
        <pt x="130" y="221" on="0"/>
        <pt x="233" y="72" on="0"/>
        <pt x="336" y="72" on="1"/>
        <pt x="383" y="72" on="1"/>
        <pt x="383" y="608" on="1"/>
        <pt x="336" y="608" on="1"/>
        <pt x="233" y="608" on="0"/>
      </contour>
    </TTGlyph>
    <TTGlyph name="Oacute" xMin="50" yMin="-16" xMax="624" yMax="915">
      <contour>
        <pt x="50" y="182" on="0"/>
        <pt x="50" y="498" on="0"/>
        <pt x="193" y="696" on="0"/>
        <pt x="336" y="696" on="1"/>
        <pt x="433" y="696" on="0"/>
        <pt x="566" y="598" on="0"/>
        <pt x="624" y="442" on="0"/>
        <pt x="624" y="238" on="0"/>
        <pt x="566" y="82" on="0"/>
        <pt x="433" y="-16" on="0"/>
        <pt x="336" y="-16" on="1"/>
        <pt x="193" y="-16" on="0"/>
      </contour>
      <contour>
        <pt x="130" y="466" on="0"/>
        <pt x="130" y="214" on="0"/>
        <pt x="233" y="57" on="0"/>
        <pt x="440" y="57" on="0"/>
        <pt x="544" y="215" on="0"/>
        <pt x="544" y="465" on="0"/>
        <pt x="440" y="623" on="0"/>
        <pt x="233" y="623" on="0"/>
      </contour>
      <contour>
        <pt x="392" y="915" on="1"/>
        <pt x="424" y="915" on="0"/>
        <pt x="442" y="862" on="1"/>
        <pt x="262" y="715" on="1"/>
        <pt x="238" y="740" on="1"/>
        <pt x="340" y="880" on="1"/>
        <pt x="366" y="915" on="0"/>
      </contour>
    </TTGlyph>
    <TTGlyph name="Ocircumflex" xMin="50" yMin="-16" xMax="624" yMax="907">
      <contour>
        <pt x="50" y="182" on="0"/>
        <pt x="50" y="498" on="0"/>
        <pt x="193" y="696" on="0"/>
        <pt x="336" y="696" on="1"/>
        <pt x="433" y="696" on="0"/>
        <pt x="566" y="598" on="0"/>
        <pt x="624" y="442" on="0"/>
        <pt x="624" y="238" on="0"/>
        <pt x="566" y="82" on="0"/>
        <pt x="433" y="-16" on="0"/>
        <pt x="336" y="-16" on="1"/>
        <pt x="193" y="-16" on="0"/>
      </contour>
      <contour>
        <pt x="130" y="466" on="0"/>
        <pt x="130" y="214" on="0"/>
        <pt x="233" y="57" on="0"/>
        <pt x="440" y="57" on="0"/>
        <pt x="544" y="215" on="0"/>
        <pt x="544" y="465" on="0"/>
        <pt x="440" y="623" on="0"/>
        <pt x="233" y="623" on="0"/>
      </contour>
      <contour>
        <pt x="293" y="879" on="1"/>
        <pt x="312" y="907" on="0"/>
        <pt x="361" y="907" on="0"/>
        <pt x="381" y="879" on="1"/>
        <pt x="478" y="742" on="1"/>
        <pt x="454" y="717" on="1"/>
        <pt x="337" y="824" on="1"/>
        <pt x="220" y="717" on="1"/>
        <pt x="196" y="742" on="1"/>
      </contour>
    </TTGlyph>
    <TTGlyph name="Odieresis" xMin="50" yMin="-16" xMax="624" yMax="872">
      <contour>
        <pt x="50" y="182" on="0"/>
        <pt x="50" y="498" on="0"/>
        <pt x="193" y="696" on="0"/>
        <pt x="336" y="696" on="1"/>
        <pt x="433" y="696" on="0"/>
        <pt x="566" y="598" on="0"/>
        <pt x="624" y="442" on="0"/>
        <pt x="624" y="238" on="0"/>
        <pt x="566" y="82" on="0"/>
        <pt x="433" y="-16" on="0"/>
        <pt x="336" y="-16" on="1"/>
        <pt x="193" y="-16" on="0"/>
      </contour>
      <contour>
        <pt x="130" y="466" on="0"/>
        <pt x="130" y="214" on="0"/>
        <pt x="233" y="57" on="0"/>
        <pt x="440" y="57" on="0"/>
        <pt x="544" y="215" on="0"/>
        <pt x="544" y="465" on="0"/>
        <pt x="440" y="623" on="0"/>
        <pt x="233" y="623" on="0"/>
      </contour>
      <contour>
        <pt x="378" y="803" on="0"/>
        <pt x="378" y="845" on="0"/>
        <pt x="402" y="872" on="0"/>
        <pt x="448" y="872" on="0"/>
        <pt x="474" y="844" on="0"/>
        <pt x="474" y="804" on="0"/>
        <pt x="448" y="776" on="0"/>
        <pt x="402" y="776" on="0"/>
      </contour>
      <contour>
        <pt x="200" y="803" on="0"/>
        <pt x="200" y="845" on="0"/>
        <pt x="224" y="872" on="0"/>
        <pt x="270" y="872" on="0"/>
        <pt x="296" y="844" on="0"/>
        <pt x="296" y="804" on="0"/>
        <pt x="270" y="776" on="0"/>
        <pt x="224" y="776" on="0"/>
      </contour>
    </TTGlyph>
    <TTGlyph name="Ograve" xMin="50" yMin="-16" xMax="624" yMax="915">
      <contour>
        <pt x="50" y="182" on="0"/>
        <pt x="50" y="498" on="0"/>
        <pt x="193" y="696" on="0"/>
        <pt x="336" y="696" on="1"/>
        <pt x="433" y="696" on="0"/>
        <pt x="566" y="598" on="0"/>
        <pt x="624" y="442" on="0"/>
        <pt x="624" y="238" on="0"/>
        <pt x="566" y="82" on="0"/>
        <pt x="433" y="-16" on="0"/>
        <pt x="336" y="-16" on="1"/>
        <pt x="193" y="-16" on="0"/>
      </contour>
      <contour>
        <pt x="130" y="466" on="0"/>
        <pt x="130" y="214" on="0"/>
        <pt x="233" y="57" on="0"/>
        <pt x="440" y="57" on="0"/>
        <pt x="544" y="215" on="0"/>
        <pt x="544" y="465" on="0"/>
        <pt x="440" y="623" on="0"/>
        <pt x="233" y="623" on="0"/>
      </contour>
      <contour>
        <pt x="282" y="915" on="1"/>
        <pt x="308" y="915" on="0"/>
        <pt x="334" y="880" on="1"/>
        <pt x="436" y="740" on="1"/>
        <pt x="412" y="715" on="1"/>
        <pt x="232" y="862" on="1"/>
        <pt x="250" y="915" on="0"/>
      </contour>
    </TTGlyph>
    <TTGlyph name="Omega" xMin="90" yMin="0" xMax="712" yMax="696">
      <contour>
        <pt x="712" y="398" on="1"/>
        <pt x="712" y="251" on="0"/>
        <pt x="586" y="164" on="1"/>
        <pt x="586" y="72" on="1"/>
        <pt x="710" y="72" on="1"/>
        <pt x="710" y="0" on="1"/>
        <pt x="512" y="0" on="1"/>
        <pt x="512" y="186" on="1"/>
        <pt x="568" y="213" on="0"/>
        <pt x="632" y="329" on="0"/>
        <pt x="632" y="398" on="1"/>
        <pt x="632" y="497" on="0"/>
        <pt x="517" y="623" on="0"/>
        <pt x="291" y="623" on="0"/>
        <pt x="178" y="498" on="0"/>
        <pt x="178" y="398" on="1"/>
        <pt x="178" y="329" on="0"/>
        <pt x="242" y="213" on="0"/>
        <pt x="298" y="186" on="1"/>
        <pt x="298" y="0" on="1"/>
        <pt x="90" y="0" on="1"/>
        <pt x="90" y="72" on="1"/>
        <pt x="224" y="72" on="1"/>
        <pt x="224" y="164" on="1"/>
        <pt x="98" y="251" on="0"/>
        <pt x="98" y="398" on="1"/>
        <pt x="98" y="530" on="0"/>
        <pt x="251" y="696" on="0"/>
        <pt x="558" y="696" on="0"/>
        <pt x="712" y="530" on="0"/>
      </contour>
    </TTGlyph>
    <TTGlyph name="Oslash" xMin="50" yMin="-92" xMax="624" yMax="772">
      <contour>
        <pt x="50" y="340" on="1"/>
        <pt x="50" y="498" on="0"/>
        <pt x="193" y="696" on="0"/>
        <pt x="336" y="696" on="1"/>
        <pt x="379" y="696" on="0"/>
        <pt x="420" y="685" on="1"/>
        <pt x="450" y="772" on="1"/>
        <pt x="523" y="772" on="1"/>
        <pt x="483" y="658" on="1"/>
        <pt x="553" y="616" on="0"/>
        <pt x="624" y="448" on="0"/>
        <pt x="624" y="238" on="0"/>
        <pt x="566" y="82" on="0"/>
        <pt x="433" y="-16" on="0"/>
        <pt x="336" y="-16" on="1"/>
        <pt x="292" y="-16" on="0"/>
        <pt x="253" y="-5" on="1"/>
        <pt x="223" y="-92" on="1"/>
        <pt x="151" y="-92" on="1"/>
        <pt x="190" y="21" on="1"/>
        <pt x="120" y="63" on="0"/>
        <pt x="50" y="231" on="0"/>
      </contour>
      <contour>
        <pt x="544" y="340" on="1"/>
        <pt x="544" y="511" on="0"/>
        <pt x="457" y="582" on="1"/>
        <pt x="277" y="65" on="1"/>
        <pt x="306" y="57" on="0"/>
        <pt x="336" y="57" on="1"/>
        <pt x="440" y="57" on="0"/>
        <pt x="544" y="215" on="0"/>
      </contour>
      <contour>
        <pt x="130" y="340" on="1"/>
        <pt x="130" y="167" on="0"/>
        <pt x="216" y="97" on="1"/>
        <pt x="395" y="615" on="1"/>
        <pt x="366" y="623" on="0"/>
        <pt x="336" y="623" on="1"/>
        <pt x="233" y="623" on="0"/>
        <pt x="130" y="466" on="0"/>
      </contour>
    </TTGlyph>
    <TTGlyph name="Otilde" xMin="50" yMin="-16" xMax="624" yMax="886">
      <contour>
        <pt x="50" y="182" on="0"/>
        <pt x="50" y="498" on="0"/>
        <pt x="193" y="696" on="0"/>
        <pt x="336" y="696" on="1"/>
        <pt x="433" y="696" on="0"/>
        <pt x="566" y="598" on="0"/>
        <pt x="624" y="442" on="0"/>
        <pt x="624" y="238" on="0"/>
        <pt x="566" y="82" on="0"/>
        <pt x="433" y="-16" on="0"/>
        <pt x="336" y="-16" on="1"/>
        <pt x="193" y="-16" on="0"/>
      </contour>
      <contour>
        <pt x="130" y="466" on="0"/>
        <pt x="130" y="214" on="0"/>
        <pt x="233" y="57" on="0"/>
        <pt x="440" y="57" on="0"/>
        <pt x="544" y="215" on="0"/>
        <pt x="544" y="465" on="0"/>
        <pt x="440" y="623" on="0"/>
        <pt x="233" y="623" on="0"/>
      </contour>
      <contour>
        <pt x="404" y="770" on="1"/>
        <pt x="378" y="770" on="0"/>
        <pt x="292" y="800" on="0"/>
        <pt x="272" y="800" on="1"/>
        <pt x="232" y="800" on="0"/>
        <pt x="225" y="756" on="1"/>
        <pt x="178" y="764" on="1"/>
        <pt x="196" y="872" on="0"/>
        <pt x="265" y="872" on="1"/>
        <pt x="290" y="872" on="0"/>
        <pt x="382" y="842" on="0"/>
        <pt x="401" y="842" on="1"/>
        <pt x="441" y="842" on="0"/>
        <pt x="448" y="886" on="1"/>
        <pt x="495" y="878" on="1"/>
        <pt x="476" y="770" on="0"/>
      </contour>
    </TTGlyph>
    <TTGlyph name="P" xMin="90" yMin="0" xMax="504" yMax="680">
      <contour>
        <pt x="90" y="0" on="1"/>
        <pt x="90" y="680" on="1"/>
        <pt x="301" y="680" on="1"/>
        <pt x="386" y="680" on="0"/>
        <pt x="504" y="562" on="0"/>
        <pt x="504" y="392" on="0"/>
        <pt x="386" y="274" on="0"/>
        <pt x="301" y="274" on="1"/>
        <pt x="170" y="274" on="1"/>
        <pt x="170" y="0" on="1"/>
      </contour>
      <contour>
        <pt x="298" y="607" on="1"/>
        <pt x="170" y="607" on="1"/>
        <pt x="170" y="347" on="1"/>
        <pt x="298" y="347" on="1"/>
        <pt x="350" y="347" on="0"/>
        <pt x="425" y="424" on="0"/>
        <pt x="425" y="530" on="0"/>
        <pt x="350" y="607" on="0"/>
      </contour>
    </TTGlyph>
    <TTGlyph name="Q" xMin="50" yMin="-183" xMax="624" yMax="696">
      <contour>
        <pt x="546" y="-143" on="1"/>
        <pt x="484" y="-183" on="0"/>
        <pt x="369" y="-183" on="0"/>
        <pt x="298" y="-105" on="0"/>
        <pt x="298" y="-20" on="1"/>
        <pt x="298" y="-14" on="1"/>
        <pt x="173" y="0" on="0"/>
        <pt x="50" y="193" on="0"/>
        <pt x="50" y="498" on="0"/>
        <pt x="193" y="696" on="0"/>
        <pt x="336" y="696" on="1"/>
        <pt x="433" y="696" on="0"/>
        <pt x="500" y="647" on="1"/>
        <pt x="624" y="555" on="0"/>
        <pt x="624" y="340" on="1"/>
        <pt x="624" y="194" on="0"/>
        <pt x="499" y="0" on="0"/>
        <pt x="374" y="-14" on="1"/>
        <pt x="374" y="-24" on="1"/>
        <pt x="374" y="-112" on="0"/>
        <pt x="435" y="-112" on="1"/>
        <pt x="464" y="-112" on="0"/>
        <pt x="516" y="-89" on="1"/>
      </contour>
      <contour>
        <pt x="130" y="466" on="0"/>
        <pt x="130" y="214" on="0"/>
        <pt x="233" y="57" on="0"/>
        <pt x="440" y="57" on="0"/>
        <pt x="544" y="215" on="0"/>
        <pt x="544" y="465" on="0"/>
        <pt x="440" y="623" on="0"/>
        <pt x="233" y="623" on="0"/>
      </contour>
    </TTGlyph>
    <TTGlyph name="R" xMin="90" yMin="-16" xMax="545" yMax="680">
      <contour>
        <pt x="90" y="0" on="1"/>
        <pt x="90" y="680" on="1"/>
        <pt x="323" y="680" on="1"/>
        <pt x="404" y="680" on="0"/>
        <pt x="518" y="567" on="0"/>
        <pt x="518" y="485" on="1"/>
        <pt x="518" y="427" on="0"/>
        <pt x="457" y="333" on="0"/>
        <pt x="406" y="309" on="1"/>
        <pt x="436" y="296" on="0"/>
        <pt x="450" y="260" on="1"/>
        <pt x="545" y="8" on="1"/>
        <pt x="469" y="-16" on="1"/>
        <pt x="370" y="246" on="1"/>
        <pt x="356" y="282" on="0"/>
        <pt x="342" y="287" on="1"/>
        <pt x="334" y="290" on="0"/>
        <pt x="322" y="291" on="1"/>
        <pt x="170" y="291" on="1"/>
        <pt x="170" y="0" on="1"/>
      </contour>
      <contour>
        <pt x="319" y="607" on="1"/>
        <pt x="170" y="607" on="1"/>
        <pt x="170" y="361" on="1"/>
        <pt x="319" y="361" on="1"/>
        <pt x="368" y="361" on="0"/>
        <pt x="438" y="435" on="0"/>
        <pt x="438" y="535" on="0"/>
        <pt x="368" y="607" on="0"/>
      </contour>
    </TTGlyph>
    <TTGlyph name="S" xMin="30" yMin="-16" xMax="481" yMax="696">
      <contour>
        <pt x="106" y="103" on="0"/>
        <pt x="203" y="59" on="0"/>
        <pt x="318" y="59" on="0"/>
        <pt x="401" y="119" on="0"/>
        <pt x="401" y="228" on="0"/>
        <pt x="330" y="290" on="0"/>
        <pt x="229" y="322" on="0"/>
        <pt x="128" y="358" on="0"/>
        <pt x="57" y="441" on="0"/>
        <pt x="57" y="509" on="1"/>
        <pt x="57" y="602" on="0"/>
        <pt x="178" y="696" on="0"/>
        <pt x="260" y="696" on="1"/>
        <pt x="373" y="696" on="0"/>
        <pt x="447" y="649" on="1"/>
        <pt x="407" y="585" on="1"/>
        <pt x="350" y="621" on="0"/>
        <pt x="259" y="621" on="1"/>
        <pt x="211" y="621" on="0"/>
        <pt x="137" y="567" on="0"/>
        <pt x="137" y="514" on="1"/>
        <pt x="137" y="447" on="0"/>
        <pt x="206" y="416" on="1"/>
        <pt x="236" y="402" on="0"/>
        <pt x="309" y="380" on="0"/>
        <pt x="382" y="350" on="0"/>
        <pt x="412" y="329" on="1"/>
        <pt x="481" y="282" on="0"/>
        <pt x="481" y="83" on="0"/>
        <pt x="354" y="-16" on="0"/>
        <pt x="257" y="-16" on="1"/>
        <pt x="128" y="-16" on="0"/>
        <pt x="30" y="76" on="1"/>
        <pt x="76" y="136" on="1"/>
      </contour>
    </TTGlyph>
    <TTGlyph name="Scaron" xMin="30" yMin="-16" xMax="481" yMax="907">
      <contour>
        <pt x="106" y="103" on="0"/>
        <pt x="203" y="59" on="0"/>
        <pt x="318" y="59" on="0"/>
        <pt x="401" y="119" on="0"/>
        <pt x="401" y="228" on="0"/>
        <pt x="330" y="290" on="0"/>
        <pt x="229" y="322" on="0"/>
        <pt x="128" y="358" on="0"/>
        <pt x="57" y="441" on="0"/>
        <pt x="57" y="509" on="1"/>
        <pt x="57" y="602" on="0"/>
        <pt x="178" y="696" on="0"/>
        <pt x="260" y="696" on="1"/>
        <pt x="373" y="696" on="0"/>
        <pt x="447" y="649" on="1"/>
        <pt x="407" y="585" on="1"/>
        <pt x="350" y="621" on="0"/>
        <pt x="259" y="621" on="1"/>
        <pt x="211" y="621" on="0"/>
        <pt x="137" y="567" on="0"/>
        <pt x="137" y="514" on="1"/>
        <pt x="137" y="447" on="0"/>
        <pt x="206" y="416" on="1"/>
        <pt x="236" y="402" on="0"/>
        <pt x="309" y="380" on="0"/>
        <pt x="382" y="350" on="0"/>
        <pt x="412" y="329" on="1"/>
        <pt x="481" y="282" on="0"/>
        <pt x="481" y="83" on="0"/>
        <pt x="354" y="-16" on="0"/>
        <pt x="257" y="-16" on="1"/>
        <pt x="128" y="-16" on="0"/>
        <pt x="30" y="76" on="1"/>
        <pt x="76" y="136" on="1"/>
      </contour>
      <contour>
        <pt x="299" y="745" on="1"/>
        <pt x="279" y="717" on="0"/>
        <pt x="230" y="717" on="0"/>
        <pt x="211" y="745" on="1"/>
        <pt x="114" y="882" on="1"/>
        <pt x="138" y="907" on="1"/>
        <pt x="255" y="800" on="1"/>
        <pt x="372" y="907" on="1"/>
        <pt x="396" y="882" on="1"/>
      </contour>
    </TTGlyph>
    <TTGlyph name="T" xMin="5" yMin="0" xMax="465" yMax="680">
      <contour>
        <pt x="195" y="0" on="1"/>
        <pt x="195" y="608" on="1"/>
        <pt x="5" y="608" on="1"/>
        <pt x="5" y="680" on="1"/>
        <pt x="465" y="680" on="1"/>
        <pt x="465" y="608" on="1"/>
        <pt x="275" y="608" on="1"/>
        <pt x="275" y="0" on="1"/>
      </contour>
    </TTGlyph>
    <TTGlyph name="Thorn" xMin="90" yMin="0" xMax="504" yMax="680">
      <contour>
        <pt x="90" y="0" on="1"/>
        <pt x="90" y="680" on="1"/>
        <pt x="170" y="680" on="1"/>
        <pt x="170" y="543" on="1"/>
        <pt x="301" y="543" on="1"/>
        <pt x="386" y="543" on="0"/>
        <pt x="504" y="425" on="0"/>
        <pt x="504" y="255" on="0"/>
        <pt x="386" y="137" on="0"/>
        <pt x="301" y="137" on="1"/>
        <pt x="170" y="137" on="1"/>
        <pt x="170" y="0" on="1"/>
      </contour>
      <contour>
        <pt x="298" y="470" on="1"/>
        <pt x="170" y="470" on="1"/>
        <pt x="170" y="210" on="1"/>
        <pt x="298" y="210" on="1"/>
        <pt x="350" y="210" on="0"/>
        <pt x="425" y="287" on="0"/>
        <pt x="425" y="393" on="0"/>
        <pt x="350" y="470" on="0"/>
      </contour>
    </TTGlyph>
    <TTGlyph name="U" xMin="75" yMin="-16" xMax="578" yMax="680">
      <contour>
        <pt x="75" y="680" on="1"/>
        <pt x="155" y="680" on="1"/>
        <pt x="155" y="248" on="1"/>
        <pt x="155" y="163" on="0"/>
        <pt x="240" y="57" on="0"/>
        <pt x="412" y="57" on="0"/>
        <pt x="498" y="163" on="0"/>
        <pt x="498" y="248" on="1"/>
        <pt x="498" y="680" on="1"/>
        <pt x="578" y="680" on="1"/>
        <pt x="578" y="253" on="1"/>
        <pt x="578" y="134" on="0"/>
        <pt x="452" y="-16" on="0"/>
        <pt x="200" y="-16" on="0"/>
        <pt x="75" y="134" on="0"/>
        <pt x="75" y="253" on="1"/>
      </contour>
    </TTGlyph>
    <TTGlyph name="Uacute" xMin="75" yMin="-16" xMax="578" yMax="915">
      <contour>
        <pt x="75" y="680" on="1"/>
        <pt x="155" y="680" on="1"/>
        <pt x="155" y="248" on="1"/>
        <pt x="155" y="163" on="0"/>
        <pt x="240" y="57" on="0"/>
        <pt x="412" y="57" on="0"/>
        <pt x="498" y="163" on="0"/>
        <pt x="498" y="248" on="1"/>
        <pt x="498" y="680" on="1"/>
        <pt x="578" y="680" on="1"/>
        <pt x="578" y="253" on="1"/>
        <pt x="578" y="134" on="0"/>
        <pt x="452" y="-16" on="0"/>
        <pt x="200" y="-16" on="0"/>
        <pt x="75" y="134" on="0"/>
        <pt x="75" y="253" on="1"/>
      </contour>
      <contour>
        <pt x="381" y="915" on="1"/>
        <pt x="413" y="915" on="0"/>
        <pt x="431" y="862" on="1"/>
        <pt x="251" y="715" on="1"/>
        <pt x="227" y="740" on="1"/>
        <pt x="329" y="880" on="1"/>
        <pt x="355" y="915" on="0"/>
      </contour>
    </TTGlyph>
    <TTGlyph name="Ucircumflex" xMin="75" yMin="-16" xMax="578" yMax="907">
      <contour>
        <pt x="75" y="680" on="1"/>
        <pt x="155" y="680" on="1"/>
        <pt x="155" y="248" on="1"/>
        <pt x="155" y="163" on="0"/>
        <pt x="240" y="57" on="0"/>
        <pt x="412" y="57" on="0"/>
        <pt x="498" y="163" on="0"/>
        <pt x="498" y="248" on="1"/>
        <pt x="498" y="680" on="1"/>
        <pt x="578" y="680" on="1"/>
        <pt x="578" y="253" on="1"/>
        <pt x="578" y="134" on="0"/>
        <pt x="452" y="-16" on="0"/>
        <pt x="200" y="-16" on="0"/>
        <pt x="75" y="134" on="0"/>
        <pt x="75" y="253" on="1"/>
      </contour>
      <contour>
        <pt x="282" y="879" on="1"/>
        <pt x="301" y="907" on="0"/>
        <pt x="350" y="907" on="0"/>
        <pt x="370" y="879" on="1"/>
        <pt x="467" y="742" on="1"/>
        <pt x="443" y="717" on="1"/>
        <pt x="326" y="824" on="1"/>
        <pt x="209" y="717" on="1"/>
        <pt x="185" y="742" on="1"/>
      </contour>
    </TTGlyph>
    <TTGlyph name="Udieresis" xMin="75" yMin="-16" xMax="578" yMax="872">
      <contour>
        <pt x="75" y="680" on="1"/>
        <pt x="155" y="680" on="1"/>
        <pt x="155" y="248" on="1"/>
        <pt x="155" y="163" on="0"/>
        <pt x="240" y="57" on="0"/>
        <pt x="412" y="57" on="0"/>
        <pt x="498" y="163" on="0"/>
        <pt x="498" y="248" on="1"/>
        <pt x="498" y="680" on="1"/>
        <pt x="578" y="680" on="1"/>
        <pt x="578" y="253" on="1"/>
        <pt x="578" y="134" on="0"/>
        <pt x="452" y="-16" on="0"/>
        <pt x="200" y="-16" on="0"/>
        <pt x="75" y="134" on="0"/>
        <pt x="75" y="253" on="1"/>
      </contour>
      <contour>
        <pt x="367" y="803" on="0"/>
        <pt x="367" y="845" on="0"/>
        <pt x="391" y="872" on="0"/>
        <pt x="437" y="872" on="0"/>
        <pt x="463" y="844" on="0"/>
        <pt x="463" y="804" on="0"/>
        <pt x="437" y="776" on="0"/>
        <pt x="391" y="776" on="0"/>
      </contour>
      <contour>
        <pt x="189" y="803" on="0"/>
        <pt x="189" y="845" on="0"/>
        <pt x="213" y="872" on="0"/>
        <pt x="259" y="872" on="0"/>
        <pt x="285" y="844" on="0"/>
        <pt x="285" y="804" on="0"/>
        <pt x="259" y="776" on="0"/>
        <pt x="213" y="776" on="0"/>
      </contour>
    </TTGlyph>
    <TTGlyph name="Ugrave" xMin="75" yMin="-16" xMax="578" yMax="915">
      <contour>
        <pt x="75" y="680" on="1"/>
        <pt x="155" y="680" on="1"/>
        <pt x="155" y="248" on="1"/>
        <pt x="155" y="163" on="0"/>
        <pt x="240" y="57" on="0"/>
        <pt x="412" y="57" on="0"/>
        <pt x="498" y="163" on="0"/>
        <pt x="498" y="248" on="1"/>
        <pt x="498" y="680" on="1"/>
        <pt x="578" y="680" on="1"/>
        <pt x="578" y="253" on="1"/>
        <pt x="578" y="134" on="0"/>
        <pt x="452" y="-16" on="0"/>
        <pt x="200" y="-16" on="0"/>
        <pt x="75" y="134" on="0"/>
        <pt x="75" y="253" on="1"/>
      </contour>
      <contour>
        <pt x="271" y="915" on="1"/>
        <pt x="297" y="915" on="0"/>
        <pt x="323" y="880" on="1"/>
        <pt x="425" y="740" on="1"/>
        <pt x="401" y="715" on="1"/>
        <pt x="221" y="862" on="1"/>
        <pt x="239" y="915" on="0"/>
      </contour>
    </TTGlyph>
    <TTGlyph name="V" xMin="0" yMin="0" xMax="556" yMax="680">
      <contour>
        <pt x="83" y="680" on="1"/>
        <pt x="278" y="88" on="1"/>
        <pt x="473" y="680" on="1"/>
        <pt x="556" y="680" on="1"/>
        <pt x="327" y="0" on="1"/>
        <pt x="229" y="0" on="1"/>
        <pt x="0" y="680" on="1"/>
      </contour>
    </TTGlyph>
    <TTGlyph name="W" xMin="0" yMin="0" xMax="825" yMax="680">
      <contour>
        <pt x="549" y="0" on="1"/>
        <pt x="411" y="533" on="1"/>
        <pt x="268" y="0" on="1"/>
        <pt x="175" y="0" on="1"/>
        <pt x="0" y="680" on="1"/>
        <pt x="83" y="680" on="1"/>
        <pt x="223" y="120" on="1"/>
        <pt x="373" y="680" on="1"/>
        <pt x="455" y="680" on="1"/>
        <pt x="596" y="120" on="1"/>
        <pt x="745" y="680" on="1"/>
        <pt x="825" y="680" on="1"/>
        <pt x="642" y="0" on="1"/>
      </contour>
    </TTGlyph>
    <TTGlyph name="X" xMin="10" yMin="0" xMax="563" yMax="680">
      <contour>
        <pt x="25" y="680" on="1"/>
        <pt x="118" y="680" on="1"/>
        <pt x="285" y="424" on="1"/>
        <pt x="453" y="680" on="1"/>
        <pt x="546" y="680" on="1"/>
        <pt x="331" y="353" on="1"/>
        <pt x="563" y="0" on="1"/>
        <pt x="471" y="0" on="1"/>
        <pt x="286" y="281" on="1"/>
        <pt x="102" y="0" on="1"/>
        <pt x="10" y="0" on="1"/>
        <pt x="240" y="352" on="1"/>
      </contour>
    </TTGlyph>
    <TTGlyph name="Y" xMin="0" yMin="0" xMax="528" yMax="680">
      <contour>
        <pt x="224" y="0" on="1"/>
        <pt x="224" y="235" on="1"/>
        <pt x="0" y="680" on="1"/>
        <pt x="88" y="680" on="1"/>
        <pt x="264" y="314" on="1"/>
        <pt x="440" y="680" on="1"/>
        <pt x="528" y="680" on="1"/>
        <pt x="304" y="235" on="1"/>
        <pt x="304" y="0" on="1"/>
      </contour>
    </TTGlyph>
    <TTGlyph name="Yacute" xMin="0" yMin="0" xMax="528" yMax="915">
      <contour>
        <pt x="224" y="0" on="1"/>
        <pt x="224" y="235" on="1"/>
        <pt x="0" y="680" on="1"/>
        <pt x="88" y="680" on="1"/>
        <pt x="264" y="314" on="1"/>
        <pt x="440" y="680" on="1"/>
        <pt x="528" y="680" on="1"/>
        <pt x="304" y="235" on="1"/>
        <pt x="304" y="0" on="1"/>
      </contour>
      <contour>
        <pt x="319" y="915" on="1"/>
        <pt x="351" y="915" on="0"/>
        <pt x="369" y="862" on="1"/>
        <pt x="189" y="715" on="1"/>
        <pt x="165" y="740" on="1"/>
        <pt x="267" y="880" on="1"/>
        <pt x="293" y="915" on="0"/>
      </contour>
    </TTGlyph>
    <TTGlyph name="Ydieresis" xMin="0" yMin="0" xMax="528" yMax="872">
      <contour>
        <pt x="224" y="0" on="1"/>
        <pt x="224" y="235" on="1"/>
        <pt x="0" y="680" on="1"/>
        <pt x="88" y="680" on="1"/>
        <pt x="264" y="314" on="1"/>
        <pt x="440" y="680" on="1"/>
        <pt x="528" y="680" on="1"/>
        <pt x="304" y="235" on="1"/>
        <pt x="304" y="0" on="1"/>
      </contour>
      <contour>
        <pt x="305" y="803" on="0"/>
        <pt x="305" y="845" on="0"/>
        <pt x="329" y="872" on="0"/>
        <pt x="375" y="872" on="0"/>
        <pt x="401" y="844" on="0"/>
        <pt x="401" y="804" on="0"/>
        <pt x="375" y="776" on="0"/>
        <pt x="329" y="776" on="0"/>
      </contour>
      <contour>
        <pt x="127" y="803" on="0"/>
        <pt x="127" y="845" on="0"/>
        <pt x="151" y="872" on="0"/>
        <pt x="197" y="872" on="0"/>
        <pt x="223" y="844" on="0"/>
        <pt x="223" y="804" on="0"/>
        <pt x="197" y="776" on="0"/>
        <pt x="151" y="776" on="0"/>
      </contour>
    </TTGlyph>
    <TTGlyph name="Z" xMin="15" yMin="0" xMax="486" yMax="680">
      <contour>
        <pt x="486" y="0" on="1"/>
        <pt x="15" y="0" on="1"/>
        <pt x="15" y="68" on="1"/>
        <pt x="369" y="608" on="1"/>
        <pt x="40" y="608" on="1"/>
        <pt x="40" y="680" on="1"/>
        <pt x="481" y="680" on="1"/>
        <pt x="481" y="639" on="1"/>
        <pt x="110" y="72" on="1"/>
        <pt x="486" y="72" on="1"/>
      </contour>
    </TTGlyph>
    <TTGlyph name="Zcaron" xMin="15" yMin="0" xMax="486" yMax="907">
      <contour>
        <pt x="486" y="0" on="1"/>
        <pt x="15" y="0" on="1"/>
        <pt x="15" y="68" on="1"/>
        <pt x="369" y="608" on="1"/>
        <pt x="40" y="608" on="1"/>
        <pt x="40" y="680" on="1"/>
        <pt x="481" y="680" on="1"/>
        <pt x="481" y="639" on="1"/>
        <pt x="110" y="72" on="1"/>
        <pt x="486" y="72" on="1"/>
      </contour>
      <contour>
        <pt x="294" y="745" on="1"/>
        <pt x="274" y="717" on="0"/>
        <pt x="225" y="717" on="0"/>
        <pt x="206" y="745" on="1"/>
        <pt x="109" y="882" on="1"/>
        <pt x="133" y="907" on="1"/>
        <pt x="250" y="800" on="1"/>
        <pt x="367" y="907" on="1"/>
        <pt x="391" y="882" on="1"/>
      </contour>
    </TTGlyph>
    <TTGlyph name="a" xMin="45" yMin="-14" xMax="484" yMax="514">
      <contour>
        <pt x="241" y="-14" on="1"/>
        <pt x="155" y="-14" on="0"/>
        <pt x="45" y="116" on="0"/>
        <pt x="45" y="361" on="0"/>
        <pt x="184" y="514" on="0"/>
        <pt x="391" y="514" on="0"/>
        <pt x="474" y="456" on="1"/>
        <pt x="474" y="100" on="1"/>
        <pt x="484" y="0" on="1"/>
        <pt x="418" y="-5" on="1"/>
        <pt x="401" y="85" on="1"/>
        <pt x="345" y="-14" on="0"/>
      </contour>
      <contour>
        <pt x="121" y="150" on="0"/>
        <pt x="197" y="54" on="0"/>
        <pt x="316" y="54" on="0"/>
        <pt x="398" y="173" on="0"/>
        <pt x="398" y="282" on="1"/>
        <pt x="398" y="421" on="1"/>
        <pt x="348" y="446" on="0"/>
        <pt x="291" y="446" on="1"/>
        <pt x="217" y="446" on="0"/>
        <pt x="121" y="331" on="0"/>
      </contour>
    </TTGlyph>
    <TTGlyph name="aacute" xMin="45" yMin="-14" xMax="484" yMax="735">
      <contour>
        <pt x="241" y="-14" on="1"/>
        <pt x="155" y="-14" on="0"/>
        <pt x="45" y="116" on="0"/>
        <pt x="45" y="361" on="0"/>
        <pt x="184" y="514" on="0"/>
        <pt x="391" y="514" on="0"/>
        <pt x="474" y="456" on="1"/>
        <pt x="474" y="100" on="1"/>
        <pt x="484" y="0" on="1"/>
        <pt x="418" y="-5" on="1"/>
        <pt x="401" y="85" on="1"/>
        <pt x="345" y="-14" on="0"/>
      </contour>
      <contour>
        <pt x="121" y="150" on="0"/>
        <pt x="197" y="54" on="0"/>
        <pt x="316" y="54" on="0"/>
        <pt x="398" y="173" on="0"/>
        <pt x="398" y="282" on="1"/>
        <pt x="398" y="421" on="1"/>
        <pt x="348" y="446" on="0"/>
        <pt x="291" y="446" on="1"/>
        <pt x="217" y="446" on="0"/>
        <pt x="121" y="331" on="0"/>
      </contour>
      <contour>
        <pt x="369" y="735" on="1"/>
        <pt x="401" y="735" on="0"/>
        <pt x="419" y="682" on="1"/>
        <pt x="239" y="535" on="1"/>
        <pt x="215" y="560" on="1"/>
        <pt x="317" y="700" on="1"/>
        <pt x="343" y="735" on="0"/>
      </contour>
    </TTGlyph>
    <TTGlyph name="acircumflex" xMin="45" yMin="-14" xMax="484" yMax="727">
      <contour>
        <pt x="241" y="-14" on="1"/>
        <pt x="155" y="-14" on="0"/>
        <pt x="45" y="116" on="0"/>
        <pt x="45" y="361" on="0"/>
        <pt x="184" y="514" on="0"/>
        <pt x="391" y="514" on="0"/>
        <pt x="474" y="456" on="1"/>
        <pt x="474" y="100" on="1"/>
        <pt x="484" y="0" on="1"/>
        <pt x="418" y="-5" on="1"/>
        <pt x="401" y="85" on="1"/>
        <pt x="345" y="-14" on="0"/>
      </contour>
      <contour>
        <pt x="197" y="54" on="0"/>
        <pt x="315" y="54" on="0"/>
        <pt x="398" y="167" on="0"/>
        <pt x="398" y="270" on="1"/>
        <pt x="398" y="421" on="1"/>
        <pt x="348" y="446" on="0"/>
        <pt x="291" y="446" on="1"/>
        <pt x="217" y="446" on="0"/>
        <pt x="121" y="331" on="0"/>
        <pt x="121" y="150" on="0"/>
      </contour>
      <contour>
        <pt x="235" y="699" on="1"/>
        <pt x="254" y="727" on="0"/>
        <pt x="303" y="727" on="0"/>
        <pt x="323" y="699" on="1"/>
        <pt x="420" y="562" on="1"/>
        <pt x="396" y="537" on="1"/>
        <pt x="279" y="644" on="1"/>
        <pt x="162" y="537" on="1"/>
        <pt x="138" y="562" on="1"/>
      </contour>
    </TTGlyph>
    <TTGlyph name="acute" xMin="41" yMin="535" xMax="245" yMax="735">
      <contour>
        <pt x="195" y="735" on="1"/>
        <pt x="227" y="735" on="0"/>
        <pt x="245" y="682" on="1"/>
        <pt x="65" y="535" on="1"/>
        <pt x="41" y="560" on="1"/>
        <pt x="143" y="700" on="1"/>
        <pt x="169" y="735" on="0"/>
      </contour>
    </TTGlyph>
    <TTGlyph name="adieresis" xMin="45" yMin="-14" xMax="484" yMax="692">
      <contour>
        <pt x="241" y="-14" on="1"/>
        <pt x="155" y="-14" on="0"/>
        <pt x="45" y="116" on="0"/>
        <pt x="45" y="361" on="0"/>
        <pt x="184" y="514" on="0"/>
        <pt x="391" y="514" on="0"/>
        <pt x="474" y="456" on="1"/>
        <pt x="474" y="100" on="1"/>
        <pt x="484" y="0" on="1"/>
        <pt x="418" y="-5" on="1"/>
        <pt x="401" y="85" on="1"/>
        <pt x="345" y="-14" on="0"/>
      </contour>
      <contour>
        <pt x="121" y="150" on="0"/>
        <pt x="197" y="54" on="0"/>
        <pt x="316" y="54" on="0"/>
        <pt x="398" y="173" on="0"/>
        <pt x="398" y="282" on="1"/>
        <pt x="398" y="421" on="1"/>
        <pt x="348" y="446" on="0"/>
        <pt x="291" y="446" on="1"/>
        <pt x="217" y="446" on="0"/>
        <pt x="121" y="331" on="0"/>
      </contour>
      <contour>
        <pt x="320" y="623" on="0"/>
        <pt x="320" y="665" on="0"/>
        <pt x="344" y="692" on="0"/>
        <pt x="390" y="692" on="0"/>
        <pt x="416" y="664" on="0"/>
        <pt x="416" y="624" on="0"/>
        <pt x="390" y="596" on="0"/>
        <pt x="344" y="596" on="0"/>
      </contour>
      <contour>
        <pt x="142" y="623" on="0"/>
        <pt x="142" y="665" on="0"/>
        <pt x="166" y="692" on="0"/>
        <pt x="212" y="692" on="0"/>
        <pt x="238" y="664" on="0"/>
        <pt x="238" y="624" on="0"/>
        <pt x="212" y="596" on="0"/>
        <pt x="166" y="596" on="0"/>
      </contour>
    </TTGlyph>
    <TTGlyph name="ae" xMin="39" yMin="-14" xMax="762" yMax="514">
      <contour>
        <pt x="762" y="263" on="1"/>
        <pt x="760" y="233" on="1"/>
        <pt x="426" y="233" on="1"/>
        <pt x="430" y="146" on="0"/>
        <pt x="513" y="54" on="0"/>
        <pt x="575" y="54" on="1"/>
        <pt x="662" y="54" on="0"/>
        <pt x="718" y="108" on="1"/>
        <pt x="756" y="59" on="1"/>
        <pt x="682" y="-14" on="0"/>
        <pt x="574" y="-14" on="1"/>
        <pt x="509" y="-14" on="0"/>
        <pt x="405" y="47" on="0"/>
        <pt x="377" y="107" on="1"/>
        <pt x="348" y="53" on="0"/>
        <pt x="250" y="-14" on="0"/>
        <pt x="120" y="-14" on="0"/>
        <pt x="39" y="61" on="0"/>
        <pt x="39" y="121" on="1"/>
        <pt x="39" y="269" on="0"/>
        <pt x="220" y="286" on="1"/>
        <pt x="350" y="298" on="1"/>
        <pt x="350" y="347" on="1"/>
        <pt x="350" y="400" on="0"/>
        <pt x="297" y="446" on="0"/>
        <pt x="182" y="446" on="0"/>
        <pt x="108" y="398" on="1"/>
        <pt x="73" y="453" on="1"/>
        <pt x="159" y="514" on="0"/>
        <pt x="252" y="514" on="1"/>
        <pt x="371" y="514" on="0"/>
        <pt x="408" y="437" on="1"/>
        <pt x="470" y="514" on="0"/>
        <pt x="573" y="514" on="1"/>
        <pt x="762" y="514" on="0"/>
      </contour>
      <contour>
        <pt x="350" y="222" on="1"/>
        <pt x="350" y="233" on="1"/>
        <pt x="223" y="221" on="1"/>
        <pt x="166" y="216" on="0"/>
        <pt x="118" y="164" on="0"/>
        <pt x="118" y="98" on="0"/>
        <pt x="161" y="54" on="0"/>
        <pt x="196" y="54" on="1"/>
        <pt x="254" y="54" on="0"/>
        <pt x="350" y="143" on="0"/>
      </contour>
      <contour>
        <pt x="572" y="445" on="1"/>
        <pt x="514" y="445" on="0"/>
        <pt x="439" y="370" on="0"/>
        <pt x="429" y="300" on="1"/>
        <pt x="686" y="300" on="1"/>
        <pt x="682" y="445" on="0"/>
      </contour>
    </TTGlyph>
    <TTGlyph name="agrave" xMin="45" yMin="-14" xMax="484" yMax="735">
      <contour>
        <pt x="241" y="-14" on="1"/>
        <pt x="155" y="-14" on="0"/>
        <pt x="45" y="116" on="0"/>
        <pt x="45" y="361" on="0"/>
        <pt x="184" y="514" on="0"/>
        <pt x="391" y="514" on="0"/>
        <pt x="474" y="456" on="1"/>
        <pt x="474" y="100" on="1"/>
        <pt x="484" y="0" on="1"/>
        <pt x="418" y="-5" on="1"/>
        <pt x="401" y="85" on="1"/>
        <pt x="345" y="-14" on="0"/>
      </contour>
      <contour>
        <pt x="121" y="150" on="0"/>
        <pt x="197" y="54" on="0"/>
        <pt x="316" y="54" on="0"/>
        <pt x="398" y="173" on="0"/>
        <pt x="398" y="282" on="1"/>
        <pt x="398" y="421" on="1"/>
        <pt x="348" y="446" on="0"/>
        <pt x="291" y="446" on="1"/>
        <pt x="217" y="446" on="0"/>
        <pt x="121" y="331" on="0"/>
      </contour>
      <contour>
        <pt x="209" y="735" on="1"/>
        <pt x="235" y="735" on="0"/>
        <pt x="261" y="700" on="1"/>
        <pt x="363" y="560" on="1"/>
        <pt x="339" y="535" on="1"/>
        <pt x="159" y="682" on="1"/>
        <pt x="177" y="735" on="0"/>
      </contour>
    </TTGlyph>
    <TTGlyph name="ampersand" xMin="35" yMin="-14" xMax="606" yMax="664">
      <contour>
        <pt x="606" y="378" on="1"/>
        <pt x="606" y="310" on="1"/>
        <pt x="493" y="310" on="1"/>
        <pt x="488" y="149" on="0"/>
        <pt x="376" y="-14" on="0"/>
        <pt x="141" y="-14" on="0"/>
        <pt x="35" y="101" on="0"/>
        <pt x="35" y="188" on="1"/>
        <pt x="35" y="240" on="0"/>
        <pt x="92" y="330" on="0"/>
        <pt x="145" y="353" on="1"/>
        <pt x="67" y="400" on="0"/>
        <pt x="67" y="570" on="0"/>
        <pt x="170" y="664" on="0"/>
        <pt x="349" y="664" on="0"/>
        <pt x="417" y="618" on="1"/>
        <pt x="383" y="548" on="1"/>
        <pt x="366" y="565" on="0"/>
        <pt x="299" y="592" on="0"/>
        <pt x="267" y="592" on="1"/>
        <pt x="209" y="592" on="0"/>
        <pt x="147" y="537" on="0"/>
        <pt x="147" y="491" on="1"/>
        <pt x="147" y="457" on="0"/>
        <pt x="174" y="422" on="1"/>
        <pt x="190" y="403" on="0"/>
        <pt x="261" y="378" on="0"/>
        <pt x="312" y="378" on="1"/>
      </contour>
      <contour>
        <pt x="251" y="58" on="1"/>
        <pt x="417" y="58" on="0"/>
        <pt x="417" y="310" on="1"/>
        <pt x="251" y="310" on="1"/>
        <pt x="188" y="310" on="0"/>
        <pt x="115" y="237" on="0"/>
        <pt x="115" y="132" on="0"/>
        <pt x="182" y="58" on="0"/>
      </contour>
    </TTGlyph>
    <TTGlyph name="apple" xMin="100" yMin="-114" xMax="823" yMax="608">
      <contour>
        <pt x="589" y="-89" on="1"/>
        <pt x="566" y="-88" on="1"/>
        <pt x="552" y="-88" on="0"/>
        <pt x="517" y="-112" on="0"/>
        <pt x="508" y="-112" on="1"/>
        <pt x="462" y="-102" on="1"/>
        <pt x="454" y="-102" on="0"/>
        <pt x="423" y="-114" on="0"/>
        <pt x="406" y="-114" on="0"/>
        <pt x="374" y="-89" on="0"/>
        <pt x="361" y="-89" on="1"/>
        <pt x="337" y="-91" on="1"/>
        <pt x="322" y="-91" on="0"/>
        <pt x="304" y="-74" on="1"/>
        <pt x="286" y="-55" on="1"/>
        <pt x="274" y="-49" on="0"/>
        <pt x="248" y="-47" on="0"/>
        <pt x="230" y="-36" on="0"/>
        <pt x="216" y="-1" on="0"/>
        <pt x="205" y="8" on="0"/>
        <pt x="177" y="19" on="0"/>
        <pt x="171" y="28" on="1"/>
        <pt x="166" y="37" on="0"/>
        <pt x="162" y="66" on="0"/>
        <pt x="154" y="79" on="0"/>
        <pt x="144" y="86" on="1"/>
        <pt x="122" y="104" on="0"/>
        <pt x="122" y="124" on="1"/>
        <pt x="125" y="149" on="1"/>
        <pt x="125" y="158" on="0"/>
        <pt x="100" y="193" on="0"/>
        <pt x="100" y="211" on="0"/>
        <pt x="112" y="240" on="0"/>
        <pt x="112" y="257" on="0"/>
        <pt x="100" y="283" on="0"/>
        <pt x="100" y="301" on="0"/>
        <pt x="125" y="342" on="0"/>
        <pt x="125" y="351" on="1"/>
        <pt x="124" y="376" on="1"/>
        <pt x="124" y="391" on="0"/>
        <pt x="157" y="420" on="0"/>
        <pt x="162" y="430" on="0"/>
        <pt x="166" y="462" on="0"/>
        <pt x="174" y="474" on="0"/>
        <pt x="205" y="486" on="0"/>
        <pt x="215" y="496" on="0"/>
        <pt x="229" y="527" on="0"/>
        <pt x="242" y="538" on="0"/>
        <pt x="280" y="546" on="0"/>
        <pt x="291" y="552" on="0"/>
        <pt x="321" y="586" on="0"/>
        <pt x="335" y="587" on="1"/>
        <pt x="361" y="585" on="1"/>
        <pt x="374" y="585" on="0"/>
        <pt x="405" y="608" on="0"/>
        <pt x="416" y="608" on="1"/>
        <pt x="460" y="596" on="1"/>
        <pt x="505" y="608" on="1"/>
        <pt x="518" y="608" on="0"/>
        <pt x="550" y="583" on="0"/>
        <pt x="562" y="583" on="1"/>
        <pt x="590" y="586" on="1"/>
        <pt x="606" y="586" on="0"/>
        <pt x="632" y="553" on="0"/>
        <pt x="645" y="546" on="0"/>
        <pt x="675" y="540" on="0"/>
        <pt x="690" y="530" on="0"/>
        <pt x="700" y="502" on="0"/>
        <pt x="711" y="492" on="0"/>
        <pt x="751" y="471" on="0"/>
        <pt x="760" y="455" on="0"/>
        <pt x="761" y="423" on="0"/>
        <pt x="766" y="414" on="0"/>
        <pt x="800" y="385" on="0"/>
        <pt x="800" y="369" on="1"/>
        <pt x="799" y="344" on="1"/>
        <pt x="799" y="331" on="0"/>
        <pt x="823" y="294" on="0"/>
        <pt x="823" y="276" on="0"/>
        <pt x="812" y="250" on="0"/>
        <pt x="812" y="236" on="0"/>
        <pt x="823" y="207" on="0"/>
        <pt x="822" y="191" on="0"/>
        <pt x="798" y="166" on="0"/>
        <pt x="798" y="152" on="1"/>
        <pt x="800" y="120" on="1"/>
        <pt x="800" y="104" on="0"/>
        <pt x="768" y="78" on="0"/>
        <pt x="763" y="68" on="0"/>
        <pt x="754" y="30" on="0"/>
        <pt x="743" y="17" on="0"/>
        <pt x="718" y="6" on="0"/>
        <pt x="708" y="-4" on="0"/>
        <pt x="690" y="-37" on="0"/>
        <pt x="676" y="-47" on="0"/>
        <pt x="641" y="-56" on="0"/>
        <pt x="631" y="-62" on="0"/>
        <pt x="604" y="-89" on="0"/>
      </contour>
      <contour>
        <pt x="462" y="-6" on="1"/>
        <pt x="495" y="-13" on="1"/>
        <pt x="501" y="-13" on="0"/>
        <pt x="512" y="-6" on="1"/>
        <pt x="527" y="4" on="0"/>
        <pt x="539" y="4" on="1"/>
        <pt x="554" y="3" on="1"/>
        <pt x="566" y="3" on="0"/>
        <pt x="584" y="23" on="0"/>
        <pt x="591" y="27" on="0"/>
        <pt x="617" y="34" on="0"/>
        <pt x="628" y="42" on="0"/>
        <pt x="641" y="65" on="0"/>
        <pt x="648" y="72" on="0"/>
        <pt x="666" y="80" on="0"/>
        <pt x="674" y="89" on="0"/>
        <pt x="680" y="117" on="0"/>
        <pt x="685" y="125" on="0"/>
        <pt x="707" y="143" on="0"/>
        <pt x="707" y="157" on="1"/>
        <pt x="706" y="177" on="1"/>
        <pt x="706" y="188" on="0"/>
        <pt x="723" y="207" on="0"/>
        <pt x="724" y="213" on="1"/>
        <pt x="716" y="245" on="1"/>
        <pt x="724" y="273" on="1"/>
        <pt x="724" y="281" on="0"/>
        <pt x="706" y="309" on="0"/>
        <pt x="706" y="318" on="1"/>
        <pt x="707" y="335" on="1"/>
        <pt x="707" y="347" on="0"/>
        <pt x="683" y="367" on="0"/>
        <pt x="679" y="375" on="0"/>
        <pt x="678" y="398" on="0"/>
        <pt x="672" y="409" on="0"/>
        <pt x="643" y="424" on="0"/>
        <pt x="635" y="432" on="0"/>
        <pt x="627" y="452" on="0"/>
        <pt x="617" y="460" on="0"/>
        <pt x="595" y="464" on="0"/>
        <pt x="585" y="469" on="0"/>
        <pt x="567" y="493" on="0"/>
        <pt x="555" y="493" on="1"/>
        <pt x="535" y="491" on="1"/>
        <pt x="526" y="491" on="0"/>
        <pt x="504" y="509" on="0"/>
        <pt x="494" y="509" on="1"/>
        <pt x="461" y="500" on="1"/>
        <pt x="429" y="509" on="1"/>
        <pt x="421" y="509" on="0"/>
        <pt x="397" y="492" on="0"/>
        <pt x="387" y="492" on="1"/>
        <pt x="370" y="493" on="1"/>
        <pt x="359" y="493" on="0"/>
        <pt x="338" y="468" on="0"/>
        <pt x="329" y="463" on="0"/>
        <pt x="303" y="458" on="0"/>
        <pt x="293" y="450" on="0"/>
        <pt x="283" y="428" on="0"/>
        <pt x="275" y="420" on="0"/>
        <pt x="254" y="412" on="0"/>
        <pt x="250" y="407" on="1"/>
        <pt x="248" y="403" on="0"/>
        <pt x="244" y="380" on="0"/>
        <pt x="240" y="372" on="0"/>
        <pt x="216" y="351" on="0"/>
        <pt x="216" y="340" on="1"/>
        <pt x="217" y="324" on="1"/>
        <pt x="217" y="316" on="0"/>
        <pt x="200" y="286" on="0"/>
        <pt x="200" y="278" on="1"/>
        <pt x="208" y="248" on="1"/>
        <pt x="200" y="215" on="1"/>
        <pt x="200" y="207" on="0"/>
        <pt x="217" y="182" on="0"/>
        <pt x="217" y="174" on="1"/>
        <pt x="215" y="158" on="1"/>
        <pt x="215" y="147" on="0"/>
        <pt x="240" y="124" on="0"/>
        <pt x="244" y="116" on="0"/>
        <pt x="247" y="95" on="0"/>
        <pt x="255" y="82" on="0"/>
        <pt x="275" y="74" on="0"/>
        <pt x="283" y="67" on="0"/>
        <pt x="294" y="41" on="0"/>
        <pt x="306" y="33" on="0"/>
        <pt x="325" y="33" on="0"/>
        <pt x="337" y="27" on="0"/>
        <pt x="360" y="2" on="0"/>
        <pt x="371" y="2" on="1"/>
        <pt x="386" y="3" on="1"/>
        <pt x="396" y="3" on="0"/>
        <pt x="420" y="-14" on="0"/>
        <pt x="426" y="-15" on="1"/>
      </contour>
      <contour>
        <pt x="392" y="417" on="0"/>
        <pt x="532" y="417" on="0"/>
        <pt x="632" y="318" on="0"/>
        <pt x="632" y="176" on="0"/>
        <pt x="532" y="77" on="0"/>
        <pt x="392" y="77" on="0"/>
        <pt x="292" y="176" on="0"/>
        <pt x="292" y="318" on="0"/>
      </contour>
      <contour>
        <pt x="505" y="292" on="1"/>
        <pt x="557" y="292" on="1"/>
        <pt x="557" y="360" on="1"/>
        <pt x="366" y="360" on="1"/>
        <pt x="366" y="292" on="1"/>
        <pt x="420" y="292" on="1"/>
        <pt x="420" y="117" on="1"/>
        <pt x="505" y="117" on="1"/>
      </contour>
    </TTGlyph>
    <TTGlyph name="approxequal" xMin="47" yMin="149" xMax="471" yMax="471">
      <contour>
        <pt x="471" y="361" on="1"/>
        <pt x="429" y="325" on="0"/>
        <pt x="335" y="325" on="0"/>
        <pt x="176" y="395" on="0"/>
        <pt x="89" y="395" on="0"/>
        <pt x="47" y="361" on="1"/>
        <pt x="47" y="437" on="1"/>
        <pt x="90" y="471" on="0"/>
        <pt x="177" y="471" on="0"/>
        <pt x="336" y="401" on="0"/>
        <pt x="429" y="401" on="0"/>
        <pt x="471" y="437" on="1"/>
      </contour>
      <contour>
        <pt x="47" y="261" on="1"/>
        <pt x="89" y="295" on="0"/>
        <pt x="177" y="295" on="0"/>
        <pt x="336" y="225" on="0"/>
        <pt x="429" y="225" on="0"/>
        <pt x="471" y="261" on="1"/>
        <pt x="471" y="185" on="1"/>
        <pt x="429" y="149" on="0"/>
        <pt x="335" y="149" on="0"/>
        <pt x="176" y="219" on="0"/>
        <pt x="89" y="219" on="0"/>
        <pt x="47" y="185" on="1"/>
      </contour>
    </TTGlyph>
    <TTGlyph name="aring" xMin="45" yMin="-14" xMax="484" yMax="739">
      <contour>
        <pt x="241" y="-14" on="1"/>
        <pt x="155" y="-14" on="0"/>
        <pt x="45" y="116" on="0"/>
        <pt x="45" y="361" on="0"/>
        <pt x="184" y="514" on="0"/>
        <pt x="391" y="514" on="0"/>
        <pt x="474" y="456" on="1"/>
        <pt x="474" y="100" on="1"/>
        <pt x="484" y="0" on="1"/>
        <pt x="418" y="-5" on="1"/>
        <pt x="401" y="85" on="1"/>
        <pt x="345" y="-14" on="0"/>
      </contour>
      <contour>
        <pt x="197" y="54" on="0"/>
        <pt x="315" y="54" on="0"/>
        <pt x="398" y="167" on="0"/>
        <pt x="398" y="270" on="1"/>
        <pt x="398" y="421" on="1"/>
        <pt x="348" y="446" on="0"/>
        <pt x="291" y="446" on="1"/>
        <pt x="217" y="446" on="0"/>
        <pt x="121" y="331" on="0"/>
        <pt x="121" y="150" on="0"/>
      </contour>
      <contour>
        <pt x="192" y="594" on="0"/>
        <pt x="192" y="682" on="0"/>
        <pt x="244" y="739" on="0"/>
        <pt x="341" y="739" on="0"/>
        <pt x="394" y="681" on="0"/>
        <pt x="394" y="595" on="0"/>
        <pt x="341" y="537" on="0"/>
        <pt x="244" y="537" on="0"/>
      </contour>
      <contour>
        <pt x="243" y="660" on="0"/>
        <pt x="243" y="616" on="0"/>
        <pt x="269" y="588" on="0"/>
        <pt x="316" y="588" on="0"/>
        <pt x="343" y="617" on="0"/>
        <pt x="343" y="659" on="0"/>
        <pt x="316" y="688" on="0"/>
        <pt x="269" y="688" on="0"/>
      </contour>
    </TTGlyph>
    <TTGlyph name="asciicircum" xMin="36" yMin="283" xMax="482" yMax="656">
      <contour>
        <pt x="235" y="656" on="1"/>
        <pt x="284" y="656" on="1"/>
        <pt x="482" y="320" on="1"/>
        <pt x="421" y="283" on="1"/>
        <pt x="259" y="557" on="1"/>
        <pt x="97" y="283" on="1"/>
        <pt x="36" y="320" on="1"/>
      </contour>
    </TTGlyph>
    <TTGlyph name="asciitilde" xMin="42" yMin="248" xMax="476" yMax="398">
      <contour>
        <pt x="353" y="248" on="1"/>
        <pt x="314" y="248" on="0"/>
        <pt x="191" y="325" on="0"/>
        <pt x="165" y="325" on="1"/>
        <pt x="129" y="325" on="0"/>
        <pt x="98" y="269" on="1"/>
        <pt x="42" y="300" on="1"/>
        <pt x="95" y="398" on="0"/>
        <pt x="165" y="398" on="1"/>
        <pt x="204" y="398" on="0"/>
        <pt x="327" y="321" on="0"/>
        <pt x="353" y="321" on="1"/>
        <pt x="389" y="321" on="0"/>
        <pt x="420" y="377" on="1"/>
        <pt x="476" y="346" on="1"/>
        <pt x="423" y="248" on="0"/>
      </contour>
    </TTGlyph>
    <TTGlyph name="asterisk" xMin="30" yMin="340" xMax="403" yMax="695">
      <contour>
        <pt x="283" y="486" on="1"/>
        <pt x="257" y="563" on="1"/>
        <pt x="388" y="590" on="1"/>
        <pt x="403" y="540" on="1"/>
        <pt x="283" y="486" on="1"/>
        <pt x="349" y="370" on="1"/>
        <pt x="306" y="340" on="1"/>
        <pt x="217" y="438" on="1"/>
      </contour>
      <contour>
        <pt x="217" y="438" on="1"/>
        <pt x="127" y="340" on="1"/>
        <pt x="85" y="371" on="1"/>
        <pt x="151" y="486" on="1"/>
      </contour>
      <contour>
        <pt x="151" y="486" on="1"/>
        <pt x="30" y="541" on="1"/>
        <pt x="46" y="590" on="1"/>
        <pt x="176" y="563" on="1"/>
      </contour>
      <contour>
        <pt x="176" y="563" on="1"/>
        <pt x="191" y="695" on="1"/>
        <pt x="242" y="695" on="1"/>
        <pt x="257" y="563" on="1"/>
      </contour>
    </TTGlyph>
    <TTGlyph name="at" xMin="70" yMin="-93" xMax="736" yMax="593">
      <contour>
        <pt x="299" y="181" on="0"/>
        <pt x="348" y="118" on="0"/>
        <pt x="425" y="118" on="0"/>
        <pt x="479" y="200" on="0"/>
        <pt x="479" y="275" on="1"/>
        <pt x="479" y="371" on="1"/>
        <pt x="445" y="385" on="0"/>
        <pt x="412" y="385" on="1"/>
        <pt x="363" y="385" on="0"/>
        <pt x="299" y="306" on="0"/>
      </contour>
      <contour>
        <pt x="413" y="-93" on="1"/>
        <pt x="247" y="-93" on="0"/>
        <pt x="70" y="102" on="0"/>
        <pt x="70" y="398" on="0"/>
        <pt x="247" y="593" on="0"/>
        <pt x="564" y="593" on="0"/>
        <pt x="736" y="396" on="0"/>
        <pt x="736" y="250" on="1"/>
        <pt x="736" y="167" on="0"/>
        <pt x="650" y="58" on="0"/>
        <pt x="576" y="58" on="1"/>
        <pt x="541" y="58" on="0"/>
        <pt x="488" y="102" on="0"/>
        <pt x="483" y="132" on="1"/>
        <pt x="477" y="132" on="1"/>
        <pt x="463" y="96" on="0"/>
        <pt x="406" y="58" on="0"/>
        <pt x="376" y="58" on="1"/>
        <pt x="312" y="58" on="0"/>
        <pt x="229" y="154" on="0"/>
        <pt x="229" y="333" on="0"/>
        <pt x="331" y="444" on="0"/>
        <pt x="492" y="444" on="0"/>
        <pt x="548" y="409" on="1"/>
        <pt x="548" y="169" on="1"/>
        <pt x="548" y="119" on="0"/>
        <pt x="584" y="119" on="1"/>
        <pt x="626" y="119" on="0"/>
        <pt x="668" y="198" on="0"/>
        <pt x="668" y="250" on="1"/>
        <pt x="668" y="369" on="0"/>
        <pt x="531" y="531" on="0"/>
        <pt x="280" y="531" on="0"/>
        <pt x="138" y="371" on="0"/>
        <pt x="138" y="129" on="0"/>
        <pt x="280" y="-31" on="0"/>
        <pt x="413" y="-31" on="1"/>
        <pt x="511" y="-31" on="0"/>
        <pt x="578" y="15" on="1"/>
        <pt x="611" y="-35" on="1"/>
        <pt x="526" y="-93" on="0"/>
      </contour>
    </TTGlyph>
    <TTGlyph name="atilde" xMin="45" yMin="-14" xMax="484" yMax="706">
      <contour>
        <pt x="241" y="-14" on="1"/>
        <pt x="155" y="-14" on="0"/>
        <pt x="45" y="116" on="0"/>
        <pt x="45" y="361" on="0"/>
        <pt x="184" y="514" on="0"/>
        <pt x="391" y="514" on="0"/>
        <pt x="474" y="456" on="1"/>
        <pt x="474" y="100" on="1"/>
        <pt x="484" y="0" on="1"/>
        <pt x="418" y="-5" on="1"/>
        <pt x="401" y="85" on="1"/>
        <pt x="345" y="-14" on="0"/>
      </contour>
      <contour>
        <pt x="197" y="54" on="0"/>
        <pt x="315" y="54" on="0"/>
        <pt x="398" y="167" on="0"/>
        <pt x="398" y="270" on="1"/>
        <pt x="398" y="421" on="1"/>
        <pt x="348" y="446" on="0"/>
        <pt x="291" y="446" on="1"/>
        <pt x="217" y="446" on="0"/>
        <pt x="121" y="331" on="0"/>
        <pt x="121" y="150" on="0"/>
      </contour>
      <contour>
        <pt x="347" y="590" on="1"/>
        <pt x="322" y="590" on="0"/>
        <pt x="235" y="620" on="0"/>
        <pt x="215" y="620" on="1"/>
        <pt x="175" y="620" on="0"/>
        <pt x="168" y="576" on="1"/>
        <pt x="121" y="584" on="1"/>
        <pt x="139" y="692" on="0"/>
        <pt x="208" y="692" on="1"/>
        <pt x="233" y="692" on="0"/>
        <pt x="324" y="662" on="0"/>
        <pt x="344" y="662" on="1"/>
        <pt x="384" y="662" on="0"/>
        <pt x="391" y="706" on="1"/>
        <pt x="438" y="698" on="1"/>
        <pt x="419" y="590" on="0"/>
      </contour>
    </TTGlyph>
    <TTGlyph name="b" xMin="75" yMin="-14" xMax="504" yMax="700">
      <contour>
        <pt x="151" y="700" on="1"/>
        <pt x="151" y="418" on="1"/>
        <pt x="206" y="514" on="0"/>
        <pt x="313" y="514" on="1"/>
        <pt x="397" y="514" on="0"/>
        <pt x="504" y="384" on="0"/>
        <pt x="504" y="139" on="0"/>
        <pt x="365" y="-14" on="0"/>
        <pt x="165" y="-14" on="0"/>
        <pt x="75" y="99" on="0"/>
        <pt x="75" y="196" on="1"/>
        <pt x="75" y="700" on="1"/>
      </contour>
      <contour>
        <pt x="428" y="351" on="0"/>
        <pt x="360" y="446" on="0"/>
        <pt x="237" y="446" on="0"/>
        <pt x="153" y="336" on="0"/>
        <pt x="151" y="222" on="1"/>
        <pt x="151" y="196" on="1"/>
        <pt x="151" y="133" on="0"/>
        <pt x="204" y="54" on="0"/>
        <pt x="258" y="54" on="1"/>
        <pt x="332" y="54" on="0"/>
        <pt x="428" y="169" on="0"/>
      </contour>
    </TTGlyph>
    <TTGlyph name="backslash" xMin="-30" yMin="-92" xMax="342" yMax="772">
      <contour>
        <pt x="269" y="-92" on="1"/>
        <pt x="-30" y="772" on="1"/>
        <pt x="42" y="772" on="1"/>
        <pt x="342" y="-92" on="1"/>
      </contour>
    </TTGlyph>
    <TTGlyph name="bar" xMin="90" yMin="-76" xMax="182" yMax="756">
      <contour>
        <pt x="90" y="-76" on="1"/>
        <pt x="90" y="756" on="1"/>
        <pt x="182" y="756" on="1"/>
        <pt x="182" y="-76" on="1"/>
      </contour>
    </TTGlyph>
    <TTGlyph name="braceleft" xMin="30" yMin="-60" xMax="262" yMax="682">
      <contour>
        <pt x="187" y="0" on="1"/>
        <pt x="262" y="0" on="1"/>
        <pt x="262" y="-60" on="1"/>
        <pt x="170" y="-60" on="1"/>
        <pt x="140" y="-60" on="0"/>
        <pt x="90" y="-26" on="0"/>
        <pt x="90" y="20" on="1"/>
        <pt x="90" y="239" on="1"/>
        <pt x="90" y="263" on="0"/>
        <pt x="65" y="286" on="0"/>
        <pt x="30" y="286" on="1"/>
        <pt x="30" y="336" on="1"/>
        <pt x="65" y="336" on="0"/>
        <pt x="90" y="359" on="0"/>
        <pt x="90" y="383" on="1"/>
        <pt x="90" y="602" on="1"/>
        <pt x="90" y="648" on="0"/>
        <pt x="140" y="682" on="0"/>
        <pt x="170" y="682" on="1"/>
        <pt x="262" y="682" on="1"/>
        <pt x="262" y="622" on="1"/>
        <pt x="187" y="622" on="1"/>
        <pt x="170" y="622" on="0"/>
        <pt x="170" y="605" on="1"/>
        <pt x="170" y="372" on="1"/>
        <pt x="170" y="347" on="0"/>
        <pt x="146" y="314" on="0"/>
        <pt x="121" y="314" on="1"/>
        <pt x="121" y="308" on="1"/>
        <pt x="146" y="308" on="0"/>
        <pt x="170" y="275" on="0"/>
        <pt x="170" y="250" on="1"/>
        <pt x="170" y="17" on="1"/>
        <pt x="170" y="0" on="0"/>
      </contour>
    </TTGlyph>
    <TTGlyph name="braceright" xMin="15" yMin="-60" xMax="247" yMax="682">
      <contour>
        <pt x="15" y="0" on="1"/>
        <pt x="90" y="0" on="1"/>
        <pt x="107" y="0" on="0"/>
        <pt x="107" y="17" on="1"/>
        <pt x="107" y="250" on="1"/>
        <pt x="107" y="275" on="0"/>
        <pt x="131" y="308" on="0"/>
        <pt x="156" y="308" on="1"/>
        <pt x="156" y="314" on="1"/>
        <pt x="131" y="314" on="0"/>
        <pt x="107" y="347" on="0"/>
        <pt x="107" y="372" on="1"/>
        <pt x="107" y="605" on="1"/>
        <pt x="107" y="622" on="0"/>
        <pt x="90" y="622" on="1"/>
        <pt x="15" y="622" on="1"/>
        <pt x="15" y="682" on="1"/>
        <pt x="107" y="682" on="1"/>
        <pt x="137" y="682" on="0"/>
        <pt x="187" y="648" on="0"/>
        <pt x="187" y="602" on="1"/>
        <pt x="187" y="383" on="1"/>
        <pt x="187" y="359" on="0"/>
        <pt x="212" y="336" on="0"/>
        <pt x="247" y="336" on="1"/>
        <pt x="247" y="286" on="1"/>
        <pt x="212" y="286" on="0"/>
        <pt x="187" y="263" on="0"/>
        <pt x="187" y="239" on="1"/>
        <pt x="187" y="20" on="1"/>
        <pt x="187" y="-26" on="0"/>
        <pt x="137" y="-60" on="0"/>
        <pt x="107" y="-60" on="1"/>
        <pt x="15" y="-60" on="1"/>
      </contour>
    </TTGlyph>
    <TTGlyph name="bracketleft" xMin="90" yMin="-60" xMax="262" yMax="682">
      <contour>
        <pt x="261" y="0" on="1"/>
        <pt x="261" y="-60" on="1"/>
        <pt x="90" y="-60" on="1"/>
        <pt x="90" y="682" on="1"/>
        <pt x="170" y="682" on="1"/>
        <pt x="169" y="0" on="1"/>
      </contour>
      <contour>
        <pt x="262" y="682" on="1"/>
        <pt x="262" y="622" on="1"/>
        <pt x="170" y="622" on="1"/>
        <pt x="170" y="682" on="1"/>
      </contour>
    </TTGlyph>
    <TTGlyph name="bracketright" xMin="15" yMin="-60" xMax="187" yMax="682">
      <contour>
        <pt x="16" y="-60" on="1"/>
        <pt x="16" y="0" on="1"/>
        <pt x="108" y="0" on="1"/>
        <pt x="107" y="682" on="1"/>
        <pt x="187" y="682" on="1"/>
        <pt x="187" y="-60" on="1"/>
      </contour>
      <contour>
        <pt x="15" y="622" on="1"/>
        <pt x="15" y="682" on="1"/>
        <pt x="107" y="682" on="1"/>
        <pt x="107" y="622" on="1"/>
      </contour>
    </TTGlyph>
    <TTGlyph name="breve" xMin="30" yMin="571" xMax="274" yMax="694">
      <contour>
        <pt x="30" y="694" on="1"/>
        <pt x="92" y="694" on="1"/>
        <pt x="92" y="667" on="0"/>
        <pt x="123" y="632" on="0"/>
        <pt x="180" y="632" on="0"/>
        <pt x="212" y="668" on="0"/>
        <pt x="212" y="694" on="1"/>
        <pt x="274" y="694" on="1"/>
        <pt x="274" y="641" on="0"/>
        <pt x="210" y="571" on="0"/>
        <pt x="93" y="571" on="0"/>
        <pt x="30" y="641" on="0"/>
      </contour>
    </TTGlyph>
    <TTGlyph name="brokenbar" xMin="90" yMin="-76" xMax="182" yMax="700">
      <contour>
        <pt x="90" y="418" on="1"/>
        <pt x="90" y="700" on="1"/>
        <pt x="182" y="700" on="1"/>
        <pt x="182" y="418" on="1"/>
      </contour>
      <contour>
        <pt x="90" y="-76" on="1"/>
        <pt x="90" y="262" on="1"/>
        <pt x="182" y="262" on="1"/>
        <pt x="182" y="-76" on="1"/>
      </contour>
    </TTGlyph>
    <TTGlyph name="bullet" xMin="30" yMin="190" xMax="224" yMax="384">
      <contour>
        <pt x="30" y="245" on="0"/>
        <pt x="30" y="329" on="0"/>
        <pt x="80" y="384" on="0"/>
        <pt x="173" y="384" on="0"/>
        <pt x="224" y="329" on="0"/>
        <pt x="224" y="245" on="0"/>
        <pt x="173" y="190" on="0"/>
        <pt x="80" y="190" on="0"/>
      </contour>
    </TTGlyph>
    <TTGlyph name="c" xMin="45" yMin="-14" xMax="433" yMax="514">
      <contour>
        <pt x="433" y="48" on="1"/>
        <pt x="361" y="-14" on="0"/>
        <pt x="170" y="-14" on="0"/>
        <pt x="45" y="114" on="0"/>
        <pt x="45" y="359" on="0"/>
        <pt x="170" y="514" on="0"/>
        <pt x="281" y="514" on="1"/>
        <pt x="350" y="514" on="0"/>
        <pt x="409" y="478" on="1"/>
        <pt x="390" y="417" on="1"/>
        <pt x="337" y="446" on="0"/>
        <pt x="283" y="446" on="1"/>
        <pt x="209" y="446" on="0"/>
        <pt x="121" y="334" on="0"/>
        <pt x="121" y="147" on="0"/>
        <pt x="202" y="54" on="0"/>
        <pt x="265" y="54" on="1"/>
        <pt x="345" y="54" on="0"/>
        <pt x="403" y="102" on="1"/>
      </contour>
    </TTGlyph>
    <TTGlyph name="caron" xMin="30" yMin="537" xMax="312" yMax="727">
      <contour>
        <pt x="215" y="565" on="1"/>
        <pt x="195" y="537" on="0"/>
        <pt x="146" y="537" on="0"/>
        <pt x="127" y="565" on="1"/>
        <pt x="30" y="702" on="1"/>
        <pt x="54" y="727" on="1"/>
        <pt x="171" y="620" on="1"/>
        <pt x="288" y="727" on="1"/>
        <pt x="312" y="702" on="1"/>
      </contour>
    </TTGlyph>
    <TTGlyph name="ccedilla" xMin="45" yMin="-204" xMax="433" yMax="514">
      <contour>
        <pt x="215" y="-88" on="1"/>
        <pt x="191" y="-88" on="1"/>
        <pt x="208" y="-7" on="1"/>
        <pt x="135" y="10" on="0"/>
        <pt x="45" y="132" on="0"/>
        <pt x="45" y="234" on="1"/>
        <pt x="45" y="359" on="0"/>
        <pt x="170" y="514" on="0"/>
        <pt x="281" y="514" on="1"/>
        <pt x="350" y="514" on="0"/>
        <pt x="409" y="478" on="1"/>
        <pt x="390" y="417" on="1"/>
        <pt x="337" y="446" on="0"/>
        <pt x="283" y="446" on="1"/>
        <pt x="209" y="446" on="0"/>
        <pt x="121" y="334" on="0"/>
        <pt x="121" y="147" on="0"/>
        <pt x="202" y="54" on="0"/>
        <pt x="265" y="54" on="1"/>
        <pt x="345" y="54" on="0"/>
        <pt x="403" y="102" on="1"/>
        <pt x="433" y="48" on="1"/>
        <pt x="361" y="-14" on="0"/>
        <pt x="262" y="-14" on="1"/>
        <pt x="256" y="-14" on="1"/>
        <pt x="248" y="-50" on="1"/>
        <pt x="295" y="-50" on="0"/>
        <pt x="333" y="-96" on="0"/>
        <pt x="333" y="-157" on="0"/>
        <pt x="281" y="-204" on="0"/>
        <pt x="229" y="-204" on="1"/>
        <pt x="207" y="-204" on="0"/>
        <pt x="166" y="-190" on="0"/>
        <pt x="156" y="-184" on="1"/>
        <pt x="147" y="-177" on="1"/>
        <pt x="170" y="-136" on="1"/>
        <pt x="194" y="-153" on="0"/>
        <pt x="246" y="-153" on="0"/>
        <pt x="271" y="-133" on="0"/>
        <pt x="271" y="-118" on="1"/>
        <pt x="271" y="-88" on="0"/>
      </contour>
    </TTGlyph>
    <TTGlyph name="cedilla" xMin="95" yMin="-204" xMax="281" yMax="0">
      <contour>
        <pt x="163" y="-88" on="1"/>
        <pt x="139" y="-88" on="1"/>
        <pt x="158" y="0" on="1"/>
        <pt x="207" y="0" on="1"/>
        <pt x="196" y="-50" on="1"/>
        <pt x="243" y="-50" on="0"/>
        <pt x="281" y="-96" on="0"/>
        <pt x="281" y="-157" on="0"/>
        <pt x="229" y="-204" on="0"/>
        <pt x="177" y="-204" on="1"/>
        <pt x="155" y="-204" on="0"/>
        <pt x="114" y="-190" on="0"/>
        <pt x="104" y="-184" on="1"/>
        <pt x="95" y="-177" on="1"/>
        <pt x="118" y="-136" on="1"/>
        <pt x="142" y="-153" on="0"/>
        <pt x="194" y="-153" on="0"/>
        <pt x="219" y="-133" on="0"/>
        <pt x="219" y="-118" on="1"/>
        <pt x="219" y="-88" on="0"/>
      </contour>
    </TTGlyph>
    <TTGlyph name="cent" xMin="75" yMin="-85" xMax="476" yMax="705">
      <contour>
        <pt x="172" y="74" on="0"/>
        <pt x="75" y="199" on="0"/>
        <pt x="75" y="421" on="0"/>
        <pt x="185" y="572" on="0"/>
        <pt x="284" y="582" on="1"/>
        <pt x="293" y="705" on="1"/>
        <pt x="346" y="705" on="1"/>
        <pt x="337" y="583" on="1"/>
        <pt x="390" y="577" on="0"/>
        <pt x="439" y="548" on="1"/>
        <pt x="419" y="484" on="1"/>
        <pt x="375" y="507" on="0"/>
        <pt x="332" y="512" on="1"/>
        <pt x="306" y="127" on="1"/>
        <pt x="385" y="131" on="0"/>
        <pt x="439" y="181" on="1"/>
        <pt x="476" y="129" on="1"/>
        <pt x="403" y="59" on="0"/>
        <pt x="301" y="56" on="1"/>
        <pt x="291" y="-85" on="1"/>
        <pt x="238" y="-85" on="1"/>
        <pt x="248" y="60" on="1"/>
      </contour>
      <contour>
        <pt x="154" y="314" on="1"/>
        <pt x="154" y="163" on="0"/>
        <pt x="253" y="133" on="1"/>
        <pt x="279" y="509" on="1"/>
        <pt x="221" y="496" on="0"/>
        <pt x="154" y="391" on="0"/>
      </contour>
    </TTGlyph>
    <TTGlyph name="circumflex" xMin="30" yMin="537" xMax="312" yMax="727">
      <contour>
        <pt x="127" y="699" on="1"/>
        <pt x="146" y="727" on="0"/>
        <pt x="195" y="727" on="0"/>
        <pt x="215" y="699" on="1"/>
        <pt x="312" y="562" on="1"/>
        <pt x="288" y="537" on="1"/>
        <pt x="171" y="644" on="1"/>
        <pt x="54" y="537" on="1"/>
        <pt x="30" y="562" on="1"/>
      </contour>
    </TTGlyph>
    <TTGlyph name="colon" xMin="100" yMin="-14" xMax="210" yMax="456">
      <contour>
        <pt x="100" y="17" on="0"/>
        <pt x="100" y="65" on="0"/>
        <pt x="128" y="96" on="0"/>
        <pt x="181" y="96" on="0"/>
        <pt x="210" y="65" on="0"/>
        <pt x="210" y="17" on="0"/>
        <pt x="181" y="-14" on="0"/>
        <pt x="128" y="-14" on="0"/>
      </contour>
      <contour>
        <pt x="100" y="377" on="0"/>
        <pt x="100" y="425" on="0"/>
        <pt x="128" y="456" on="0"/>
        <pt x="181" y="456" on="0"/>
        <pt x="210" y="425" on="0"/>
        <pt x="210" y="377" on="0"/>
        <pt x="181" y="346" on="0"/>
        <pt x="128" y="346" on="0"/>
      </contour>
    </TTGlyph>
    <TTGlyph name="comma" xMin="33" yMin="-136" xMax="160" yMax="96">
      <contour>
        <pt x="108" y="96" on="1"/>
        <pt x="145" y="96" on="0"/>
        <pt x="160" y="73" on="1"/>
        <pt x="66" y="-136" on="1"/>
        <pt x="33" y="-126" on="1"/>
        <pt x="49" y="41" on="1"/>
        <pt x="55" y="96" on="0"/>
      </contour>
    </TTGlyph>
    <TTGlyph name="copyright" xMin="35" yMin="243" xMax="607" yMax="815">
      <contour>
        <pt x="35" y="406" on="0"/>
        <pt x="35" y="652" on="0"/>
        <pt x="183" y="815" on="0"/>
        <pt x="454" y="815" on="0"/>
        <pt x="607" y="650" on="0"/>
        <pt x="607" y="408" on="0"/>
        <pt x="454" y="243" on="0"/>
        <pt x="183" y="243" on="0"/>
      </contour>
      <contour>
        <pt x="85" y="631" on="0"/>
        <pt x="85" y="427" on="0"/>
        <pt x="207" y="291" on="0"/>
        <pt x="431" y="291" on="0"/>
        <pt x="557" y="428" on="0"/>
        <pt x="557" y="630" on="0"/>
        <pt x="431" y="767" on="0"/>
        <pt x="207" y="767" on="0"/>
      </contour>
      <contour>
        <pt x="435" y="390" on="1"/>
        <pt x="384" y="352" on="0"/>
        <pt x="262" y="352" on="0"/>
        <pt x="175" y="440" on="0"/>
        <pt x="175" y="608" on="0"/>
        <pt x="260" y="713" on="0"/>
        <pt x="336" y="713" on="1"/>
        <pt x="384" y="713" on="0"/>
        <pt x="425" y="687" on="1"/>
        <pt x="411" y="634" on="1"/>
        <pt x="373" y="660" on="0"/>
        <pt x="287" y="660" on="0"/>
        <pt x="231" y="584" on="0"/>
        <pt x="231" y="465" on="0"/>
        <pt x="286" y="405" on="0"/>
        <pt x="375" y="405" on="0"/>
        <pt x="410" y="433" on="1"/>
      </contour>
    </TTGlyph>
    <TTGlyph name="currency" xMin="41" yMin="92" xMax="477" yMax="528">
      <contour>
        <pt x="113" y="212" on="1"/>
        <pt x="87" y="255" on="0"/>
        <pt x="87" y="366" on="0"/>
        <pt x="112" y="407" on="1"/>
        <pt x="41" y="478" on="1"/>
        <pt x="90" y="527" on="1"/>
        <pt x="160" y="456" on="1"/>
        <pt x="202" y="482" on="0"/>
        <pt x="313" y="482" on="0"/>
        <pt x="355" y="456" on="1"/>
        <pt x="427" y="528" on="1"/>
        <pt x="476" y="479" on="1"/>
        <pt x="404" y="407" on="1"/>
        <pt x="431" y="365" on="0"/>
        <pt x="431" y="257" on="0"/>
        <pt x="405" y="214" on="1"/>
        <pt x="477" y="142" on="1"/>
        <pt x="428" y="93" on="1"/>
        <pt x="356" y="164" on="1"/>
        <pt x="314" y="138" on="0"/>
        <pt x="201" y="138" on="0"/>
        <pt x="162" y="163" on="1"/>
        <pt x="91" y="92" on="1"/>
        <pt x="42" y="141" on="1"/>
      </contour>
      <contour>
        <pt x="151" y="357" on="0"/>
        <pt x="151" y="263" on="0"/>
        <pt x="207" y="202" on="0"/>
        <pt x="310" y="202" on="0"/>
        <pt x="367" y="264" on="0"/>
        <pt x="367" y="356" on="0"/>
        <pt x="310" y="418" on="0"/>
        <pt x="207" y="418" on="0"/>
      </contour>
    </TTGlyph>
    <TTGlyph name="d" xMin="45" yMin="-14" xMax="484" yMax="700">
      <contour>
        <pt x="241" y="-14" on="1"/>
        <pt x="155" y="-14" on="0"/>
        <pt x="45" y="116" on="0"/>
        <pt x="45" y="361" on="0"/>
        <pt x="184" y="514" on="0"/>
        <pt x="291" y="514" on="1"/>
        <pt x="344" y="514" on="0"/>
        <pt x="398" y="495" on="1"/>
        <pt x="398" y="700" on="1"/>
        <pt x="474" y="700" on="1"/>
        <pt x="474" y="100" on="1"/>
        <pt x="484" y="0" on="1"/>
        <pt x="418" y="-5" on="1"/>
        <pt x="401" y="85" on="1"/>
        <pt x="345" y="-14" on="0"/>
      </contour>
      <contour>
        <pt x="121" y="150" on="0"/>
        <pt x="197" y="54" on="0"/>
        <pt x="316" y="54" on="0"/>
        <pt x="398" y="173" on="0"/>
        <pt x="398" y="282" on="1"/>
        <pt x="398" y="421" on="1"/>
        <pt x="348" y="446" on="0"/>
        <pt x="291" y="446" on="1"/>
        <pt x="217" y="446" on="0"/>
        <pt x="121" y="331" on="0"/>
      </contour>
    </TTGlyph>
    <TTGlyph name="dagger" xMin="53" yMin="-227" xMax="388" yMax="680">
      <contour>
        <pt x="53" y="533" on="1"/>
        <pt x="189" y="533" on="1"/>
        <pt x="176" y="680" on="1"/>
        <pt x="265" y="680" on="1"/>
        <pt x="252" y="533" on="1"/>
        <pt x="388" y="533" on="1"/>
        <pt x="388" y="448" on="1"/>
        <pt x="227" y="484" on="1"/>
        <pt x="213" y="484" on="1"/>
        <pt x="53" y="448" on="1"/>
      </contour>
      <contour>
        <pt x="180" y="-75" on="1"/>
        <pt x="180" y="369" on="1"/>
        <pt x="213" y="465" on="1"/>
        <pt x="227" y="465" on="1"/>
        <pt x="261" y="369" on="1"/>
        <pt x="261" y="-75" on="1"/>
        <pt x="227" y="-227" on="1"/>
        <pt x="213" y="-227" on="1"/>
      </contour>
    </TTGlyph>
    <TTGlyph name="daggerdbl" xMin="53" yMin="-227" xMax="388" yMax="680">
      <contour>
        <pt x="53" y="533" on="1"/>
        <pt x="189" y="533" on="1"/>
        <pt x="176" y="680" on="1"/>
        <pt x="265" y="680" on="1"/>
        <pt x="252" y="533" on="1"/>
        <pt x="388" y="533" on="1"/>
        <pt x="388" y="448" on="1"/>
        <pt x="227" y="484" on="1"/>
        <pt x="213" y="484" on="1"/>
        <pt x="53" y="448" on="1"/>
      </contour>
      <contour>
        <pt x="388" y="-80" on="1"/>
        <pt x="252" y="-80" on="1"/>
        <pt x="265" y="-227" on="1"/>
        <pt x="176" y="-227" on="1"/>
        <pt x="189" y="-80" on="1"/>
        <pt x="53" y="-80" on="1"/>
        <pt x="53" y="5" on="1"/>
        <pt x="213" y="-31" on="1"/>
        <pt x="228" y="-31" on="1"/>
        <pt x="388" y="5" on="1"/>
      </contour>
      <contour>
        <pt x="261" y="84" on="1"/>
        <pt x="227" y="-12" on="1"/>
        <pt x="213" y="-12" on="1"/>
        <pt x="180" y="84" on="1"/>
        <pt x="180" y="369" on="1"/>
        <pt x="213" y="465" on="1"/>
        <pt x="227" y="465" on="1"/>
        <pt x="261" y="369" on="1"/>
      </contour>
    </TTGlyph>
    <TTGlyph name="degree" xMin="10" yMin="439" xMax="242" yMax="671">
      <contour>
        <pt x="10" y="505" on="0"/>
        <pt x="10" y="605" on="0"/>
        <pt x="70" y="671" on="0"/>
        <pt x="181" y="671" on="0"/>
        <pt x="242" y="605" on="0"/>
        <pt x="242" y="505" on="0"/>
        <pt x="181" y="439" on="0"/>
        <pt x="70" y="439" on="0"/>
      </contour>
      <contour>
        <pt x="99" y="495" on="0"/>
        <pt x="151" y="495" on="0"/>
        <pt x="185" y="526" on="0"/>
        <pt x="185" y="583" on="0"/>
        <pt x="150" y="614" on="0"/>
        <pt x="100" y="614" on="0"/>
        <pt x="66" y="583" on="0"/>
        <pt x="66" y="526" on="0"/>
      </contour>
    </TTGlyph>
    <TTGlyph name="dieresis" xMin="48" yMin="596" xMax="322" yMax="692">
      <contour>
        <pt x="226" y="623" on="0"/>
        <pt x="226" y="665" on="0"/>
        <pt x="250" y="692" on="0"/>
        <pt x="296" y="692" on="0"/>
        <pt x="322" y="664" on="0"/>
        <pt x="322" y="624" on="0"/>
        <pt x="296" y="596" on="0"/>
        <pt x="250" y="596" on="0"/>
      </contour>
      <contour>
        <pt x="48" y="623" on="0"/>
        <pt x="48" y="665" on="0"/>
        <pt x="72" y="692" on="0"/>
        <pt x="118" y="692" on="0"/>
        <pt x="144" y="664" on="0"/>
        <pt x="144" y="624" on="0"/>
        <pt x="118" y="596" on="0"/>
        <pt x="72" y="596" on="0"/>
      </contour>
    </TTGlyph>
    <TTGlyph name="divide" xMin="47" yMin="113" xMax="471" yMax="509">
      <contour>
        <pt x="203" y="429" on="0"/>
        <pt x="203" y="477" on="0"/>
        <pt x="232" y="509" on="0"/>
        <pt x="286" y="509" on="0"/>
        <pt x="315" y="477" on="0"/>
        <pt x="315" y="429" on="0"/>
        <pt x="286" y="397" on="0"/>
        <pt x="232" y="397" on="0"/>
      </contour>
      <contour>
        <pt x="47" y="275" on="1"/>
        <pt x="47" y="347" on="1"/>
        <pt x="471" y="347" on="1"/>
        <pt x="471" y="275" on="1"/>
      </contour>
      <contour>
        <pt x="203" y="145" on="0"/>
        <pt x="203" y="193" on="0"/>
        <pt x="232" y="225" on="0"/>
        <pt x="286" y="225" on="0"/>
        <pt x="315" y="193" on="0"/>
        <pt x="315" y="145" on="0"/>
        <pt x="286" y="113" on="0"/>
        <pt x="232" y="113" on="0"/>
      </contour>
    </TTGlyph>
    <TTGlyph name="dollar" xMin="61" yMin="-85" xMax="456" yMax="705">
      <contour>
        <pt x="75" y="465" on="1"/>
        <pt x="75" y="536" on="0"/>
        <pt x="167" y="631" on="0"/>
        <pt x="258" y="635" on="1"/>
        <pt x="263" y="705" on="1"/>
        <pt x="316" y="705" on="1"/>
        <pt x="311" y="634" on="1"/>
        <pt x="380" y="626" on="0"/>
        <pt x="438" y="589" on="1"/>
        <pt x="406" y="527" on="1"/>
        <pt x="356" y="557" on="0"/>
        <pt x="306" y="563" on="1"/>
        <pt x="291" y="351" on="1"/>
        <pt x="336" y="337" on="1"/>
        <pt x="396" y="318" on="0"/>
        <pt x="456" y="232" on="0"/>
        <pt x="456" y="104" on="0"/>
        <pt x="355" y="-5" on="0"/>
        <pt x="266" y="-14" on="1"/>
        <pt x="261" y="-85" on="1"/>
        <pt x="208" y="-85" on="1"/>
        <pt x="213" y="-15" on="1"/>
        <pt x="116" y="-11" on="0"/>
        <pt x="61" y="27" on="1"/>
        <pt x="94" y="87" on="1"/>
        <pt x="138" y="58" on="0"/>
        <pt x="218" y="55" on="1"/>
        <pt x="234" y="291" on="1"/>
        <pt x="185" y="307" on="1"/>
        <pt x="126" y="326" on="0"/>
        <pt x="75" y="417" on="0"/>
      </contour>
      <contour>
        <pt x="381" y="172" on="1"/>
        <pt x="381" y="243" on="0"/>
        <pt x="306" y="268" on="1"/>
        <pt x="286" y="274" on="1"/>
        <pt x="271" y="58" on="1"/>
        <pt x="323" y="67" on="0"/>
        <pt x="381" y="131" on="0"/>
      </contour>
      <contour>
        <pt x="149" y="468" on="1"/>
        <pt x="149" y="396" on="0"/>
        <pt x="220" y="374" on="1"/>
        <pt x="240" y="367" on="1"/>
        <pt x="253" y="564" on="1"/>
        <pt x="202" y="559" on="0"/>
        <pt x="149" y="505" on="0"/>
      </contour>
    </TTGlyph>
    <TTGlyph name="dotaccent" xMin="30" yMin="586" xMax="146" yMax="702">
      <contour>
        <pt x="30" y="619" on="0"/>
        <pt x="30" y="669" on="0"/>
        <pt x="60" y="702" on="0"/>
        <pt x="115" y="702" on="0"/>
        <pt x="146" y="668" on="0"/>
        <pt x="146" y="620" on="0"/>
        <pt x="115" y="586" on="0"/>
        <pt x="60" y="586" on="0"/>
      </contour>
    </TTGlyph>
    <TTGlyph name="dotlessi" xMin="90" yMin="0" xMax="166" yMax="500">
      <contour>
        <pt x="90" y="0" on="1"/>
        <pt x="90" y="500" on="1"/>
        <pt x="166" y="500" on="1"/>
        <pt x="166" y="0" on="1"/>
      </contour>
    </TTGlyph>
    <TTGlyph name="e" xMin="45" yMin="-14" xMax="449" yMax="514">
      <contour>
        <pt x="252" y="-14" on="1"/>
        <pt x="162" y="-14" on="0"/>
        <pt x="45" y="112" on="0"/>
        <pt x="45" y="356" on="0"/>
        <pt x="183" y="514" on="0"/>
        <pt x="293" y="514" on="1"/>
        <pt x="363" y="514" on="0"/>
        <pt x="449" y="429" on="0"/>
        <pt x="449" y="302" on="0"/>
        <pt x="318" y="196" on="0"/>
        <pt x="193" y="196" on="1"/>
        <pt x="160" y="196" on="0"/>
        <pt x="123" y="199" on="1"/>
        <pt x="130" y="128" on="0"/>
        <pt x="203" y="54" on="0"/>
        <pt x="255" y="54" on="1"/>
        <pt x="342" y="54" on="0"/>
        <pt x="400" y="108" on="1"/>
        <pt x="436" y="59" on="1"/>
        <pt x="360" y="-14" on="0"/>
      </contour>
      <contour>
        <pt x="290" y="446" on="1"/>
        <pt x="221" y="446" on="0"/>
        <pt x="130" y="348" on="0"/>
        <pt x="122" y="267" on="1"/>
        <pt x="155" y="262" on="0"/>
        <pt x="195" y="262" on="1"/>
        <pt x="281" y="262" on="0"/>
        <pt x="373" y="326" on="0"/>
        <pt x="373" y="368" on="1"/>
        <pt x="373" y="399" on="0"/>
        <pt x="328" y="446" on="0"/>
      </contour>
    </TTGlyph>
    <TTGlyph name="eacute" xMin="45" yMin="-14" xMax="449" yMax="735">
      <contour>
        <pt x="252" y="-14" on="1"/>
        <pt x="162" y="-14" on="0"/>
        <pt x="45" y="112" on="0"/>
        <pt x="45" y="356" on="0"/>
        <pt x="183" y="514" on="0"/>
        <pt x="293" y="514" on="1"/>
        <pt x="363" y="514" on="0"/>
        <pt x="449" y="429" on="0"/>
        <pt x="449" y="302" on="0"/>
        <pt x="318" y="196" on="0"/>
        <pt x="193" y="196" on="1"/>
        <pt x="160" y="196" on="0"/>
        <pt x="123" y="199" on="1"/>
        <pt x="130" y="128" on="0"/>
        <pt x="203" y="54" on="0"/>
        <pt x="255" y="54" on="1"/>
        <pt x="342" y="54" on="0"/>
        <pt x="400" y="108" on="1"/>
        <pt x="436" y="59" on="1"/>
        <pt x="360" y="-14" on="0"/>
      </contour>
      <contour>
        <pt x="290" y="446" on="1"/>
        <pt x="221" y="446" on="0"/>
        <pt x="130" y="348" on="0"/>
        <pt x="122" y="267" on="1"/>
        <pt x="155" y="262" on="0"/>
        <pt x="195" y="262" on="1"/>
        <pt x="281" y="262" on="0"/>
        <pt x="373" y="326" on="0"/>
        <pt x="373" y="368" on="1"/>
        <pt x="373" y="399" on="0"/>
        <pt x="328" y="446" on="0"/>
      </contour>
      <contour>
        <pt x="339" y="735" on="1"/>
        <pt x="371" y="735" on="0"/>
        <pt x="389" y="682" on="1"/>
        <pt x="209" y="535" on="1"/>
        <pt x="185" y="560" on="1"/>
        <pt x="287" y="700" on="1"/>
        <pt x="313" y="735" on="0"/>
      </contour>
    </TTGlyph>
    <TTGlyph name="ecircumflex" xMin="45" yMin="-14" xMax="449" yMax="727">
      <contour>
        <pt x="252" y="-14" on="1"/>
        <pt x="162" y="-14" on="0"/>
        <pt x="45" y="112" on="0"/>
        <pt x="45" y="356" on="0"/>
        <pt x="183" y="514" on="0"/>
        <pt x="293" y="514" on="1"/>
        <pt x="363" y="514" on="0"/>
        <pt x="449" y="429" on="0"/>
        <pt x="449" y="302" on="0"/>
        <pt x="318" y="196" on="0"/>
        <pt x="193" y="196" on="1"/>
        <pt x="160" y="196" on="0"/>
        <pt x="123" y="199" on="1"/>
        <pt x="130" y="128" on="0"/>
        <pt x="203" y="54" on="0"/>
        <pt x="255" y="54" on="1"/>
        <pt x="342" y="54" on="0"/>
        <pt x="400" y="108" on="1"/>
        <pt x="436" y="59" on="1"/>
        <pt x="360" y="-14" on="0"/>
      </contour>
      <contour>
        <pt x="290" y="446" on="1"/>
        <pt x="221" y="446" on="0"/>
        <pt x="130" y="348" on="0"/>
        <pt x="122" y="267" on="1"/>
        <pt x="155" y="262" on="0"/>
        <pt x="195" y="262" on="1"/>
        <pt x="281" y="262" on="0"/>
        <pt x="373" y="326" on="0"/>
        <pt x="373" y="368" on="1"/>
        <pt x="373" y="399" on="0"/>
        <pt x="328" y="446" on="0"/>
      </contour>
      <contour>
        <pt x="221" y="699" on="1"/>
        <pt x="240" y="727" on="0"/>
        <pt x="289" y="727" on="0"/>
        <pt x="309" y="699" on="1"/>
        <pt x="406" y="562" on="1"/>
        <pt x="382" y="537" on="1"/>
        <pt x="265" y="644" on="1"/>
        <pt x="148" y="537" on="1"/>
        <pt x="124" y="562" on="1"/>
      </contour>
    </TTGlyph>
    <TTGlyph name="edieresis" xMin="45" yMin="-14" xMax="449" yMax="692">
      <contour>
        <pt x="252" y="-14" on="1"/>
        <pt x="162" y="-14" on="0"/>
        <pt x="45" y="112" on="0"/>
        <pt x="45" y="356" on="0"/>
        <pt x="183" y="514" on="0"/>
        <pt x="293" y="514" on="1"/>
        <pt x="363" y="514" on="0"/>
        <pt x="449" y="429" on="0"/>
        <pt x="449" y="302" on="0"/>
        <pt x="318" y="196" on="0"/>
        <pt x="193" y="196" on="1"/>
        <pt x="160" y="196" on="0"/>
        <pt x="123" y="199" on="1"/>
        <pt x="130" y="128" on="0"/>
        <pt x="203" y="54" on="0"/>
        <pt x="255" y="54" on="1"/>
        <pt x="342" y="54" on="0"/>
        <pt x="400" y="108" on="1"/>
        <pt x="436" y="59" on="1"/>
        <pt x="360" y="-14" on="0"/>
      </contour>
      <contour>
        <pt x="290" y="446" on="1"/>
        <pt x="221" y="446" on="0"/>
        <pt x="130" y="348" on="0"/>
        <pt x="122" y="267" on="1"/>
        <pt x="155" y="262" on="0"/>
        <pt x="195" y="262" on="1"/>
        <pt x="281" y="262" on="0"/>
        <pt x="373" y="326" on="0"/>
        <pt x="373" y="368" on="1"/>
        <pt x="373" y="399" on="0"/>
        <pt x="328" y="446" on="0"/>
      </contour>
      <contour>
        <pt x="307" y="623" on="0"/>
        <pt x="307" y="665" on="0"/>
        <pt x="331" y="692" on="0"/>
        <pt x="377" y="692" on="0"/>
        <pt x="403" y="664" on="0"/>
        <pt x="403" y="624" on="0"/>
        <pt x="377" y="596" on="0"/>
        <pt x="331" y="596" on="0"/>
      </contour>
      <contour>
        <pt x="129" y="623" on="0"/>
        <pt x="129" y="665" on="0"/>
        <pt x="153" y="692" on="0"/>
        <pt x="199" y="692" on="0"/>
        <pt x="225" y="664" on="0"/>
        <pt x="225" y="624" on="0"/>
        <pt x="199" y="596" on="0"/>
        <pt x="153" y="596" on="0"/>
      </contour>
    </TTGlyph>
    <TTGlyph name="egrave" xMin="45" yMin="-14" xMax="449" yMax="735">
      <contour>
        <pt x="252" y="-14" on="1"/>
        <pt x="162" y="-14" on="0"/>
        <pt x="45" y="112" on="0"/>
        <pt x="45" y="356" on="0"/>
        <pt x="183" y="514" on="0"/>
        <pt x="293" y="514" on="1"/>
        <pt x="363" y="514" on="0"/>
        <pt x="449" y="429" on="0"/>
        <pt x="449" y="302" on="0"/>
        <pt x="318" y="196" on="0"/>
        <pt x="193" y="196" on="1"/>
        <pt x="160" y="196" on="0"/>
        <pt x="123" y="199" on="1"/>
        <pt x="130" y="128" on="0"/>
        <pt x="203" y="54" on="0"/>
        <pt x="255" y="54" on="1"/>
        <pt x="342" y="54" on="0"/>
        <pt x="400" y="108" on="1"/>
        <pt x="436" y="59" on="1"/>
        <pt x="360" y="-14" on="0"/>
      </contour>
      <contour>
        <pt x="290" y="446" on="1"/>
        <pt x="221" y="446" on="0"/>
        <pt x="130" y="348" on="0"/>
        <pt x="122" y="267" on="1"/>
        <pt x="155" y="262" on="0"/>
        <pt x="195" y="262" on="1"/>
        <pt x="281" y="262" on="0"/>
        <pt x="373" y="326" on="0"/>
        <pt x="373" y="368" on="1"/>
        <pt x="373" y="399" on="0"/>
        <pt x="328" y="446" on="0"/>
      </contour>
      <contour>
        <pt x="179" y="735" on="1"/>
        <pt x="205" y="735" on="0"/>
        <pt x="231" y="700" on="1"/>
        <pt x="333" y="560" on="1"/>
        <pt x="309" y="535" on="1"/>
        <pt x="129" y="682" on="1"/>
        <pt x="147" y="735" on="0"/>
      </contour>
    </TTGlyph>
    <TTGlyph name="eight" xMin="43" yMin="-16" xMax="475" yMax="636">
      <contour>
        <pt x="43" y="163" on="1"/>
        <pt x="43" y="277" on="0"/>
        <pt x="153" y="329" on="1"/>
        <pt x="66" y="378" on="0"/>
        <pt x="66" y="464" on="1"/>
        <pt x="66" y="538" on="0"/>
        <pt x="166" y="636" on="0"/>
        <pt x="352" y="636" on="0"/>
        <pt x="452" y="539" on="0"/>
        <pt x="452" y="379" on="0"/>
        <pt x="367" y="327" on="1"/>
        <pt x="475" y="279" on="0"/>
        <pt x="475" y="163" on="1"/>
        <pt x="475" y="90" on="0"/>
        <pt x="360" y="-16" on="0"/>
        <pt x="158" y="-16" on="0"/>
        <pt x="43" y="90" on="0"/>
      </contour>
      <contour>
        <pt x="119" y="163" on="1"/>
        <pt x="119" y="118" on="0"/>
        <pt x="193" y="55" on="0"/>
        <pt x="325" y="55" on="0"/>
        <pt x="399" y="118" on="0"/>
        <pt x="399" y="215" on="0"/>
        <pt x="331" y="271" on="0"/>
        <pt x="256" y="290" on="1"/>
        <pt x="233" y="295" on="0"/>
        <pt x="219" y="300" on="1"/>
        <pt x="119" y="247" on="0"/>
      </contour>
      <contour>
        <pt x="142" y="508" on="0"/>
        <pt x="142" y="424" on="0"/>
        <pt x="208" y="372" on="0"/>
        <pt x="291" y="351" on="1"/>
        <pt x="376" y="396" on="0"/>
        <pt x="376" y="469" on="1"/>
        <pt x="376" y="510" on="0"/>
        <pt x="316" y="565" on="0"/>
        <pt x="203" y="565" on="0"/>
      </contour>
    </TTGlyph>
    <TTGlyph name="ellipsis" xMin="50" yMin="-14" xMax="580" yMax="96">
      <contour>
        <pt x="50" y="17" on="0"/>
        <pt x="50" y="65" on="0"/>
        <pt x="78" y="96" on="0"/>
        <pt x="131" y="96" on="0"/>
        <pt x="160" y="65" on="0"/>
        <pt x="160" y="17" on="0"/>
        <pt x="131" y="-14" on="0"/>
        <pt x="78" y="-14" on="0"/>
      </contour>
      <contour>
        <pt x="260" y="17" on="0"/>
        <pt x="260" y="65" on="0"/>
        <pt x="288" y="96" on="0"/>
        <pt x="341" y="96" on="0"/>
        <pt x="370" y="65" on="0"/>
        <pt x="370" y="17" on="0"/>
        <pt x="341" y="-14" on="0"/>
        <pt x="288" y="-14" on="0"/>
      </contour>
      <contour>
        <pt x="470" y="17" on="0"/>
        <pt x="470" y="65" on="0"/>
        <pt x="498" y="96" on="0"/>
        <pt x="551" y="96" on="0"/>
        <pt x="580" y="65" on="0"/>
        <pt x="580" y="17" on="0"/>
        <pt x="551" y="-14" on="0"/>
        <pt x="498" y="-14" on="0"/>
      </contour>
    </TTGlyph>
    <TTGlyph name="emdash" xMin="50" yMin="220" xMax="836" yMax="292">
      <contour>
        <pt x="836" y="220" on="1"/>
        <pt x="50" y="220" on="1"/>
        <pt x="50" y="292" on="1"/>
        <pt x="836" y="292" on="1"/>
      </contour>
    </TTGlyph>
    <TTGlyph name="endash" xMin="50" yMin="220" xMax="574" yMax="292">
      <contour>
        <pt x="574" y="220" on="1"/>
        <pt x="50" y="220" on="1"/>
        <pt x="50" y="292" on="1"/>
        <pt x="574" y="292" on="1"/>
      </contour>
    </TTGlyph>
    <TTGlyph name="equal" xMin="47" yMin="185" xMax="471" yMax="437">
      <contour>
        <pt x="471" y="437" on="1"/>
        <pt x="471" y="365" on="1"/>
        <pt x="47" y="365" on="1"/>
        <pt x="47" y="437" on="1"/>
      </contour>
      <contour>
        <pt x="47" y="185" on="1"/>
        <pt x="47" y="257" on="1"/>
        <pt x="471" y="257" on="1"/>
        <pt x="471" y="185" on="1"/>
      </contour>
    </TTGlyph>
    <TTGlyph name="eth" xMin="57" yMin="-14" xMax="489" yMax="727">
      <contour>
        <pt x="489" y="291" on="1"/>
        <pt x="489" y="159" on="0"/>
        <pt x="371" y="-14" on="0"/>
        <pt x="176" y="-14" on="0"/>
        <pt x="57" y="111" on="0"/>
        <pt x="57" y="333" on="0"/>
        <pt x="197" y="474" on="0"/>
        <pt x="287" y="474" on="1"/>
        <pt x="344" y="474" on="0"/>
        <pt x="390" y="450" on="1"/>
        <pt x="360" y="531" on="0"/>
        <pt x="297" y="584" on="1"/>
        <pt x="213" y="524" on="1"/>
        <pt x="180" y="568" on="1"/>
        <pt x="250" y="618" on="1"/>
        <pt x="188" y="654" on="0"/>
        <pt x="111" y="662" on="1"/>
        <pt x="119" y="722" on="1"/>
        <pt x="225" y="708" on="0"/>
        <pt x="306" y="658" on="1"/>
        <pt x="403" y="727" on="1"/>
        <pt x="435" y="683" on="1"/>
        <pt x="352" y="624" on="1"/>
        <pt x="423" y="562" on="0"/>
        <pt x="489" y="384" on="0"/>
      </contour>
      <contour>
        <pt x="417" y="291" on="1"/>
        <pt x="417" y="332" on="0"/>
        <pt x="411" y="369" on="1"/>
        <pt x="362" y="408" on="0"/>
        <pt x="233" y="408" on="0"/>
        <pt x="133" y="303" on="0"/>
        <pt x="133" y="138" on="0"/>
        <pt x="209" y="52" on="0"/>
        <pt x="333" y="52" on="0"/>
        <pt x="417" y="174" on="0"/>
      </contour>
    </TTGlyph>
    <TTGlyph name="exclam" xMin="80" yMin="-14" xMax="190" yMax="660">
      <contour>
        <pt x="102" y="180" on="1"/>
        <pt x="92" y="660" on="1"/>
        <pt x="178" y="660" on="1"/>
        <pt x="168" y="180" on="1"/>
      </contour>
      <contour>
        <pt x="80" y="17" on="0"/>
        <pt x="80" y="65" on="0"/>
        <pt x="108" y="96" on="0"/>
        <pt x="161" y="96" on="0"/>
        <pt x="190" y="65" on="0"/>
        <pt x="190" y="17" on="0"/>
        <pt x="161" y="-14" on="0"/>
        <pt x="108" y="-14" on="0"/>
      </contour>
    </TTGlyph>
    <TTGlyph name="exclamdown" xMin="80" yMin="-161" xMax="190" yMax="513">
      <contour>
        <pt x="80" y="434" on="0"/>
        <pt x="80" y="482" on="0"/>
        <pt x="108" y="513" on="0"/>
        <pt x="161" y="513" on="0"/>
        <pt x="190" y="482" on="0"/>
        <pt x="190" y="434" on="0"/>
        <pt x="161" y="403" on="0"/>
        <pt x="108" y="403" on="0"/>
      </contour>
      <contour>
        <pt x="92" y="-161" on="1"/>
        <pt x="102" y="319" on="1"/>
        <pt x="168" y="319" on="1"/>
        <pt x="178" y="-161" on="1"/>
      </contour>
    </TTGlyph>
    <TTGlyph name="f" xMin="40" yMin="-160" xMax="353" yMax="714">
      <contour>
        <pt x="40" y="435" on="1"/>
        <pt x="40" y="500" on="1"/>
        <pt x="105" y="500" on="1"/>
        <pt x="105" y="551" on="1"/>
        <pt x="105" y="636" on="0"/>
        <pt x="176" y="714" on="0"/>
        <pt x="291" y="714" on="0"/>
        <pt x="353" y="674" on="1"/>
        <pt x="323" y="620" on="1"/>
        <pt x="271" y="643" on="0"/>
        <pt x="242" y="643" on="1"/>
        <pt x="181" y="643" on="0"/>
        <pt x="181" y="555" on="1"/>
        <pt x="181" y="500" on="1"/>
        <pt x="296" y="500" on="1"/>
        <pt x="296" y="435" on="1"/>
        <pt x="181" y="435" on="1"/>
        <pt x="181" y="-160" on="1"/>
        <pt x="105" y="-160" on="1"/>
        <pt x="105" y="435" on="1"/>
      </contour>
    </TTGlyph>
    <TTGlyph name="fi" xMin="40" yMin="-160" xMax="444" yMax="714">
      <contour>
        <pt x="40" y="435" on="1"/>
        <pt x="40" y="500" on="1"/>
        <pt x="105" y="500" on="1"/>
        <pt x="105" y="551" on="1"/>
        <pt x="105" y="636" on="0"/>
        <pt x="176" y="714" on="0"/>
        <pt x="291" y="714" on="0"/>
        <pt x="353" y="674" on="1"/>
        <pt x="323" y="620" on="1"/>
        <pt x="271" y="643" on="0"/>
        <pt x="242" y="643" on="1"/>
        <pt x="181" y="643" on="0"/>
        <pt x="181" y="555" on="1"/>
        <pt x="181" y="500" on="1"/>
        <pt x="444" y="500" on="1"/>
        <pt x="444" y="0" on="1"/>
        <pt x="368" y="0" on="1"/>
        <pt x="368" y="435" on="1"/>
        <pt x="181" y="435" on="1"/>
        <pt x="181" y="-160" on="1"/>
        <pt x="105" y="-160" on="1"/>
        <pt x="105" y="435" on="1"/>
      </contour>
    </TTGlyph>
    <TTGlyph name="five" xMin="54" yMin="-16" xMax="449" yMax="620">
      <contour>
        <pt x="421" y="620" on="1"/>
        <pt x="421" y="548" on="1"/>
        <pt x="181" y="548" on="1"/>
        <pt x="173" y="361" on="1"/>
        <pt x="243" y="361" on="1"/>
        <pt x="348" y="361" on="0"/>
        <pt x="449" y="259" on="0"/>
        <pt x="449" y="97" on="0"/>
        <pt x="330" y="-16" on="0"/>
        <pt x="117" y="-16" on="0"/>
        <pt x="54" y="27" on="1"/>
        <pt x="87" y="87" on="1"/>
        <pt x="136" y="55" on="0"/>
        <pt x="295" y="55" on="0"/>
        <pt x="373" y="125" on="0"/>
        <pt x="373" y="223" on="0"/>
        <pt x="309" y="290" on="0"/>
        <pt x="243" y="290" on="1"/>
        <pt x="96" y="290" on="1"/>
        <pt x="109" y="620" on="1"/>
      </contour>
    </TTGlyph>
    <TTGlyph name="fl" xMin="40" yMin="-160" xMax="596" yMax="714">
      <contour>
        <pt x="40" y="435" on="1"/>
        <pt x="40" y="500" on="1"/>
        <pt x="105" y="500" on="1"/>
        <pt x="105" y="551" on="1"/>
        <pt x="105" y="636" on="0"/>
        <pt x="176" y="714" on="0"/>
        <pt x="291" y="714" on="0"/>
        <pt x="353" y="674" on="1"/>
        <pt x="323" y="620" on="1"/>
        <pt x="271" y="643" on="0"/>
        <pt x="242" y="643" on="1"/>
        <pt x="181" y="643" on="0"/>
        <pt x="181" y="555" on="1"/>
        <pt x="181" y="500" on="1"/>
        <pt x="296" y="500" on="1"/>
        <pt x="296" y="435" on="1"/>
        <pt x="181" y="435" on="1"/>
        <pt x="181" y="-160" on="1"/>
        <pt x="105" y="-160" on="1"/>
        <pt x="105" y="435" on="1"/>
      </contour>
      <contour>
        <pt x="388" y="700" on="1"/>
        <pt x="464" y="700" on="1"/>
        <pt x="464" y="110" on="1"/>
        <pt x="464" y="55" on="0"/>
        <pt x="509" y="55" on="1"/>
        <pt x="538" y="55" on="0"/>
        <pt x="566" y="75" on="1"/>
        <pt x="596" y="21" on="1"/>
        <pt x="541" y="-14" on="0"/>
        <pt x="443" y="-14" on="0"/>
        <pt x="388" y="40" on="0"/>
        <pt x="388" y="110" on="1"/>
      </contour>
    </TTGlyph>
    <TTGlyph name="florin" xMin="18" yMin="-176" xMax="470" yMax="636">
      <contour>
        <pt x="55" y="268" on="1"/>
        <pt x="55" y="333" on="1"/>
        <pt x="190" y="333" on="1"/>
        <pt x="190" y="352" on="1"/>
        <pt x="190" y="499" on="0"/>
        <pt x="307" y="636" on="0"/>
        <pt x="408" y="636" on="1"/>
        <pt x="438" y="636" on="0"/>
        <pt x="470" y="631" on="1"/>
        <pt x="455" y="566" on="1"/>
        <pt x="427" y="571" on="0"/>
        <pt x="400" y="571" on="1"/>
        <pt x="261" y="571" on="0"/>
        <pt x="261" y="352" on="1"/>
        <pt x="261" y="333" on="1"/>
        <pt x="398" y="333" on="1"/>
        <pt x="398" y="268" on="1"/>
        <pt x="261" y="268" on="1"/>
        <pt x="261" y="-13" on="1"/>
        <pt x="261" y="-176" on="0"/>
        <pt x="137" y="-176" on="1"/>
        <pt x="80" y="-176" on="0"/>
        <pt x="18" y="-136" on="1"/>
        <pt x="48" y="-82" on="1"/>
        <pt x="100" y="-105" on="0"/>
        <pt x="129" y="-105" on="1"/>
        <pt x="190" y="-105" on="0"/>
        <pt x="190" y="-17" on="1"/>
        <pt x="190" y="268" on="1"/>
      </contour>
    </TTGlyph>
    <TTGlyph name="four" xMin="33" yMin="0" xMax="463" yMax="620">
      <contour>
        <pt x="332" y="0" on="1"/>
        <pt x="332" y="142" on="1"/>
        <pt x="33" y="142" on="1"/>
        <pt x="33" y="183" on="1"/>
        <pt x="211" y="620" on="1"/>
        <pt x="296" y="620" on="1"/>
        <pt x="130" y="214" on="1"/>
        <pt x="332" y="214" on="1"/>
        <pt x="332" y="450" on="1"/>
        <pt x="410" y="450" on="1"/>
        <pt x="410" y="214" on="1"/>
        <pt x="463" y="214" on="1"/>
        <pt x="463" y="142" on="1"/>
        <pt x="410" y="142" on="1"/>
        <pt x="410" y="0" on="1"/>
      </contour>
    </TTGlyph>
    <TTGlyph name="fraction" xMin="-40" yMin="-85" xMax="300" yMax="705">
      <contour>
        <pt x="-40" y="-85" on="1"/>
        <pt x="226" y="705" on="1"/>
        <pt x="300" y="705" on="1"/>
        <pt x="34" y="-85" on="1"/>
      </contour>
    </TTGlyph>
    <TTGlyph name="g" xMin="45" yMin="-239" xMax="474" yMax="514">
      <contour>
        <pt x="474" y="-86" on="0"/>
        <pt x="335" y="-239" on="0"/>
        <pt x="128" y="-239" on="0"/>
        <pt x="45" y="-181" on="1"/>
        <pt x="83" y="-122" on="1"/>
        <pt x="107" y="-142" on="0"/>
        <pt x="187" y="-168" on="0"/>
        <pt x="228" y="-168" on="1"/>
        <pt x="302" y="-168" on="0"/>
        <pt x="398" y="-54" on="0"/>
        <pt x="398" y="35" on="1"/>
        <pt x="398" y="82" on="1"/>
        <pt x="342" y="-14" on="0"/>
        <pt x="241" y="-14" on="1"/>
        <pt x="155" y="-14" on="0"/>
        <pt x="45" y="116" on="0"/>
        <pt x="45" y="361" on="0"/>
        <pt x="184" y="514" on="0"/>
        <pt x="391" y="514" on="0"/>
        <pt x="474" y="456" on="1"/>
        <pt x="474" y="34" on="1"/>
      </contour>
      <contour>
        <pt x="121" y="150" on="0"/>
        <pt x="197" y="54" on="0"/>
        <pt x="316" y="54" on="0"/>
        <pt x="398" y="174" on="0"/>
        <pt x="398" y="285" on="1"/>
        <pt x="398" y="421" on="1"/>
        <pt x="348" y="446" on="0"/>
        <pt x="291" y="446" on="1"/>
        <pt x="217" y="446" on="0"/>
        <pt x="121" y="331" on="0"/>
      </contour>
    </TTGlyph>
    <TTGlyph name="germandbls" xMin="40" yMin="-160" xMax="569" yMax="719">
      <contour>
        <pt x="40" y="435" on="1"/>
        <pt x="40" y="500" on="1"/>
        <pt x="105" y="500" on="1"/>
        <pt x="105" y="551" on="1"/>
        <pt x="105" y="633" on="0"/>
        <pt x="215" y="719" on="0"/>
        <pt x="369" y="719" on="0"/>
        <pt x="486" y="639" on="0"/>
        <pt x="486" y="575" on="1"/>
        <pt x="486" y="532" on="0"/>
        <pt x="448" y="464" on="0"/>
        <pt x="426" y="447" on="1"/>
        <pt x="365" y="401" on="0"/>
        <pt x="365" y="362" on="1"/>
        <pt x="365" y="340" on="0"/>
        <pt x="407" y="306" on="0"/>
        <pt x="467" y="279" on="0"/>
        <pt x="527" y="246" on="0"/>
        <pt x="569" y="185" on="0"/>
        <pt x="569" y="142" on="1"/>
        <pt x="569" y="65" on="0"/>
        <pt x="466" y="-14" on="0"/>
        <pt x="389" y="-14" on="1"/>
        <pt x="285" y="-14" on="0"/>
        <pt x="213" y="53" on="1"/>
        <pt x="254" y="108" on="1"/>
        <pt x="309" y="55" on="0"/>
        <pt x="389" y="55" on="1"/>
        <pt x="434" y="56" on="0"/>
        <pt x="492" y="97" on="0"/>
        <pt x="492" y="166" on="0"/>
        <pt x="450" y="204" on="0"/>
        <pt x="390" y="229" on="0"/>
        <pt x="330" y="258" on="0"/>
        <pt x="288" y="312" on="0"/>
        <pt x="288" y="393" on="0"/>
        <pt x="326" y="455" on="0"/>
        <pt x="348" y="471" on="1"/>
        <pt x="409" y="514" on="0"/>
        <pt x="409" y="569" on="1"/>
        <pt x="409" y="606" on="0"/>
        <pt x="338" y="652" on="0"/>
        <pt x="246" y="652" on="0"/>
        <pt x="181" y="602" on="0"/>
        <pt x="181" y="555" on="1"/>
        <pt x="181" y="-160" on="1"/>
        <pt x="105" y="-160" on="1"/>
        <pt x="105" y="435" on="1"/>
      </contour>
    </TTGlyph>
    <TTGlyph name="grave" xMin="20" yMin="535" xMax="224" yMax="735">
      <contour>
        <pt x="70" y="735" on="1"/>
        <pt x="96" y="735" on="0"/>
        <pt x="122" y="700" on="1"/>
        <pt x="224" y="560" on="1"/>
        <pt x="200" y="535" on="1"/>
        <pt x="20" y="682" on="1"/>
        <pt x="38" y="735" on="0"/>
      </contour>
    </TTGlyph>
    <TTGlyph name="greater" xMin="75" yMin="88" xMax="448" yMax="534">
      <contour>
        <pt x="448" y="335" on="1"/>
        <pt x="448" y="286" on="1"/>
        <pt x="112" y="88" on="1"/>
        <pt x="75" y="149" on="1"/>
        <pt x="349" y="311" on="1"/>
        <pt x="75" y="473" on="1"/>
        <pt x="112" y="534" on="1"/>
      </contour>
    </TTGlyph>
    <TTGlyph name="greaterequal" xMin="58" yMin="-48" xMax="460" yMax="534">
      <contour>
        <pt x="448" y="335" on="1"/>
        <pt x="448" y="286" on="1"/>
        <pt x="112" y="88" on="1"/>
        <pt x="75" y="149" on="1"/>
        <pt x="349" y="311" on="1"/>
        <pt x="75" y="473" on="1"/>
        <pt x="112" y="534" on="1"/>
      </contour>
      <contour>
        <pt x="58" y="-48" on="1"/>
        <pt x="58" y="24" on="1"/>
        <pt x="460" y="24" on="1"/>
        <pt x="460" y="-48" on="1"/>
      </contour>
    </TTGlyph>
    <TTGlyph name="guillemotleft" xMin="30" yMin="70" xMax="347" yMax="414">
      <contour>
        <pt x="189" y="219" on="0"/>
        <pt x="189" y="265" on="0"/>
        <pt x="211" y="290" on="1"/>
        <pt x="316" y="414" on="1"/>
        <pt x="347" y="399" on="1"/>
        <pt x="282" y="242" on="1"/>
        <pt x="347" y="85" on="1"/>
        <pt x="316" y="70" on="1"/>
        <pt x="211" y="194" on="1"/>
      </contour>
      <contour>
        <pt x="30" y="219" on="0"/>
        <pt x="30" y="265" on="0"/>
        <pt x="52" y="290" on="1"/>
        <pt x="157" y="414" on="1"/>
        <pt x="188" y="399" on="1"/>
        <pt x="123" y="242" on="1"/>
        <pt x="188" y="85" on="1"/>
        <pt x="157" y="70" on="1"/>
        <pt x="52" y="194" on="1"/>
      </contour>
    </TTGlyph>
    <TTGlyph name="guillemotright" xMin="30" yMin="70" xMax="347" yMax="414">
      <contour>
        <pt x="347" y="265" on="0"/>
        <pt x="347" y="219" on="0"/>
        <pt x="325" y="194" on="1"/>
        <pt x="220" y="70" on="1"/>
        <pt x="189" y="85" on="1"/>
        <pt x="254" y="242" on="1"/>
        <pt x="189" y="399" on="1"/>
        <pt x="220" y="414" on="1"/>
        <pt x="325" y="290" on="1"/>
      </contour>
      <contour>
        <pt x="188" y="265" on="0"/>
        <pt x="188" y="219" on="0"/>
        <pt x="166" y="194" on="1"/>
        <pt x="61" y="70" on="1"/>
        <pt x="30" y="85" on="1"/>
        <pt x="95" y="242" on="1"/>
        <pt x="30" y="399" on="1"/>
        <pt x="61" y="414" on="1"/>
        <pt x="166" y="290" on="1"/>
      </contour>
    </TTGlyph>
    <TTGlyph name="guilsinglleft" xMin="30" yMin="70" xMax="188" yMax="414">
      <contour>
        <pt x="30" y="219" on="0"/>
        <pt x="30" y="265" on="0"/>
        <pt x="52" y="290" on="1"/>
        <pt x="157" y="414" on="1"/>
        <pt x="188" y="399" on="1"/>
        <pt x="123" y="242" on="1"/>
        <pt x="188" y="85" on="1"/>
        <pt x="157" y="70" on="1"/>
        <pt x="52" y="194" on="1"/>
      </contour>
    </TTGlyph>
    <TTGlyph name="guilsinglright" xMin="30" yMin="70" xMax="188" yMax="414">
      <contour>
        <pt x="188" y="265" on="0"/>
        <pt x="188" y="219" on="0"/>
        <pt x="166" y="194" on="1"/>
        <pt x="61" y="70" on="1"/>
        <pt x="30" y="85" on="1"/>
        <pt x="95" y="242" on="1"/>
        <pt x="30" y="399" on="1"/>
        <pt x="61" y="414" on="1"/>
        <pt x="166" y="290" on="1"/>
      </contour>
    </TTGlyph>
    <TTGlyph name="h" xMin="90" yMin="0" xMax="499" yMax="700">
      <contour>
        <pt x="499" y="0" on="1"/>
        <pt x="423" y="0" on="1"/>
        <pt x="423" y="304" on="1"/>
        <pt x="423" y="446" on="0"/>
        <pt x="322" y="446" on="1"/>
        <pt x="264" y="446" on="0"/>
        <pt x="169" y="326" on="0"/>
        <pt x="166" y="221" on="1"/>
        <pt x="166" y="0" on="1"/>
        <pt x="90" y="0" on="1"/>
        <pt x="90" y="700" on="1"/>
        <pt x="166" y="700" on="1"/>
        <pt x="166" y="403" on="1"/>
        <pt x="196" y="457" on="0"/>
        <pt x="287" y="514" on="0"/>
        <pt x="335" y="514" on="1"/>
        <pt x="499" y="514" on="0"/>
        <pt x="499" y="304" on="1"/>
      </contour>
    </TTGlyph>
    <TTGlyph name="hungarumlaut" xMin="37" yMin="535" xMax="335" yMax="735">
      <contour>
        <pt x="232" y="690" on="1"/>
        <pt x="252" y="735" on="0"/>
        <pt x="311" y="735" on="0"/>
        <pt x="335" y="692" on="1"/>
        <pt x="197" y="535" on="1"/>
        <pt x="169" y="555" on="1"/>
      </contour>
      <contour>
        <pt x="100" y="690" on="1"/>
        <pt x="120" y="735" on="0"/>
        <pt x="179" y="735" on="0"/>
        <pt x="203" y="692" on="1"/>
        <pt x="65" y="535" on="1"/>
        <pt x="37" y="555" on="1"/>
      </contour>
    </TTGlyph>
    <TTGlyph name="hyphen" xMin="50" yMin="220" xMax="358" yMax="292">
      <contour>
        <pt x="358" y="220" on="1"/>
        <pt x="50" y="220" on="1"/>
        <pt x="50" y="292" on="1"/>
        <pt x="358" y="292" on="1"/>
      </contour>
    </TTGlyph>
    <TTGlyph name="i" xMin="80" yMin="0" xMax="176" yMax="692">
      <contour>
        <pt x="80" y="623" on="0"/>
        <pt x="80" y="665" on="0"/>
        <pt x="104" y="692" on="0"/>
        <pt x="150" y="692" on="0"/>
        <pt x="176" y="664" on="0"/>
        <pt x="176" y="624" on="0"/>
        <pt x="150" y="596" on="0"/>
        <pt x="104" y="596" on="0"/>
      </contour>
      <contour>
        <pt x="90" y="0" on="1"/>
        <pt x="90" y="500" on="1"/>
        <pt x="166" y="500" on="1"/>
        <pt x="166" y="0" on="1"/>
      </contour>
    </TTGlyph>
    <TTGlyph name="iacute" xMin="29" yMin="0" xMax="233" yMax="735">
      <contour>
        <pt x="90" y="0" on="1"/>
        <pt x="90" y="500" on="1"/>
        <pt x="166" y="500" on="1"/>
        <pt x="166" y="0" on="1"/>
      </contour>
      <contour>
        <pt x="183" y="735" on="1"/>
        <pt x="215" y="735" on="0"/>
        <pt x="233" y="682" on="1"/>
        <pt x="53" y="535" on="1"/>
        <pt x="29" y="560" on="1"/>
        <pt x="131" y="700" on="1"/>
        <pt x="157" y="735" on="0"/>
      </contour>
    </TTGlyph>
    <TTGlyph name="icircumflex" xMin="-13" yMin="0" xMax="269" yMax="727">
      <contour>
        <pt x="90" y="0" on="1"/>
        <pt x="90" y="500" on="1"/>
        <pt x="166" y="500" on="1"/>
        <pt x="166" y="0" on="1"/>
      </contour>
      <contour>
        <pt x="84" y="699" on="1"/>
        <pt x="103" y="727" on="0"/>
        <pt x="152" y="727" on="0"/>
        <pt x="172" y="699" on="1"/>
        <pt x="269" y="562" on="1"/>
        <pt x="245" y="537" on="1"/>
        <pt x="128" y="644" on="1"/>
        <pt x="11" y="537" on="1"/>
        <pt x="-13" y="562" on="1"/>
      </contour>
    </TTGlyph>
    <TTGlyph name="idieresis" xMin="-9" yMin="0" xMax="265" yMax="692">
      <contour>
        <pt x="90" y="0" on="1"/>
        <pt x="90" y="500" on="1"/>
        <pt x="166" y="500" on="1"/>
        <pt x="166" y="0" on="1"/>
      </contour>
      <contour>
        <pt x="169" y="623" on="0"/>
        <pt x="169" y="665" on="0"/>
        <pt x="193" y="692" on="0"/>
        <pt x="239" y="692" on="0"/>
        <pt x="265" y="664" on="0"/>
        <pt x="265" y="624" on="0"/>
        <pt x="239" y="596" on="0"/>
        <pt x="193" y="596" on="0"/>
      </contour>
      <contour>
        <pt x="-9" y="623" on="0"/>
        <pt x="-9" y="665" on="0"/>
        <pt x="15" y="692" on="0"/>
        <pt x="61" y="692" on="0"/>
        <pt x="87" y="664" on="0"/>
        <pt x="87" y="624" on="0"/>
        <pt x="61" y="596" on="0"/>
        <pt x="15" y="596" on="0"/>
      </contour>
    </TTGlyph>
    <TTGlyph name="igrave" xMin="8" yMin="0" xMax="212" yMax="735">
      <contour>
        <pt x="90" y="0" on="1"/>
        <pt x="90" y="500" on="1"/>
        <pt x="166" y="500" on="1"/>
        <pt x="166" y="0" on="1"/>
      </contour>
      <contour>
        <pt x="58" y="735" on="1"/>
        <pt x="84" y="735" on="0"/>
        <pt x="110" y="700" on="1"/>
        <pt x="212" y="560" on="1"/>
        <pt x="188" y="535" on="1"/>
        <pt x="8" y="682" on="1"/>
        <pt x="26" y="735" on="0"/>
      </contour>
    </TTGlyph>
    <TTGlyph name="infinity" xMin="50" yMin="145" xMax="684" yMax="475">
      <contour>
        <pt x="532" y="145" on="1"/>
        <pt x="484" y="145" on="0"/>
        <pt x="409" y="204" on="0"/>
        <pt x="370" y="258" on="1"/>
        <pt x="334" y="205" on="0"/>
        <pt x="257" y="145" on="0"/>
        <pt x="130" y="145" on="0"/>
        <pt x="50" y="228" on="0"/>
        <pt x="50" y="392" on="0"/>
        <pt x="130" y="475" on="0"/>
        <pt x="256" y="475" on="0"/>
        <pt x="333" y="419" on="0"/>
        <pt x="368" y="369" on="1"/>
        <pt x="404" y="419" on="0"/>
        <pt x="479" y="475" on="0"/>
        <pt x="532" y="475" on="1"/>
        <pt x="604" y="475" on="0"/>
        <pt x="684" y="392" on="0"/>
        <pt x="684" y="229" on="0"/>
        <pt x="603" y="145" on="0"/>
      </contour>
      <contour>
        <pt x="200" y="210" on="1"/>
        <pt x="239" y="210" on="0"/>
        <pt x="298" y="263" on="0"/>
        <pt x="331" y="313" on="1"/>
        <pt x="298" y="360" on="0"/>
        <pt x="235" y="410" on="0"/>
        <pt x="197" y="410" on="1"/>
        <pt x="121" y="410" on="0"/>
        <pt x="121" y="210" on="0"/>
      </contour>
      <contour>
        <pt x="534" y="410" on="1"/>
        <pt x="496" y="410" on="0"/>
        <pt x="439" y="360" on="0"/>
        <pt x="407" y="312" on="1"/>
        <pt x="440" y="262" on="0"/>
        <pt x="498" y="210" on="0"/>
        <pt x="537" y="210" on="1"/>
        <pt x="613" y="210" on="0"/>
        <pt x="613" y="410" on="0"/>
      </contour>
    </TTGlyph>
    <TTGlyph name="integral" xMin="0" yMin="-165" xMax="420" yMax="715">
      <contour>
        <pt x="170" y="552" on="1"/>
        <pt x="170" y="637" on="0"/>
        <pt x="243" y="715" on="0"/>
        <pt x="358" y="715" on="0"/>
        <pt x="420" y="675" on="1"/>
        <pt x="390" y="621" on="1"/>
        <pt x="338" y="644" on="0"/>
        <pt x="311" y="644" on="1"/>
        <pt x="250" y="644" on="0"/>
        <pt x="250" y="556" on="1"/>
        <pt x="250" y="-2" on="1"/>
        <pt x="250" y="-87" on="0"/>
        <pt x="177" y="-165" on="0"/>
        <pt x="62" y="-165" on="0"/>
        <pt x="0" y="-125" on="1"/>
        <pt x="30" y="-71" on="1"/>
        <pt x="82" y="-94" on="0"/>
        <pt x="109" y="-94" on="1"/>
        <pt x="165" y="-94" on="0"/>
        <pt x="170" y="-6" on="1"/>
      </contour>
    </TTGlyph>
    <TTGlyph name="j" xMin="-82" yMin="-239" xMax="174" yMax="690">
      <contour>
        <pt x="82" y="624" on="0"/>
        <pt x="82" y="664" on="0"/>
        <pt x="106" y="690" on="0"/>
        <pt x="150" y="690" on="0"/>
        <pt x="174" y="664" on="0"/>
        <pt x="174" y="624" on="0"/>
        <pt x="150" y="598" on="0"/>
        <pt x="106" y="598" on="0"/>
      </contour>
      <contour>
        <pt x="29" y="-168" on="1"/>
        <pt x="90" y="-168" on="0"/>
        <pt x="90" y="-80" on="1"/>
        <pt x="90" y="500" on="1"/>
        <pt x="166" y="500" on="1"/>
        <pt x="166" y="-76" on="1"/>
        <pt x="166" y="-161" on="0"/>
        <pt x="95" y="-239" on="0"/>
        <pt x="-20" y="-239" on="0"/>
        <pt x="-82" y="-199" on="1"/>
        <pt x="-52" y="-145" on="1"/>
        <pt x="0" y="-168" on="0"/>
      </contour>
    </TTGlyph>
    <TTGlyph name="k" xMin="90" yMin="0" xMax="478" yMax="700">
      <contour>
        <pt x="467" y="385" on="1"/>
        <pt x="467" y="283" on="0"/>
        <pt x="346" y="223" on="1"/>
        <pt x="478" y="0" on="1"/>
        <pt x="390" y="0" on="1"/>
        <pt x="274" y="197" on="1"/>
        <pt x="229" y="184" on="0"/>
        <pt x="166" y="178" on="1"/>
        <pt x="166" y="0" on="1"/>
        <pt x="90" y="0" on="1"/>
        <pt x="90" y="700" on="1"/>
        <pt x="166" y="700" on="1"/>
        <pt x="166" y="421" on="1"/>
        <pt x="226" y="514" on="0"/>
        <pt x="324" y="514" on="1"/>
        <pt x="396" y="514" on="0"/>
        <pt x="467" y="442" on="0"/>
      </contour>
      <contour>
        <pt x="322" y="446" on="1"/>
        <pt x="256" y="446" on="0"/>
        <pt x="166" y="333" on="0"/>
        <pt x="166" y="267" on="1"/>
        <pt x="166" y="245" on="1"/>
        <pt x="277" y="254" on="0"/>
        <pt x="391" y="331" on="0"/>
        <pt x="391" y="380" on="1"/>
        <pt x="391" y="409" on="0"/>
        <pt x="357" y="446" on="0"/>
      </contour>
    </TTGlyph>
    <TTGlyph name="l" xMin="75" yMin="-14" xMax="283" yMax="700">
      <contour>
        <pt x="75" y="700" on="1"/>
        <pt x="151" y="700" on="1"/>
        <pt x="151" y="110" on="1"/>
        <pt x="151" y="55" on="0"/>
        <pt x="196" y="55" on="1"/>
        <pt x="225" y="55" on="0"/>
        <pt x="253" y="75" on="1"/>
        <pt x="283" y="21" on="1"/>
        <pt x="228" y="-14" on="0"/>
        <pt x="130" y="-14" on="0"/>
        <pt x="75" y="40" on="0"/>
        <pt x="75" y="110" on="1"/>
      </contour>
    </TTGlyph>
    <TTGlyph name="less" xMin="70" yMin="88" xMax="443" yMax="534">
      <contour>
        <pt x="70" y="286" on="1"/>
        <pt x="70" y="335" on="1"/>
        <pt x="406" y="534" on="1"/>
        <pt x="443" y="473" on="1"/>
        <pt x="169" y="311" on="1"/>
        <pt x="443" y="149" on="1"/>
        <pt x="406" y="88" on="1"/>
      </contour>
    </TTGlyph>
    <TTGlyph name="lessequal" xMin="58" yMin="-48" xMax="460" yMax="534">
      <contour>
        <pt x="70" y="286" on="1"/>
        <pt x="70" y="335" on="1"/>
        <pt x="406" y="534" on="1"/>
        <pt x="443" y="473" on="1"/>
        <pt x="169" y="311" on="1"/>
        <pt x="443" y="149" on="1"/>
        <pt x="406" y="88" on="1"/>
      </contour>
      <contour>
        <pt x="58" y="-48" on="1"/>
        <pt x="58" y="24" on="1"/>
        <pt x="460" y="24" on="1"/>
        <pt x="460" y="-48" on="1"/>
      </contour>
    </TTGlyph>
    <TTGlyph name="logicalnot" xMin="47" yMin="147" xMax="471" yMax="347">
      <contour>
        <pt x="47" y="275" on="1"/>
        <pt x="47" y="347" on="1"/>
        <pt x="471" y="347" on="1"/>
        <pt x="471" y="147" on="1"/>
        <pt x="403" y="147" on="1"/>
        <pt x="403" y="275" on="1"/>
      </contour>
    </TTGlyph>
    <TTGlyph name="lozenge" xMin="40" yMin="-150" xMax="516" yMax="700">
      <contour>
        <pt x="327" y="700" on="1"/>
        <pt x="516" y="275" on="1"/>
        <pt x="327" y="-150" on="1"/>
        <pt x="229" y="-150" on="1"/>
        <pt x="40" y="275" on="1"/>
        <pt x="229" y="700" on="1"/>
      </contour>
      <contour>
        <pt x="123" y="275" on="1"/>
        <pt x="278" y="-83" on="1"/>
        <pt x="433" y="275" on="1"/>
        <pt x="278" y="633" on="1"/>
      </contour>
    </TTGlyph>
    <TTGlyph name="lslash" xMin="-16" yMin="-14" xMax="283" yMax="700">
      <contour>
        <pt x="75" y="700" on="1"/>
        <pt x="151" y="700" on="1"/>
        <pt x="151" y="397" on="1"/>
        <pt x="241" y="462" on="1"/>
        <pt x="273" y="418" on="1"/>
        <pt x="151" y="330" on="1"/>
        <pt x="151" y="110" on="1"/>
        <pt x="151" y="55" on="0"/>
        <pt x="196" y="55" on="1"/>
        <pt x="225" y="55" on="0"/>
        <pt x="253" y="75" on="1"/>
        <pt x="283" y="21" on="1"/>
        <pt x="228" y="-14" on="0"/>
        <pt x="130" y="-14" on="0"/>
        <pt x="75" y="40" on="0"/>
        <pt x="75" y="110" on="1"/>
        <pt x="75" y="275" on="1"/>
        <pt x="17" y="234" on="1"/>
        <pt x="-16" y="278" on="1"/>
        <pt x="75" y="343" on="1"/>
      </contour>
    </TTGlyph>
    <TTGlyph name="m" xMin="75" yMin="0" xMax="797" yMax="514">
      <contour>
        <pt x="320" y="514" on="1"/>
        <pt x="440" y="514" on="0"/>
        <pt x="470" y="389" on="1"/>
        <pt x="499" y="449" on="0"/>
        <pt x="590" y="514" on="0"/>
        <pt x="638" y="514" on="1"/>
        <pt x="715" y="514" on="0"/>
        <pt x="797" y="409" on="0"/>
        <pt x="797" y="304" on="1"/>
        <pt x="797" y="0" on="1"/>
        <pt x="721" y="0" on="1"/>
        <pt x="721" y="304" on="1"/>
        <pt x="721" y="446" on="0"/>
        <pt x="626" y="446" on="1"/>
        <pt x="571" y="446" on="0"/>
        <pt x="482" y="326" on="0"/>
        <pt x="479" y="221" on="1"/>
        <pt x="479" y="0" on="1"/>
        <pt x="403" y="0" on="1"/>
        <pt x="403" y="304" on="1"/>
        <pt x="403" y="446" on="0"/>
        <pt x="308" y="446" on="1"/>
        <pt x="253" y="446" on="0"/>
        <pt x="164" y="326" on="0"/>
        <pt x="161" y="221" on="1"/>
        <pt x="161" y="0" on="1"/>
        <pt x="85" y="0" on="1"/>
        <pt x="85" y="400" on="1"/>
        <pt x="75" y="500" on="1"/>
        <pt x="141" y="505" on="1"/>
        <pt x="160" y="404" on="1"/>
        <pt x="190" y="457" on="0"/>
        <pt x="276" y="514" on="0"/>
      </contour>
    </TTGlyph>
    <TTGlyph name="macron" xMin="73" yMin="605" xMax="344" yMax="677">
      <contour>
        <pt x="73" y="605" on="1"/>
        <pt x="73" y="677" on="1"/>
        <pt x="344" y="677" on="1"/>
        <pt x="344" y="605" on="1"/>
      </contour>
    </TTGlyph>
    <TTGlyph name="minus" xMin="47" yMin="275" xMax="471" yMax="347">
      <contour>
        <pt x="47" y="275" on="1"/>
        <pt x="47" y="347" on="1"/>
        <pt x="471" y="347" on="1"/>
        <pt x="471" y="275" on="1"/>
      </contour>
    </TTGlyph>
    <TTGlyph name="mu" xMin="75" yMin="-204" xMax="484" yMax="500">
      <contour>
        <pt x="75" y="500" on="1"/>
        <pt x="151" y="500" on="1"/>
        <pt x="151" y="196" on="1"/>
        <pt x="151" y="54" on="0"/>
        <pt x="252" y="54" on="1"/>
        <pt x="310" y="54" on="0"/>
        <pt x="405" y="173" on="0"/>
        <pt x="408" y="278" on="1"/>
        <pt x="408" y="500" on="1"/>
        <pt x="484" y="500" on="1"/>
        <pt x="484" y="0" on="1"/>
        <pt x="428" y="-5" on="1"/>
        <pt x="408" y="98" on="1"/>
        <pt x="378" y="44" on="0"/>
        <pt x="286" y="-14" on="0"/>
        <pt x="239" y="-14" on="1"/>
        <pt x="169" y="-14" on="0"/>
        <pt x="136" y="32" on="1"/>
        <pt x="128" y="-204" on="1"/>
        <pt x="75" y="-204" on="1"/>
      </contour>
    </TTGlyph>
    <TTGlyph name="multiply" xMin="62" yMin="114" xMax="456" yMax="508">
      <contour>
        <pt x="113" y="114" on="1"/>
        <pt x="62" y="165" on="1"/>
        <pt x="208" y="311" on="1"/>
        <pt x="62" y="457" on="1"/>
        <pt x="113" y="508" on="1"/>
        <pt x="259" y="362" on="1"/>
        <pt x="405" y="508" on="1"/>
        <pt x="456" y="457" on="1"/>
        <pt x="310" y="311" on="1"/>
        <pt x="456" y="165" on="1"/>
        <pt x="405" y="114" on="1"/>
        <pt x="259" y="260" on="1"/>
      </contour>
    </TTGlyph>
    <TTGlyph name="n" xMin="75" yMin="0" xMax="494" yMax="514">
      <contour>
        <pt x="330" y="514" on="1"/>
        <pt x="494" y="514" on="0"/>
        <pt x="494" y="304" on="1"/>
        <pt x="494" y="0" on="1"/>
        <pt x="418" y="0" on="1"/>
        <pt x="418" y="304" on="1"/>
        <pt x="418" y="446" on="0"/>
        <pt x="317" y="446" on="1"/>
        <pt x="259" y="446" on="0"/>
        <pt x="164" y="326" on="0"/>
        <pt x="161" y="221" on="1"/>
        <pt x="161" y="0" on="1"/>
        <pt x="85" y="0" on="1"/>
        <pt x="85" y="400" on="1"/>
        <pt x="75" y="500" on="1"/>
        <pt x="141" y="505" on="1"/>
        <pt x="160" y="402" on="1"/>
        <pt x="191" y="456" on="0"/>
        <pt x="283" y="514" on="0"/>
      </contour>
    </TTGlyph>
    <TTGlyph name="nine" xMin="36" yMin="-16" xMax="468" yMax="636">
      <contour>
        <pt x="218" y="55" on="1"/>
        <pt x="284" y="55" on="0"/>
        <pt x="379" y="178" on="0"/>
        <pt x="388" y="295" on="1"/>
        <pt x="312" y="235" on="0"/>
        <pt x="226" y="235" on="1"/>
        <pt x="173" y="235" on="0"/>
        <pt x="95" y="273" on="0"/>
        <pt x="74" y="303" on="1"/>
        <pt x="36" y="359" on="0"/>
        <pt x="36" y="426" on="1"/>
        <pt x="36" y="513" on="0"/>
        <pt x="144" y="636" on="0"/>
        <pt x="248" y="636" on="1"/>
        <pt x="309" y="636" on="0"/>
        <pt x="398" y="587" on="0"/>
        <pt x="422" y="544" on="1"/>
        <pt x="468" y="463" on="0"/>
        <pt x="468" y="344" on="1"/>
        <pt x="468" y="169" on="0"/>
        <pt x="324" y="-16" on="0"/>
        <pt x="105" y="-16" on="0"/>
        <pt x="40" y="39" on="1"/>
        <pt x="81" y="100" on="1"/>
        <pt x="128" y="55" on="0"/>
      </contour>
      <contour>
        <pt x="226" y="305" on="1"/>
        <pt x="267" y="305" on="0"/>
        <pt x="355" y="344" on="0"/>
        <pt x="388" y="384" on="1"/>
        <pt x="382" y="464" on="0"/>
        <pt x="315" y="565" on="0"/>
        <pt x="183" y="565" on="0"/>
        <pt x="114" y="484" on="0"/>
        <pt x="114" y="381" on="0"/>
        <pt x="166" y="305" on="0"/>
      </contour>
    </TTGlyph>
    <TTGlyph name="notequal" xMin="47" yMin="-85" xMax="471" yMax="705">
      <contour>
        <pt x="47" y="185" on="1"/>
        <pt x="47" y="257" on="1"/>
        <pt x="204" y="257" on="1"/>
        <pt x="240" y="365" on="1"/>
        <pt x="47" y="365" on="1"/>
        <pt x="47" y="437" on="1"/>
        <pt x="264" y="437" on="1"/>
        <pt x="355" y="705" on="1"/>
        <pt x="429" y="705" on="1"/>
        <pt x="338" y="437" on="1"/>
        <pt x="471" y="437" on="1"/>
        <pt x="471" y="365" on="1"/>
        <pt x="314" y="365" on="1"/>
        <pt x="278" y="257" on="1"/>
        <pt x="471" y="257" on="1"/>
        <pt x="471" y="185" on="1"/>
        <pt x="254" y="185" on="1"/>
        <pt x="163" y="-85" on="1"/>
        <pt x="89" y="-85" on="1"/>
        <pt x="180" y="185" on="1"/>
      </contour>
    </TTGlyph>
    <TTGlyph name="ntilde" xMin="75" yMin="0" xMax="494" yMax="706">
      <contour>
        <pt x="330" y="514" on="1"/>
        <pt x="494" y="514" on="0"/>
        <pt x="494" y="304" on="1"/>
        <pt x="494" y="0" on="1"/>
        <pt x="418" y="0" on="1"/>
        <pt x="418" y="304" on="1"/>
        <pt x="418" y="446" on="0"/>
        <pt x="317" y="446" on="1"/>
        <pt x="257" y="446" on="0"/>
        <pt x="161" y="321" on="0"/>
        <pt x="161" y="210" on="1"/>
        <pt x="161" y="0" on="1"/>
        <pt x="85" y="0" on="1"/>
        <pt x="85" y="400" on="1"/>
        <pt x="75" y="500" on="1"/>
        <pt x="141" y="505" on="1"/>
        <pt x="160" y="402" on="1"/>
        <pt x="191" y="456" on="0"/>
        <pt x="283" y="514" on="0"/>
      </contour>
      <contour>
        <pt x="365" y="590" on="1"/>
        <pt x="340" y="590" on="0"/>
        <pt x="252" y="620" on="0"/>
        <pt x="233" y="620" on="1"/>
        <pt x="193" y="620" on="0"/>
        <pt x="186" y="576" on="1"/>
        <pt x="139" y="584" on="1"/>
        <pt x="157" y="692" on="0"/>
        <pt x="226" y="692" on="1"/>
        <pt x="252" y="692" on="0"/>
        <pt x="342" y="662" on="0"/>
        <pt x="362" y="662" on="1"/>
        <pt x="402" y="662" on="0"/>
        <pt x="409" y="706" on="1"/>
        <pt x="456" y="698" on="1"/>
        <pt x="437" y="590" on="0"/>
      </contour>
    </TTGlyph>
    <TTGlyph name="numbersign" xMin="-14" yMin="-26" xMax="532" yMax="646">
      <contour>
        <pt x="290" y="-26" on="1"/>
        <pt x="318" y="171" on="1"/>
        <pt x="159" y="171" on="1"/>
        <pt x="131" y="-26" on="1"/>
        <pt x="63" y="-26" on="1"/>
        <pt x="91" y="171" on="1"/>
        <pt x="-14" y="171" on="1"/>
        <pt x="-6" y="233" on="1"/>
        <pt x="100" y="233" on="1"/>
        <pt x="122" y="386" on="1"/>
        <pt x="17" y="386" on="1"/>
        <pt x="25" y="449" on="1"/>
        <pt x="131" y="449" on="1"/>
        <pt x="160" y="646" on="1"/>
        <pt x="228" y="646" on="1"/>
        <pt x="199" y="449" on="1"/>
        <pt x="358" y="449" on="1"/>
        <pt x="386" y="646" on="1"/>
        <pt x="454" y="646" on="1"/>
        <pt x="425" y="449" on="1"/>
        <pt x="532" y="449" on="1"/>
        <pt x="524" y="386" on="1"/>
        <pt x="416" y="386" on="1"/>
        <pt x="394" y="233" on="1"/>
        <pt x="501" y="233" on="1"/>
        <pt x="492" y="171" on="1"/>
        <pt x="385" y="171" on="1"/>
        <pt x="357" y="-26" on="1"/>
      </contour>
      <contour>
        <pt x="190" y="386" on="1"/>
        <pt x="168" y="233" on="1"/>
        <pt x="327" y="233" on="1"/>
        <pt x="349" y="386" on="1"/>
      </contour>
    </TTGlyph>
    <TTGlyph name="o" xMin="50" yMin="-14" xMax="491" yMax="514">
      <contour>
        <pt x="50" y="133" on="0"/>
        <pt x="50" y="367" on="0"/>
        <pt x="160" y="514" on="0"/>
        <pt x="379" y="514" on="0"/>
        <pt x="491" y="367" on="0"/>
        <pt x="491" y="133" on="0"/>
        <pt x="379" y="-14" on="0"/>
        <pt x="160" y="-14" on="0"/>
      </contour>
      <contour>
        <pt x="126" y="337" on="0"/>
        <pt x="126" y="163" on="0"/>
        <pt x="198" y="54" on="0"/>
        <pt x="342" y="54" on="0"/>
        <pt x="415" y="163" on="0"/>
        <pt x="415" y="337" on="0"/>
        <pt x="342" y="446" on="0"/>
        <pt x="198" y="446" on="0"/>
      </contour>
    </TTGlyph>
    <TTGlyph name="oacute" xMin="50" yMin="-14" xMax="491" yMax="735">
      <contour>
        <pt x="50" y="133" on="0"/>
        <pt x="50" y="367" on="0"/>
        <pt x="160" y="514" on="0"/>
        <pt x="379" y="514" on="0"/>
        <pt x="491" y="367" on="0"/>
        <pt x="491" y="133" on="0"/>
        <pt x="379" y="-14" on="0"/>
        <pt x="160" y="-14" on="0"/>
      </contour>
      <contour>
        <pt x="126" y="337" on="0"/>
        <pt x="126" y="163" on="0"/>
        <pt x="198" y="54" on="0"/>
        <pt x="342" y="54" on="0"/>
        <pt x="415" y="163" on="0"/>
        <pt x="415" y="337" on="0"/>
        <pt x="342" y="446" on="0"/>
        <pt x="198" y="446" on="0"/>
      </contour>
      <contour>
        <pt x="360" y="735" on="1"/>
        <pt x="392" y="735" on="0"/>
        <pt x="410" y="682" on="1"/>
        <pt x="230" y="535" on="1"/>
        <pt x="206" y="560" on="1"/>
        <pt x="308" y="700" on="1"/>
        <pt x="334" y="735" on="0"/>
      </contour>
    </TTGlyph>
    <TTGlyph name="ocircumflex" xMin="50" yMin="-14" xMax="491" yMax="727">
      <contour>
        <pt x="50" y="133" on="0"/>
        <pt x="50" y="367" on="0"/>
        <pt x="160" y="514" on="0"/>
        <pt x="379" y="514" on="0"/>
        <pt x="491" y="367" on="0"/>
        <pt x="491" y="133" on="0"/>
        <pt x="379" y="-14" on="0"/>
        <pt x="160" y="-14" on="0"/>
      </contour>
      <contour>
        <pt x="126" y="337" on="0"/>
        <pt x="126" y="163" on="0"/>
        <pt x="198" y="54" on="0"/>
        <pt x="342" y="54" on="0"/>
        <pt x="415" y="163" on="0"/>
        <pt x="415" y="337" on="0"/>
        <pt x="342" y="446" on="0"/>
        <pt x="198" y="446" on="0"/>
      </contour>
      <contour>
        <pt x="226" y="699" on="1"/>
        <pt x="245" y="727" on="0"/>
        <pt x="294" y="727" on="0"/>
        <pt x="314" y="699" on="1"/>
        <pt x="411" y="562" on="1"/>
        <pt x="387" y="537" on="1"/>
        <pt x="270" y="644" on="1"/>
        <pt x="153" y="537" on="1"/>
        <pt x="129" y="562" on="1"/>
      </contour>
    </TTGlyph>
    <TTGlyph name="odieresis" xMin="50" yMin="-14" xMax="491" yMax="692">
      <contour>
        <pt x="50" y="133" on="0"/>
        <pt x="50" y="367" on="0"/>
        <pt x="160" y="514" on="0"/>
        <pt x="379" y="514" on="0"/>
        <pt x="491" y="367" on="0"/>
        <pt x="491" y="133" on="0"/>
        <pt x="379" y="-14" on="0"/>
        <pt x="160" y="-14" on="0"/>
      </contour>
      <contour>
        <pt x="126" y="337" on="0"/>
        <pt x="126" y="163" on="0"/>
        <pt x="198" y="54" on="0"/>
        <pt x="342" y="54" on="0"/>
        <pt x="415" y="163" on="0"/>
        <pt x="415" y="337" on="0"/>
        <pt x="342" y="446" on="0"/>
        <pt x="198" y="446" on="0"/>
      </contour>
      <contour>
        <pt x="311" y="623" on="0"/>
        <pt x="311" y="665" on="0"/>
        <pt x="335" y="692" on="0"/>
        <pt x="381" y="692" on="0"/>
        <pt x="407" y="664" on="0"/>
        <pt x="407" y="624" on="0"/>
        <pt x="381" y="596" on="0"/>
        <pt x="335" y="596" on="0"/>
      </contour>
      <contour>
        <pt x="133" y="623" on="0"/>
        <pt x="133" y="665" on="0"/>
        <pt x="157" y="692" on="0"/>
        <pt x="203" y="692" on="0"/>
        <pt x="229" y="664" on="0"/>
        <pt x="229" y="624" on="0"/>
        <pt x="203" y="596" on="0"/>
        <pt x="157" y="596" on="0"/>
      </contour>
    </TTGlyph>
    <TTGlyph name="oe" xMin="50" yMin="-14" xMax="743" yMax="514">
      <contour>
        <pt x="546" y="-14" on="1"/>
        <pt x="466" y="-14" on="0"/>
        <pt x="412" y="34" on="1"/>
        <pt x="358" y="-14" on="0"/>
        <pt x="270" y="-14" on="1"/>
        <pt x="160" y="-14" on="0"/>
        <pt x="50" y="133" on="0"/>
        <pt x="50" y="367" on="0"/>
        <pt x="160" y="514" on="0"/>
        <pt x="368" y="514" on="0"/>
        <pt x="425" y="452" on="1"/>
        <pt x="492" y="514" on="0"/>
        <pt x="587" y="514" on="1"/>
        <pt x="657" y="514" on="0"/>
        <pt x="743" y="429" on="0"/>
        <pt x="743" y="302" on="0"/>
        <pt x="612" y="196" on="0"/>
        <pt x="487" y="196" on="1"/>
        <pt x="454" y="196" on="0"/>
        <pt x="417" y="199" on="1"/>
        <pt x="424" y="128" on="0"/>
        <pt x="497" y="54" on="0"/>
        <pt x="549" y="54" on="1"/>
        <pt x="636" y="54" on="0"/>
        <pt x="694" y="108" on="1"/>
        <pt x="730" y="59" on="1"/>
        <pt x="654" y="-14" on="0"/>
      </contour>
      <contour>
        <pt x="126" y="163" on="0"/>
        <pt x="198" y="54" on="0"/>
        <pt x="335" y="54" on="0"/>
        <pt x="370" y="89" on="1"/>
        <pt x="339" y="146" on="0"/>
        <pt x="339" y="327" on="0"/>
        <pt x="381" y="397" on="1"/>
        <pt x="345" y="446" on="0"/>
        <pt x="198" y="446" on="0"/>
        <pt x="126" y="337" on="0"/>
      </contour>
      <contour>
        <pt x="584" y="446" on="1"/>
        <pt x="515" y="446" on="0"/>
        <pt x="424" y="348" on="0"/>
        <pt x="416" y="267" on="1"/>
        <pt x="448" y="262" on="0"/>
        <pt x="489" y="262" on="1"/>
        <pt x="575" y="262" on="0"/>
        <pt x="667" y="326" on="0"/>
        <pt x="667" y="368" on="1"/>
        <pt x="667" y="399" on="0"/>
        <pt x="622" y="446" on="0"/>
      </contour>
    </TTGlyph>
    <TTGlyph name="ogonek" xMin="158" yMin="-207" xMax="332" yMax="0">
      <contour>
        <pt x="219" y="-116" on="1"/>
        <pt x="219" y="-133" on="0"/>
        <pt x="238" y="-155" on="0"/>
        <pt x="284" y="-155" on="0"/>
        <pt x="306" y="-133" on="1"/>
        <pt x="332" y="-167" on="1"/>
        <pt x="317" y="-185" on="0"/>
        <pt x="267" y="-207" on="0"/>
        <pt x="204" y="-207" on="0"/>
        <pt x="158" y="-160" on="0"/>
        <pt x="158" y="-91" on="0"/>
        <pt x="203" y="-22" on="0"/>
        <pt x="252" y="0" on="1"/>
        <pt x="308" y="0" on="1"/>
        <pt x="219" y="-55" on="0"/>
      </contour>
    </TTGlyph>
    <TTGlyph name="ograve" xMin="50" yMin="-14" xMax="491" yMax="735">
      <contour>
        <pt x="50" y="133" on="0"/>
        <pt x="50" y="367" on="0"/>
        <pt x="160" y="514" on="0"/>
        <pt x="379" y="514" on="0"/>
        <pt x="491" y="367" on="0"/>
        <pt x="491" y="133" on="0"/>
        <pt x="379" y="-14" on="0"/>
        <pt x="160" y="-14" on="0"/>
      </contour>
      <contour>
        <pt x="126" y="337" on="0"/>
        <pt x="126" y="163" on="0"/>
        <pt x="198" y="54" on="0"/>
        <pt x="342" y="54" on="0"/>
        <pt x="415" y="163" on="0"/>
        <pt x="415" y="337" on="0"/>
        <pt x="342" y="446" on="0"/>
        <pt x="198" y="446" on="0"/>
      </contour>
      <contour>
        <pt x="200" y="735" on="1"/>
        <pt x="226" y="735" on="0"/>
        <pt x="252" y="700" on="1"/>
        <pt x="354" y="560" on="1"/>
        <pt x="330" y="535" on="1"/>
        <pt x="150" y="682" on="1"/>
        <pt x="168" y="735" on="0"/>
      </contour>
    </TTGlyph>
    <TTGlyph name="one" xMin="85" yMin="0" xMax="432" yMax="620">
      <contour>
        <pt x="112" y="0" on="1"/>
        <pt x="112" y="72" on="1"/>
        <pt x="241" y="72" on="1"/>
        <pt x="240" y="620" on="1"/>
        <pt x="320" y="620" on="1"/>
        <pt x="320" y="72" on="1"/>
        <pt x="432" y="72" on="1"/>
        <pt x="432" y="0" on="1"/>
      </contour>
      <contour>
        <pt x="103" y="500" on="1"/>
        <pt x="85" y="570" on="1"/>
        <pt x="240" y="620" on="1"/>
        <pt x="240" y="540" on="1"/>
      </contour>
    </TTGlyph>
    <TTGlyph name="onehalf" xMin="70" yMin="0" xMax="720" yMax="620">
      <contour>
        <pt x="162" y="554" on="1"/>
        <pt x="85" y="532" on="1"/>
        <pt x="70" y="589" on="1"/>
        <pt x="168" y="620" on="1"/>
        <pt x="226" y="620" on="1"/>
        <pt x="226" y="301" on="1"/>
        <pt x="291" y="301" on="1"/>
        <pt x="291" y="244" on="1"/>
        <pt x="88" y="244" on="1"/>
        <pt x="88" y="301" on="1"/>
        <pt x="162" y="301" on="1"/>
      </contour>
      <contour>
        <pt x="652" y="280" on="1"/>
        <pt x="652" y="301" on="0"/>
        <pt x="620" y="328" on="0"/>
        <pt x="570" y="328" on="0"/>
        <pt x="551" y="322" on="1"/>
        <pt x="517" y="310" on="0"/>
        <pt x="510" y="299" on="1"/>
        <pt x="483" y="353" on="1"/>
        <pt x="535" y="386" on="0"/>
        <pt x="651" y="386" on="0"/>
        <pt x="716" y="325" on="0"/>
        <pt x="716" y="227" on="0"/>
        <pt x="659" y="161" on="1"/>
        <pt x="569" y="57" on="1"/>
        <pt x="720" y="57" on="1"/>
        <pt x="720" y="0" on="1"/>
        <pt x="478" y="0" on="1"/>
        <pt x="478" y="47" on="1"/>
        <pt x="607" y="194" on="1"/>
        <pt x="652" y="246" on="0"/>
      </contour>
      <contour>
        <pt x="255" y="0" on="1"/>
        <pt x="463" y="620" on="1"/>
        <pt x="521" y="620" on="1"/>
        <pt x="313" y="0" on="1"/>
      </contour>
    </TTGlyph>
    <TTGlyph name="onequarter" xMin="70" yMin="-4" xMax="719" yMax="620">
      <contour>
        <pt x="162" y="554" on="1"/>
        <pt x="85" y="532" on="1"/>
        <pt x="70" y="589" on="1"/>
        <pt x="168" y="620" on="1"/>
        <pt x="226" y="620" on="1"/>
        <pt x="226" y="301" on="1"/>
        <pt x="291" y="301" on="1"/>
        <pt x="291" y="244" on="1"/>
        <pt x="88" y="244" on="1"/>
        <pt x="88" y="301" on="1"/>
        <pt x="162" y="301" on="1"/>
      </contour>
      <contour>
        <pt x="625" y="136" on="1"/>
        <pt x="625" y="273" on="1"/>
        <pt x="688" y="273" on="1"/>
        <pt x="688" y="136" on="1"/>
        <pt x="719" y="136" on="1"/>
        <pt x="719" y="78" on="1"/>
        <pt x="688" y="78" on="1"/>
        <pt x="688" y="-4" on="1"/>
        <pt x="625" y="-4" on="1"/>
        <pt x="625" y="78" on="1"/>
        <pt x="452" y="78" on="1"/>
        <pt x="452" y="111" on="1"/>
        <pt x="559" y="372" on="1"/>
        <pt x="626" y="372" on="1"/>
        <pt x="529" y="136" on="1"/>
      </contour>
      <contour>
        <pt x="261" y="0" on="1"/>
        <pt x="469" y="620" on="1"/>
        <pt x="527" y="620" on="1"/>
        <pt x="319" y="0" on="1"/>
      </contour>
    </TTGlyph>
    <TTGlyph name="onesuperior" xMin="51" yMin="244" xMax="272" yMax="620">
      <contour>
        <pt x="143" y="554" on="1"/>
        <pt x="66" y="532" on="1"/>
        <pt x="51" y="589" on="1"/>
        <pt x="149" y="620" on="1"/>
        <pt x="207" y="620" on="1"/>
        <pt x="207" y="301" on="1"/>
        <pt x="272" y="301" on="1"/>
        <pt x="272" y="244" on="1"/>
        <pt x="69" y="244" on="1"/>
        <pt x="69" y="301" on="1"/>
        <pt x="143" y="301" on="1"/>
      </contour>
    </TTGlyph>
    <TTGlyph name="ordfeminine" xMin="30" yMin="452" xMax="303" yMax="774">
      <contour>
        <pt x="240" y="506" on="1"/>
        <pt x="208" y="452" on="0"/>
        <pt x="99" y="452" on="0"/>
        <pt x="30" y="532" on="0"/>
        <pt x="30" y="681" on="0"/>
        <pt x="116" y="774" on="0"/>
        <pt x="243" y="774" on="0"/>
        <pt x="296" y="737" on="1"/>
        <pt x="296" y="527" on="1"/>
        <pt x="303" y="461" on="1"/>
        <pt x="248" y="456" on="1"/>
      </contour>
      <contour>
        <pt x="92" y="558" on="0"/>
        <pt x="131" y="507" on="0"/>
        <pt x="192" y="507" on="0"/>
        <pt x="235" y="572" on="0"/>
        <pt x="235" y="632" on="1"/>
        <pt x="235" y="708" on="1"/>
        <pt x="209" y="720" on="0"/>
        <pt x="143" y="720" on="0"/>
        <pt x="92" y="657" on="0"/>
      </contour>
    </TTGlyph>
    <TTGlyph name="ordmasculine" xMin="35" yMin="452" xMax="309" yMax="774">
      <contour>
        <pt x="35" y="542" on="0"/>
        <pt x="35" y="684" on="0"/>
        <pt x="103" y="774" on="0"/>
        <pt x="239" y="774" on="0"/>
        <pt x="309" y="684" on="0"/>
        <pt x="309" y="542" on="0"/>
        <pt x="239" y="452" on="0"/>
        <pt x="103" y="452" on="0"/>
      </contour>
      <contour>
        <pt x="97" y="661" on="0"/>
        <pt x="97" y="565" on="0"/>
        <pt x="133" y="507" on="0"/>
        <pt x="209" y="507" on="0"/>
        <pt x="247" y="566" on="0"/>
        <pt x="247" y="661" on="0"/>
        <pt x="209" y="720" on="0"/>
        <pt x="133" y="720" on="0"/>
      </contour>
    </TTGlyph>
    <TTGlyph name="oslash" xMin="50" yMin="-94" xMax="491" yMax="598">
      <contour>
        <pt x="50" y="250" on="1"/>
        <pt x="50" y="367" on="0"/>
        <pt x="160" y="514" on="0"/>
        <pt x="270" y="514" on="1"/>
        <pt x="300" y="514" on="0"/>
        <pt x="327" y="508" on="1"/>
        <pt x="358" y="598" on="1"/>
        <pt x="417" y="598" on="1"/>
        <pt x="379" y="488" on="1"/>
        <pt x="491" y="425" on="0"/>
        <pt x="491" y="250" on="1"/>
        <pt x="491" y="133" on="0"/>
        <pt x="379" y="-14" on="0"/>
        <pt x="270" y="-14" on="1"/>
        <pt x="234" y="-14" on="0"/>
        <pt x="207" y="-7" on="1"/>
        <pt x="177" y="-94" on="1"/>
        <pt x="119" y="-94" on="1"/>
        <pt x="156" y="14" on="1"/>
        <pt x="50" y="76" on="0"/>
      </contour>
      <contour>
        <pt x="415" y="250" on="1"/>
        <pt x="415" y="368" on="0"/>
        <pt x="354" y="417" on="1"/>
        <pt x="230" y="59" on="1"/>
        <pt x="245" y="54" on="0"/>
        <pt x="270" y="54" on="1"/>
        <pt x="342" y="54" on="0"/>
        <pt x="415" y="163" on="0"/>
      </contour>
      <contour>
        <pt x="126" y="250" on="1"/>
        <pt x="126" y="137" on="0"/>
        <pt x="181" y="86" on="1"/>
        <pt x="304" y="442" on="1"/>
        <pt x="284" y="446" on="0"/>
        <pt x="270" y="446" on="1"/>
        <pt x="198" y="446" on="0"/>
        <pt x="126" y="337" on="0"/>
      </contour>
    </TTGlyph>
    <TTGlyph name="otilde" xMin="50" yMin="-14" xMax="491" yMax="706">
      <contour>
        <pt x="50" y="133" on="0"/>
        <pt x="50" y="367" on="0"/>
        <pt x="160" y="514" on="0"/>
        <pt x="379" y="514" on="0"/>
        <pt x="491" y="367" on="0"/>
        <pt x="491" y="133" on="0"/>
        <pt x="379" y="-14" on="0"/>
        <pt x="160" y="-14" on="0"/>
      </contour>
      <contour>
        <pt x="126" y="337" on="0"/>
        <pt x="126" y="163" on="0"/>
        <pt x="198" y="54" on="0"/>
        <pt x="342" y="54" on="0"/>
        <pt x="415" y="163" on="0"/>
        <pt x="415" y="337" on="0"/>
        <pt x="342" y="446" on="0"/>
        <pt x="198" y="446" on="0"/>
      </contour>
      <contour>
        <pt x="338" y="590" on="1"/>
        <pt x="312" y="590" on="0"/>
        <pt x="226" y="620" on="0"/>
        <pt x="206" y="620" on="1"/>
        <pt x="166" y="620" on="0"/>
        <pt x="159" y="576" on="1"/>
        <pt x="112" y="584" on="1"/>
        <pt x="130" y="692" on="0"/>
        <pt x="199" y="692" on="1"/>
        <pt x="224" y="692" on="0"/>
        <pt x="316" y="662" on="0"/>
        <pt x="335" y="662" on="1"/>
        <pt x="375" y="662" on="0"/>
        <pt x="382" y="706" on="1"/>
        <pt x="429" y="698" on="1"/>
        <pt x="410" y="590" on="0"/>
      </contour>
    </TTGlyph>
    <TTGlyph name="p" xMin="75" yMin="-225" xMax="514" yMax="514">
      <contour>
        <pt x="318" y="514" on="1"/>
        <pt x="404" y="514" on="0"/>
        <pt x="514" y="384" on="0"/>
        <pt x="514" y="139" on="0"/>
        <pt x="375" y="-14" on="0"/>
        <pt x="268" y="-14" on="1"/>
        <pt x="215" y="-14" on="0"/>
        <pt x="161" y="5" on="1"/>
        <pt x="161" y="-225" on="1"/>
        <pt x="85" y="-225" on="1"/>
        <pt x="85" y="400" on="1"/>
        <pt x="75" y="500" on="1"/>
        <pt x="141" y="505" on="1"/>
        <pt x="158" y="413" on="1"/>
        <pt x="214" y="514" on="0"/>
      </contour>
      <contour>
        <pt x="438" y="350" on="0"/>
        <pt x="362" y="446" on="0"/>
        <pt x="245" y="446" on="0"/>
        <pt x="163" y="332" on="0"/>
        <pt x="161" y="226" on="1"/>
        <pt x="161" y="82" on="1"/>
        <pt x="213" y="54" on="0"/>
        <pt x="268" y="54" on="1"/>
        <pt x="342" y="54" on="0"/>
        <pt x="438" y="169" on="0"/>
      </contour>
    </TTGlyph>
    <TTGlyph name="paragraph" xMin="0" yMin="-225" xMax="379" yMax="694">
      <contour>
        <pt x="258" y="-225" on="1"/>
        <pt x="217" y="-225" on="1"/>
        <pt x="217" y="316" on="1"/>
        <pt x="208" y="315" on="0"/>
        <pt x="189" y="315" on="1"/>
        <pt x="110" y="315" on="0"/>
        <pt x="0" y="425" on="0"/>
        <pt x="0" y="583" on="0"/>
        <pt x="110" y="694" on="0"/>
        <pt x="268" y="694" on="0"/>
        <pt x="379" y="583" on="0"/>
        <pt x="379" y="504" on="1"/>
        <pt x="379" y="-225" on="1"/>
        <pt x="303" y="-225" on="1"/>
        <pt x="303" y="504" on="1"/>
        <pt x="258" y="504" on="1"/>
      </contour>
    </TTGlyph>
    <TTGlyph name="parenleft" xMin="60" yMin="-93" xMax="231" yMax="713">
      <contour>
        <pt x="121" y="-20" on="0"/>
        <pt x="60" y="198" on="0"/>
        <pt x="60" y="421" on="0"/>
        <pt x="121" y="640" on="0"/>
        <pt x="175" y="713" on="1"/>
        <pt x="231" y="670" on="1"/>
        <pt x="189" y="611" on="0"/>
        <pt x="138" y="395" on="0"/>
        <pt x="138" y="225" on="0"/>
        <pt x="189" y="9" on="0"/>
        <pt x="231" y="-50" on="1"/>
        <pt x="175" y="-93" on="1"/>
      </contour>
    </TTGlyph>
    <TTGlyph name="parenright" xMin="15" yMin="-93" xMax="186" yMax="713">
      <contour>
        <pt x="108" y="225" on="0"/>
        <pt x="108" y="395" on="0"/>
        <pt x="57" y="611" on="0"/>
        <pt x="15" y="670" on="1"/>
        <pt x="71" y="713" on="1"/>
        <pt x="125" y="640" on="0"/>
        <pt x="186" y="421" on="0"/>
        <pt x="186" y="198" on="0"/>
        <pt x="125" y="-20" on="0"/>
        <pt x="71" y="-93" on="1"/>
        <pt x="15" y="-50" on="1"/>
        <pt x="57" y="9" on="0"/>
      </contour>
    </TTGlyph>
    <TTGlyph name="partialdiff" xMin="57" yMin="-14" xMax="489" yMax="720">
      <contour>
        <pt x="287" y="474" on="1"/>
        <pt x="345" y="474" on="0"/>
        <pt x="391" y="449" on="1"/>
        <pt x="325" y="627" on="0"/>
        <pt x="111" y="662" on="1"/>
        <pt x="128" y="720" on="1"/>
        <pt x="212" y="704" on="0"/>
        <pt x="342" y="636" on="0"/>
        <pt x="420" y="553" on="0"/>
        <pt x="445" y="500" on="1"/>
        <pt x="489" y="407" on="0"/>
        <pt x="489" y="159" on="0"/>
        <pt x="371" y="-14" on="0"/>
        <pt x="176" y="-14" on="0"/>
        <pt x="57" y="111" on="0"/>
        <pt x="57" y="333" on="0"/>
        <pt x="197" y="474" on="0"/>
      </contour>
      <contour>
        <pt x="417" y="291" on="1"/>
        <pt x="417" y="333" on="0"/>
        <pt x="411" y="369" on="1"/>
        <pt x="363" y="408" on="0"/>
        <pt x="233" y="408" on="0"/>
        <pt x="133" y="303" on="0"/>
        <pt x="133" y="138" on="0"/>
        <pt x="209" y="52" on="0"/>
        <pt x="333" y="52" on="0"/>
        <pt x="417" y="174" on="0"/>
      </contour>
    </TTGlyph>
    <TTGlyph name="percent" xMin="15" yMin="-85" xMax="755" yMax="705">
      <contour>
        <pt x="215" y="-85" on="1"/>
        <pt x="481" y="705" on="1"/>
        <pt x="555" y="705" on="1"/>
        <pt x="289" y="-85" on="1"/>
      </contour>
      <contour>
        <pt x="291" y="507" on="0"/>
        <pt x="291" y="333" on="0"/>
        <pt x="223" y="224" on="0"/>
        <pt x="84" y="224" on="0"/>
        <pt x="15" y="334" on="0"/>
        <pt x="15" y="506" on="0"/>
        <pt x="84" y="616" on="0"/>
        <pt x="223" y="616" on="0"/>
      </contour>
      <contour>
        <pt x="221" y="362" on="0"/>
        <pt x="221" y="478" on="0"/>
        <pt x="187" y="551" on="0"/>
        <pt x="119" y="551" on="0"/>
        <pt x="85" y="478" on="0"/>
        <pt x="85" y="362" on="0"/>
        <pt x="119" y="289" on="0"/>
        <pt x="187" y="289" on="0"/>
      </contour>
      <contour>
        <pt x="479" y="113" on="0"/>
        <pt x="479" y="287" on="0"/>
        <pt x="547" y="396" on="0"/>
        <pt x="686" y="396" on="0"/>
        <pt x="755" y="286" on="0"/>
        <pt x="755" y="114" on="0"/>
        <pt x="686" y="4" on="0"/>
        <pt x="547" y="4" on="0"/>
      </contour>
      <contour>
        <pt x="549" y="258" on="0"/>
        <pt x="549" y="142" on="0"/>
        <pt x="583" y="69" on="0"/>
        <pt x="651" y="69" on="0"/>
        <pt x="685" y="142" on="0"/>
        <pt x="685" y="258" on="0"/>
        <pt x="651" y="331" on="0"/>
        <pt x="583" y="331" on="0"/>
      </contour>
    </TTGlyph>
    <TTGlyph name="period" xMin="50" yMin="-14" xMax="160" yMax="96">
      <contour>
        <pt x="50" y="17" on="0"/>
        <pt x="50" y="65" on="0"/>
        <pt x="78" y="96" on="0"/>
        <pt x="131" y="96" on="0"/>
        <pt x="160" y="65" on="0"/>
        <pt x="160" y="17" on="0"/>
        <pt x="131" y="-14" on="0"/>
        <pt x="78" y="-14" on="0"/>
      </contour>
    </TTGlyph>
    <TTGlyph name="periodcentered" xMin="50" yMin="232" xMax="160" yMax="342">
      <contour>
        <pt x="50" y="263" on="0"/>
        <pt x="50" y="311" on="0"/>
        <pt x="78" y="342" on="0"/>
        <pt x="131" y="342" on="0"/>
        <pt x="160" y="311" on="0"/>
        <pt x="160" y="263" on="0"/>
        <pt x="131" y="232" on="0"/>
        <pt x="78" y="232" on="0"/>
      </contour>
    </TTGlyph>
    <TTGlyph name="perthousand" xMin="15" yMin="-85" xMax="1073" yMax="705">
      <contour>
        <pt x="215" y="-85" on="1"/>
        <pt x="481" y="705" on="1"/>
        <pt x="555" y="705" on="1"/>
        <pt x="289" y="-85" on="1"/>
      </contour>
      <contour>
        <pt x="291" y="507" on="0"/>
        <pt x="291" y="333" on="0"/>
        <pt x="223" y="224" on="0"/>
        <pt x="84" y="224" on="0"/>
        <pt x="15" y="334" on="0"/>
        <pt x="15" y="506" on="0"/>
        <pt x="84" y="616" on="0"/>
        <pt x="223" y="616" on="0"/>
      </contour>
      <contour>
        <pt x="221" y="362" on="0"/>
        <pt x="221" y="478" on="0"/>
        <pt x="187" y="551" on="0"/>
        <pt x="119" y="551" on="0"/>
        <pt x="85" y="478" on="0"/>
        <pt x="85" y="362" on="0"/>
        <pt x="119" y="289" on="0"/>
        <pt x="187" y="289" on="0"/>
      </contour>
      <contour>
        <pt x="797" y="113" on="0"/>
        <pt x="797" y="287" on="0"/>
        <pt x="865" y="396" on="0"/>
        <pt x="1004" y="396" on="0"/>
        <pt x="1073" y="286" on="0"/>
        <pt x="1073" y="114" on="0"/>
        <pt x="1004" y="4" on="0"/>
        <pt x="865" y="4" on="0"/>
      </contour>
      <contour>
        <pt x="479" y="113" on="0"/>
        <pt x="479" y="287" on="0"/>
        <pt x="547" y="396" on="0"/>
        <pt x="686" y="396" on="0"/>
        <pt x="755" y="286" on="0"/>
        <pt x="755" y="114" on="0"/>
        <pt x="686" y="4" on="0"/>
        <pt x="547" y="4" on="0"/>
      </contour>
      <contour>
        <pt x="867" y="258" on="0"/>
        <pt x="867" y="142" on="0"/>
        <pt x="901" y="69" on="0"/>
        <pt x="969" y="69" on="0"/>
        <pt x="1003" y="142" on="0"/>
        <pt x="1003" y="258" on="0"/>
        <pt x="969" y="331" on="0"/>
        <pt x="901" y="331" on="0"/>
      </contour>
      <contour>
        <pt x="549" y="258" on="0"/>
        <pt x="549" y="142" on="0"/>
        <pt x="583" y="69" on="0"/>
        <pt x="651" y="69" on="0"/>
        <pt x="685" y="142" on="0"/>
        <pt x="685" y="258" on="0"/>
        <pt x="651" y="331" on="0"/>
        <pt x="583" y="331" on="0"/>
      </contour>
    </TTGlyph>
    <TTGlyph name="pi" xMin="50" yMin="-14" xMax="557" yMax="500">
      <contour>
        <pt x="50" y="500" on="1"/>
        <pt x="557" y="500" on="1"/>
        <pt x="557" y="426" on="1"/>
        <pt x="487" y="426" on="1"/>
        <pt x="487" y="109" on="1"/>
        <pt x="487" y="54" on="0"/>
        <pt x="532" y="54" on="1"/>
        <pt x="515" y="-14" on="1"/>
        <pt x="465" y="-14" on="0"/>
        <pt x="407" y="39" on="0"/>
        <pt x="407" y="109" on="1"/>
        <pt x="407" y="426" on="1"/>
        <pt x="200" y="426" on="1"/>
        <pt x="200" y="0" on="1"/>
        <pt x="120" y="0" on="1"/>
        <pt x="120" y="426" on="1"/>
        <pt x="50" y="426" on="1"/>
      </contour>
    </TTGlyph>
    <TTGlyph name="plus" xMin="47" yMin="99" xMax="471" yMax="523">
      <contour>
        <pt x="47" y="275" on="1"/>
        <pt x="47" y="347" on="1"/>
        <pt x="223" y="347" on="1"/>
        <pt x="223" y="523" on="1"/>
        <pt x="295" y="523" on="1"/>
        <pt x="295" y="347" on="1"/>
        <pt x="471" y="347" on="1"/>
        <pt x="471" y="275" on="1"/>
        <pt x="295" y="275" on="1"/>
        <pt x="295" y="99" on="1"/>
        <pt x="223" y="99" on="1"/>
        <pt x="223" y="275" on="1"/>
      </contour>
    </TTGlyph>
    <TTGlyph name="plusminus" xMin="47" yMin="-48" xMax="471" yMax="523">
      <contour>
        <pt x="47" y="275" on="1"/>
        <pt x="47" y="347" on="1"/>
        <pt x="223" y="347" on="1"/>
        <pt x="223" y="523" on="1"/>
        <pt x="295" y="523" on="1"/>
        <pt x="295" y="347" on="1"/>
        <pt x="471" y="347" on="1"/>
        <pt x="471" y="275" on="1"/>
        <pt x="295" y="275" on="1"/>
        <pt x="295" y="99" on="1"/>
        <pt x="223" y="99" on="1"/>
        <pt x="223" y="275" on="1"/>
      </contour>
      <contour>
        <pt x="47" y="-48" on="1"/>
        <pt x="47" y="24" on="1"/>
        <pt x="471" y="24" on="1"/>
        <pt x="471" y="-48" on="1"/>
      </contour>
    </TTGlyph>
    <TTGlyph name="product" xMin="50" yMin="-150" xMax="624" yMax="700">
      <contour>
        <pt x="624" y="626" on="1"/>
        <pt x="554" y="626" on="1"/>
        <pt x="554" y="-150" on="1"/>
        <pt x="474" y="-150" on="1"/>
        <pt x="474" y="626" on="1"/>
        <pt x="200" y="626" on="1"/>
        <pt x="200" y="-150" on="1"/>
        <pt x="120" y="-150" on="1"/>
        <pt x="120" y="626" on="1"/>
        <pt x="50" y="626" on="1"/>
        <pt x="50" y="700" on="1"/>
        <pt x="624" y="700" on="1"/>
      </contour>
    </TTGlyph>
    <TTGlyph name="q" xMin="50" yMin="-225" xMax="479" yMax="513">
      <contour>
        <pt x="479" y="-225" on="1"/>
        <pt x="403" y="-225" on="1"/>
        <pt x="403" y="78" on="1"/>
        <pt x="348" y="-15" on="0"/>
        <pt x="241" y="-15" on="1"/>
        <pt x="157" y="-15" on="0"/>
        <pt x="50" y="115" on="0"/>
        <pt x="50" y="360" on="0"/>
        <pt x="189" y="513" on="0"/>
        <pt x="394" y="513" on="0"/>
        <pt x="479" y="454" on="1"/>
      </contour>
      <contour>
        <pt x="241" y="53" on="1"/>
        <pt x="310" y="53" on="0"/>
        <pt x="403" y="176" on="0"/>
        <pt x="403" y="289" on="1"/>
        <pt x="403" y="421" on="1"/>
        <pt x="357" y="445" on="0"/>
        <pt x="222" y="445" on="0"/>
        <pt x="126" y="330" on="0"/>
        <pt x="126" y="149" on="0"/>
        <pt x="191" y="53" on="0"/>
      </contour>
    </TTGlyph>
    <TTGlyph name="question" xMin="0" yMin="-14" xMax="354" yMax="674">
      <contour>
        <pt x="175" y="180" on="1"/>
        <pt x="105" y="180" on="1"/>
        <pt x="105" y="247" on="1"/>
        <pt x="105" y="295" on="0"/>
        <pt x="141" y="370" on="0"/>
        <pt x="177" y="402" on="0"/>
        <pt x="235" y="445" on="0"/>
        <pt x="256" y="464" on="0"/>
        <pt x="278" y="502" on="0"/>
        <pt x="278" y="525" on="1"/>
        <pt x="278" y="564" on="0"/>
        <pt x="218" y="604" on="0"/>
        <pt x="172" y="604" on="1"/>
        <pt x="92" y="604" on="0"/>
        <pt x="42" y="552" on="1"/>
        <pt x="0" y="608" on="1"/>
        <pt x="71" y="674" on="0"/>
        <pt x="175" y="674" on="1"/>
        <pt x="251" y="674" on="0"/>
        <pt x="354" y="597" on="0"/>
        <pt x="354" y="525" on="1"/>
        <pt x="354" y="487" on="0"/>
        <pt x="321" y="425" on="0"/>
        <pt x="288" y="395" on="0"/>
        <pt x="231" y="355" on="0"/>
        <pt x="202" y="329" on="0"/>
        <pt x="175" y="277" on="0"/>
        <pt x="175" y="247" on="1"/>
      </contour>
      <contour>
        <pt x="85" y="17" on="0"/>
        <pt x="85" y="65" on="0"/>
        <pt x="113" y="96" on="0"/>
        <pt x="166" y="96" on="0"/>
        <pt x="195" y="65" on="0"/>
        <pt x="195" y="17" on="0"/>
        <pt x="166" y="-14" on="0"/>
        <pt x="113" y="-14" on="0"/>
      </contour>
    </TTGlyph>
    <TTGlyph name="questiondown" xMin="0" yMin="-174" xMax="354" yMax="514">
      <contour>
        <pt x="179" y="320" on="1"/>
        <pt x="249" y="320" on="1"/>
        <pt x="249" y="253" on="1"/>
        <pt x="249" y="205" on="0"/>
        <pt x="213" y="130" on="0"/>
        <pt x="177" y="98" on="0"/>
        <pt x="119" y="55" on="0"/>
        <pt x="98" y="36" on="0"/>
        <pt x="76" y="-2" on="0"/>
        <pt x="76" y="-25" on="1"/>
        <pt x="76" y="-64" on="0"/>
        <pt x="136" y="-104" on="0"/>
        <pt x="182" y="-104" on="1"/>
        <pt x="262" y="-104" on="0"/>
        <pt x="312" y="-52" on="1"/>
        <pt x="354" y="-108" on="1"/>
        <pt x="283" y="-174" on="0"/>
        <pt x="179" y="-174" on="1"/>
        <pt x="103" y="-174" on="0"/>
        <pt x="0" y="-97" on="0"/>
        <pt x="0" y="-25" on="1"/>
        <pt x="0" y="13" on="0"/>
        <pt x="33" y="75" on="0"/>
        <pt x="66" y="105" on="0"/>
        <pt x="123" y="145" on="0"/>
        <pt x="152" y="171" on="0"/>
        <pt x="179" y="223" on="0"/>
        <pt x="179" y="253" on="1"/>
      </contour>
      <contour>
        <pt x="269" y="483" on="0"/>
        <pt x="269" y="435" on="0"/>
        <pt x="241" y="404" on="0"/>
        <pt x="188" y="404" on="0"/>
        <pt x="159" y="435" on="0"/>
        <pt x="159" y="483" on="0"/>
        <pt x="188" y="514" on="0"/>
        <pt x="241" y="514" on="0"/>
      </contour>
    </TTGlyph>
    <TTGlyph name="quotedbl" xMin="40" yMin="457" xMax="263" yMax="680">
      <contour>
        <pt x="191" y="457" on="1"/>
        <pt x="181" y="680" on="1"/>
        <pt x="263" y="680" on="1"/>
        <pt x="253" y="457" on="1"/>
      </contour>
      <contour>
        <pt x="50" y="457" on="1"/>
        <pt x="40" y="680" on="1"/>
        <pt x="122" y="680" on="1"/>
        <pt x="112" y="457" on="1"/>
      </contour>
    </TTGlyph>
    <TTGlyph name="quotedblbase" xMin="20" yMin="-140" xMax="275" yMax="96">
      <contour>
        <pt x="275" y="49" on="1"/>
        <pt x="275" y="31" on="0"/>
        <pt x="240" y="-34" on="1"/>
        <pt x="182" y="-140" on="1"/>
        <pt x="150" y="-129" on="1"/>
        <pt x="191" y="96" on="1"/>
        <pt x="275" y="96" on="0"/>
      </contour>
      <contour>
        <pt x="145" y="49" on="1"/>
        <pt x="145" y="31" on="0"/>
        <pt x="110" y="-34" on="1"/>
        <pt x="52" y="-140" on="1"/>
        <pt x="20" y="-129" on="1"/>
        <pt x="61" y="96" on="1"/>
        <pt x="145" y="96" on="0"/>
      </contour>
    </TTGlyph>
    <TTGlyph name="quotedblleft" xMin="20" yMin="444" xMax="275" yMax="680">
      <contour>
        <pt x="150" y="491" on="1"/>
        <pt x="150" y="509" on="0"/>
        <pt x="185" y="574" on="1"/>
        <pt x="243" y="680" on="1"/>
        <pt x="275" y="669" on="1"/>
        <pt x="234" y="444" on="1"/>
        <pt x="150" y="444" on="0"/>
      </contour>
      <contour>
        <pt x="20" y="491" on="1"/>
        <pt x="20" y="509" on="0"/>
        <pt x="55" y="574" on="1"/>
        <pt x="113" y="680" on="1"/>
        <pt x="145" y="669" on="1"/>
        <pt x="104" y="444" on="1"/>
        <pt x="20" y="444" on="0"/>
      </contour>
    </TTGlyph>
    <TTGlyph name="quotedblright" xMin="20" yMin="444" xMax="275" yMax="680">
      <contour>
        <pt x="275" y="633" on="1"/>
        <pt x="275" y="615" on="0"/>
        <pt x="240" y="550" on="1"/>
        <pt x="182" y="444" on="1"/>
        <pt x="150" y="455" on="1"/>
        <pt x="191" y="680" on="1"/>
        <pt x="275" y="680" on="0"/>
      </contour>
      <contour>
        <pt x="145" y="633" on="1"/>
        <pt x="145" y="615" on="0"/>
        <pt x="110" y="550" on="1"/>
        <pt x="52" y="444" on="1"/>
        <pt x="20" y="455" on="1"/>
        <pt x="61" y="680" on="1"/>
        <pt x="145" y="680" on="0"/>
      </contour>
    </TTGlyph>
    <TTGlyph name="quoteleft" xMin="20" yMin="444" xMax="145" yMax="680">
      <contour>
        <pt x="20" y="491" on="1"/>
        <pt x="20" y="509" on="0"/>
        <pt x="55" y="574" on="1"/>
        <pt x="113" y="680" on="1"/>
        <pt x="145" y="669" on="1"/>
        <pt x="104" y="444" on="1"/>
        <pt x="20" y="444" on="0"/>
      </contour>
    </TTGlyph>
    <TTGlyph name="quoteright" xMin="20" yMin="444" xMax="145" yMax="680">
      <contour>
        <pt x="145" y="633" on="1"/>
        <pt x="145" y="615" on="0"/>
        <pt x="110" y="550" on="1"/>
        <pt x="52" y="444" on="1"/>
        <pt x="20" y="455" on="1"/>
        <pt x="61" y="680" on="1"/>
        <pt x="145" y="680" on="0"/>
      </contour>
    </TTGlyph>
    <TTGlyph name="quotesinglbase" xMin="20" yMin="-140" xMax="145" yMax="96">
      <contour>
        <pt x="145" y="49" on="1"/>
        <pt x="145" y="31" on="0"/>
        <pt x="110" y="-34" on="1"/>
        <pt x="52" y="-140" on="1"/>
        <pt x="20" y="-129" on="1"/>
        <pt x="61" y="96" on="1"/>
        <pt x="145" y="96" on="0"/>
      </contour>
    </TTGlyph>
    <TTGlyph name="quotesingle" xMin="40" yMin="457" xMax="122" yMax="680">
      <contour>
        <pt x="50" y="457" on="1"/>
        <pt x="40" y="680" on="1"/>
        <pt x="122" y="680" on="1"/>
        <pt x="112" y="457" on="1"/>
      </contour>
    </TTGlyph>
    <TTGlyph name="r" xMin="75" yMin="0" xMax="342" yMax="511">
      <contour>
        <pt x="161" y="0" on="1"/>
        <pt x="85" y="0" on="1"/>
        <pt x="85" y="400" on="1"/>
        <pt x="75" y="500" on="1"/>
        <pt x="141" y="505" on="1"/>
        <pt x="161" y="385" on="1"/>
        <pt x="191" y="447" on="0"/>
        <pt x="283" y="511" on="0"/>
        <pt x="337" y="511" on="1"/>
        <pt x="342" y="435" on="1"/>
        <pt x="166" y="421" on="0"/>
        <pt x="161" y="166" on="1"/>
      </contour>
    </TTGlyph>
    <TTGlyph name="radical" xMin="50" yMin="-150" xMax="607" yMax="730">
      <contour>
        <pt x="607" y="659" on="1"/>
        <pt x="487" y="659" on="1"/>
        <pt x="277" y="-150" on="1"/>
        <pt x="179" y="-150" on="1"/>
        <pt x="50" y="230" on="1"/>
        <pt x="113" y="230" on="1"/>
        <pt x="215" y="-84" on="1"/>
        <pt x="423" y="730" on="1"/>
        <pt x="607" y="730" on="1"/>
      </contour>
    </TTGlyph>
    <TTGlyph name="registered" xMin="35" yMin="243" xMax="607" yMax="815">
      <contour>
        <pt x="35" y="406" on="0"/>
        <pt x="35" y="652" on="0"/>
        <pt x="183" y="815" on="0"/>
        <pt x="454" y="815" on="0"/>
        <pt x="607" y="650" on="0"/>
        <pt x="607" y="408" on="0"/>
        <pt x="454" y="243" on="0"/>
        <pt x="183" y="243" on="0"/>
      </contour>
      <contour>
        <pt x="85" y="631" on="0"/>
        <pt x="85" y="427" on="0"/>
        <pt x="207" y="291" on="0"/>
        <pt x="431" y="291" on="0"/>
        <pt x="557" y="428" on="0"/>
        <pt x="557" y="630" on="0"/>
        <pt x="431" y="767" on="0"/>
        <pt x="207" y="767" on="0"/>
      </contour>
      <contour>
        <pt x="343" y="501" on="1"/>
        <pt x="272" y="501" on="1"/>
        <pt x="272" y="360" on="1"/>
        <pt x="215" y="360" on="1"/>
        <pt x="215" y="705" on="1"/>
        <pt x="345" y="705" on="1"/>
        <pt x="388" y="705" on="0"/>
        <pt x="448" y="645" on="0"/>
        <pt x="448" y="602" on="1"/>
        <pt x="448" y="546" on="0"/>
        <pt x="401" y="517" on="1"/>
        <pt x="408" y="511" on="0"/>
        <pt x="414" y="497" on="1"/>
        <pt x="463" y="367" on="1"/>
        <pt x="411" y="349" on="1"/>
        <pt x="359" y="485" on="1"/>
        <pt x="353" y="501" on="0"/>
      </contour>
      <contour>
        <pt x="343" y="654" on="1"/>
        <pt x="272" y="654" on="1"/>
        <pt x="272" y="550" on="1"/>
        <pt x="343" y="550" on="1"/>
        <pt x="363" y="550" on="0"/>
        <pt x="392" y="581" on="0"/>
        <pt x="392" y="624" on="0"/>
        <pt x="363" y="654" on="0"/>
      </contour>
    </TTGlyph>
    <TTGlyph name="ring" xMin="30" yMin="537" xMax="232" yMax="739">
      <contour>
        <pt x="30" y="594" on="0"/>
        <pt x="30" y="682" on="0"/>
        <pt x="82" y="739" on="0"/>
        <pt x="179" y="739" on="0"/>
        <pt x="232" y="681" on="0"/>
        <pt x="232" y="595" on="0"/>
        <pt x="179" y="537" on="0"/>
        <pt x="82" y="537" on="0"/>
      </contour>
      <contour>
        <pt x="81" y="660" on="0"/>
        <pt x="81" y="616" on="0"/>
        <pt x="107" y="588" on="0"/>
        <pt x="154" y="588" on="0"/>
        <pt x="181" y="617" on="0"/>
        <pt x="181" y="659" on="0"/>
        <pt x="154" y="688" on="0"/>
        <pt x="107" y="688" on="0"/>
      </contour>
    </TTGlyph>
    <TTGlyph name="s" xMin="40" yMin="-14" xMax="396" yMax="514">
      <contour>
        <pt x="216" y="55" on="1"/>
        <pt x="260" y="55" on="0"/>
        <pt x="320" y="97" on="0"/>
        <pt x="320" y="160" on="0"/>
        <pt x="286" y="197" on="0"/>
        <pt x="247" y="213" on="0"/>
        <pt x="175" y="234" on="0"/>
        <pt x="137" y="249" on="0"/>
        <pt x="111" y="265" on="1"/>
        <pt x="62" y="295" on="0"/>
        <pt x="62" y="440" on="0"/>
        <pt x="160" y="514" on="0"/>
        <pt x="226" y="514" on="1"/>
        <pt x="267" y="514" on="0"/>
        <pt x="350" y="492" on="0"/>
        <pt x="371" y="480" on="1"/>
        <pt x="343" y="419" on="1"/>
        <pt x="295" y="445" on="0"/>
        <pt x="226" y="445" on="1"/>
        <pt x="191" y="445" on="0"/>
        <pt x="138" y="408" on="0"/>
        <pt x="138" y="351" on="0"/>
        <pt x="170" y="319" on="0"/>
        <pt x="204" y="305" on="0"/>
        <pt x="274" y="285" on="0"/>
        <pt x="317" y="268" on="0"/>
        <pt x="344" y="250" on="1"/>
        <pt x="396" y="215" on="0"/>
        <pt x="396" y="64" on="0"/>
        <pt x="293" y="-14" on="0"/>
        <pt x="216" y="-14" on="1"/>
        <pt x="112" y="-14" on="0"/>
        <pt x="40" y="53" on="1"/>
        <pt x="81" y="108" on="1"/>
        <pt x="136" y="55" on="0"/>
      </contour>
    </TTGlyph>
    <TTGlyph name="scaron" xMin="40" yMin="-14" xMax="396" yMax="727">
      <contour>
        <pt x="216" y="55" on="1"/>
        <pt x="260" y="55" on="0"/>
        <pt x="320" y="97" on="0"/>
        <pt x="320" y="160" on="0"/>
        <pt x="286" y="197" on="0"/>
        <pt x="247" y="213" on="0"/>
        <pt x="175" y="234" on="0"/>
        <pt x="137" y="249" on="0"/>
        <pt x="111" y="265" on="1"/>
        <pt x="62" y="295" on="0"/>
        <pt x="62" y="440" on="0"/>
        <pt x="160" y="514" on="0"/>
        <pt x="226" y="514" on="1"/>
        <pt x="267" y="514" on="0"/>
        <pt x="350" y="492" on="0"/>
        <pt x="371" y="480" on="1"/>
        <pt x="343" y="419" on="1"/>
        <pt x="295" y="445" on="0"/>
        <pt x="226" y="445" on="1"/>
        <pt x="191" y="445" on="0"/>
        <pt x="138" y="408" on="0"/>
        <pt x="138" y="351" on="0"/>
        <pt x="170" y="319" on="0"/>
        <pt x="204" y="305" on="0"/>
        <pt x="274" y="285" on="0"/>
        <pt x="317" y="268" on="0"/>
        <pt x="344" y="250" on="1"/>
        <pt x="396" y="215" on="0"/>
        <pt x="396" y="64" on="0"/>
        <pt x="293" y="-14" on="0"/>
        <pt x="216" y="-14" on="1"/>
        <pt x="112" y="-14" on="0"/>
        <pt x="40" y="53" on="1"/>
        <pt x="81" y="108" on="1"/>
        <pt x="136" y="55" on="0"/>
      </contour>
      <contour>
        <pt x="275" y="565" on="1"/>
        <pt x="255" y="537" on="0"/>
        <pt x="206" y="537" on="0"/>
        <pt x="187" y="565" on="1"/>
        <pt x="90" y="702" on="1"/>
        <pt x="114" y="727" on="1"/>
        <pt x="231" y="620" on="1"/>
        <pt x="348" y="727" on="1"/>
        <pt x="372" y="702" on="1"/>
      </contour>
    </TTGlyph>
</ttFont>
